<?xml version="1.0" standalone="no"?>
<svg xmlns:xlink="http://www.w3.org/1999/xlink" id="wave" style="transform:rotate(0deg); transition: 0.3s" viewBox="0 0 1440 490" version="1.1" xmlns="http://www.w3.org/2000/svg"><defs><linearGradient id="sw-gradient-0" x1="0" x2="0" y1="1" y2="0"><stop stop-color="rgba(237.141, 237.141, 237.141, 1)" offset="0%"/><stop stop-color="rgba(255, 255, 255, 1)" offset="100%"/></linearGradient></defs><path style="transform:translate(0, 0px); opacity:1" fill="url(#sw-gradient-0)" d="M0,441L160,343L320,294L480,294L640,343L800,294L960,147L1120,0L1280,343L1440,441L1600,196L1760,147L1920,196L2080,343L2240,49L2400,392L2560,392L2720,49L2880,98L3040,392L3200,441L3360,147L3520,294L3680,196L3840,294L3840,490L3680,490L3520,490L3360,490L3200,490L3040,490L2880,490L2720,490L2560,490L2400,490L2240,490L2080,490L1920,490L1760,490L1600,490L1440,490L1280,490L1120,490L960,490L800,490L640,490L480,490L320,490L160,490L0,490Z"/></svg>