<?xml version="1.0" standalone="no"?>
<svg xmlns:xlink="http://www.w3.org/1999/xlink" id="wave" style="transform:rotate(0deg); transition: 0.3s" viewBox="0 0 1440 310" version="1.1" xmlns="http://www.w3.org/2000/svg"><defs><linearGradient id="sw-gradient-0" x1="0" x2="0" y1="1" y2="0"><stop stop-color="rgba(239.418, 239.418, 239.418, 0.37)" offset="0%"/><stop stop-color="rgba(214.374, 214.374, 214.374, 0.33)" offset="100%"/></linearGradient></defs><path style="transform:translate(0, 0px); opacity:1" fill="url(#sw-gradient-0)" d="M0,186L720,0L1440,248L2160,279L2880,248L3600,93L4320,0L5040,62L5760,248L6480,0L7200,124L7920,155L8640,124L9360,155L10080,279L10800,93L11520,31L12240,93L12960,124L13680,217L14400,0L15120,279L15840,93L16560,186L17280,279L17280,310L16560,310L15840,310L15120,310L14400,310L13680,310L12960,310L12240,310L11520,310L10800,310L10080,310L9360,310L8640,310L7920,310L7200,310L6480,310L5760,310L5040,310L4320,310L3600,310L2880,310L2160,310L1440,310L720,310L0,310Z"/></svg>