<?xml version="1.0" standalone="no"?>
<svg xmlns:xlink="http://www.w3.org/1999/xlink" id="wave" style="transform:rotate(0deg); transition: 0.3s" viewBox="0 0 1440 490" version="1.1" xmlns="http://www.w3.org/2000/svg"><defs><linearGradient id="sw-gradient-0" x1="0" x2="0" y1="1" y2="0"><stop stop-color="rgba(239.418, 239.418, 239.418, 0.37)" offset="0%"/><stop stop-color="rgba(214.374, 214.374, 214.374, 0.33)" offset="100%"/></linearGradient></defs><path style="transform:translate(0, 0px); opacity:1" fill="url(#sw-gradient-0)" d="M0,294L1440,0L2880,392L4320,441L5760,392L7200,147L8640,0L10080,98L11520,392L12960,0L14400,196L15840,245L17280,196L18720,245L20160,441L21600,147L23040,49L24480,147L25920,196L27360,343L28800,0L30240,441L31680,147L33120,294L34560,441L34560,490L33120,490L31680,490L30240,490L28800,490L27360,490L25920,490L24480,490L23040,490L21600,490L20160,490L18720,490L17280,490L15840,490L14400,490L12960,490L11520,490L10080,490L8640,490L7200,490L5760,490L4320,490L2880,490L1440,490L0,490Z"/></svg>