<?xml version="1.0" standalone="no"?>
<svg xmlns:xlink="http://www.w3.org/1999/xlink" id="wave" style="transform:rotate(0deg); transition: 0.3s" viewBox="0 0 1440 490" version="1.1" xmlns="http://www.w3.org/2000/svg"><defs><linearGradient id="sw-gradient-0" x1="0" x2="0" y1="1" y2="0"><stop stop-color="rgba(239.418, 239.418, 239.418, 0.37)" offset="0%"/><stop stop-color="rgba(214.374, 214.374, 214.374, 0.33)" offset="100%"/></linearGradient></defs><path style="transform:translate(0, 0px); opacity:1" fill="url(#sw-gradient-0)" d="M0,294L13.3,245C26.7,196,53,98,80,114.3C106.7,131,133,261,160,334.8C186.7,408,213,425,240,424.7C266.7,425,293,408,320,359.3C346.7,310,373,229,400,163.3C426.7,98,453,49,480,40.8C506.7,33,533,65,560,130.7C586.7,196,613,294,640,277.7C666.7,261,693,131,720,98C746.7,65,773,131,800,171.5C826.7,212,853,229,880,228.7C906.7,229,933,212,960,212.3C986.7,212,1013,229,1040,269.5C1066.7,310,1093,376,1120,359.3C1146.7,343,1173,245,1200,179.7C1226.7,114,1253,82,1280,81.7C1306.7,82,1333,114,1360,138.8C1386.7,163,1413,180,1440,212.3C1466.7,245,1493,294,1520,261.3C1546.7,229,1573,114,1600,130.7C1626.7,147,1653,294,1680,318.5C1706.7,343,1733,245,1760,220.5C1786.7,196,1813,245,1840,294C1866.7,343,1893,392,1907,416.5L1920,441L1920,490L1906.7,490C1893.3,490,1867,490,1840,490C1813.3,490,1787,490,1760,490C1733.3,490,1707,490,1680,490C1653.3,490,1627,490,1600,490C1573.3,490,1547,490,1520,490C1493.3,490,1467,490,1440,490C1413.3,490,1387,490,1360,490C1333.3,490,1307,490,1280,490C1253.3,490,1227,490,1200,490C1173.3,490,1147,490,1120,490C1093.3,490,1067,490,1040,490C1013.3,490,987,490,960,490C933.3,490,907,490,880,490C853.3,490,827,490,800,490C773.3,490,747,490,720,490C693.3,490,667,490,640,490C613.3,490,587,490,560,490C533.3,490,507,490,480,490C453.3,490,427,490,400,490C373.3,490,347,490,320,490C293.3,490,267,490,240,490C213.3,490,187,490,160,490C133.3,490,107,490,80,490C53.3,490,27,490,13,490L0,490Z"/></svg>