<?xml version="1.0" standalone="no"?>
<svg xmlns:xlink="http://www.w3.org/1999/xlink" id="wave" style="transform:rotate(0deg); transition: 0.3s" viewBox="0 0 1440 490" version="1.1" xmlns="http://www.w3.org/2000/svg"><defs><linearGradient id="sw-gradient-0" x1="0" x2="0" y1="1" y2="0"><stop stop-color="rgba(255, 249.857, 248.206, 1)" offset="0%"/><stop stop-color="rgba(232.588, 232.588, 232.588, 1)" offset="100%"/></linearGradient></defs><path style="transform:translate(0, 0px); opacity:1" fill="url(#sw-gradient-0)" d="M0,0L1440,294L2880,196L4320,343L5760,245L7200,196L8640,196L10080,0L11520,392L12960,196L14400,147L15840,0L17280,0L18720,147L20160,343L21600,196L23040,147L24480,294L25920,392L27360,343L28800,0L30240,98L31680,245L33120,147L34560,196L34560,490L33120,490L31680,490L30240,490L28800,490L27360,490L25920,490L24480,490L23040,490L21600,490L20160,490L18720,490L17280,490L15840,490L14400,490L12960,490L11520,490L10080,490L8640,490L7200,490L5760,490L4320,490L2880,490L1440,490L0,490Z"/></svg>