<svg xmlns="http://www.w3.org/2000/svg" xmlns:xlink="http://www.w3.org/1999/xlink" width="500" zoomAndPan="magnify" viewBox="0 0 375 374.999991" height="500" preserveAspectRatio="xMidYMid meet" version="1.0"><path fill="#2a3134" d="M 265.375 150.492188 L 265.324219 151.734375 C 263.25 158.632812 230.765625 155.078125 192.785156 143.800781 C 154.753906 132.5 125.609375 117.746094 127.660156 110.824219 C 128.011719 110.65625 127.730469 106.554688 143.886719 107.429688 C 157.371094 108.152344 177.800781 112.121094 200.199219 118.785156 C 222.597656 125.421875 241.914062 133.277344 253.582031 140.042969 C 260.605469 144.113281 264.882812 147.742188 265.375 150.492188 Z M 265.375 150.492188 " fill-opacity="1" fill-rule="nonzero"/><path fill="#181e1e" d="M 253.683594 141.507812 C 252.03125 147.066406 225.90625 144.199219 195.355469 135.121094 C 164.78125 126.035156 141.351562 114.175781 143.003906 108.617188 C 143.140625 108.160156 143.433594 107.773438 143.894531 107.4375 C 157.359375 108.164062 177.808594 112.121094 200.210938 118.777344 C 222.589844 125.425781 241.902344 133.289062 253.578125 140.03125 C 253.78125 140.566406 253.816406 141.050781 253.683594 141.507812 Z M 253.683594 141.507812 " fill-opacity="1" fill-rule="nonzero"/><path fill="#71d8f8" d="M 292.816406 232.332031 C 292.816406 302.441406 235.992188 359.082031 166.089844 359.082031 C 96.5 359.082031 39.339844 302.707031 39.339844 232.332031 C 39.339844 196.121094 54.511719 163.472656 78.859375 140.378906 C 114.058594 106.980469 164.257812 97.210938 208.363281 112.808594 C 257.769531 130.269531 292.816406 177.382812 292.816406 232.332031 Z M 292.816406 232.332031 " fill-opacity="1" fill-rule="nonzero"/><path fill="#50c9eb" d="M 127.667969 353.128906 C 76.441406 336.882812 39.339844 288.925781 39.339844 232.332031 C 39.339844 196.121094 54.511719 163.472656 78.859375 140.378906 C 74.519531 154.789062 72.457031 169.828125 72.617188 184.886719 C 69.339844 189.871094 72.417969 199.867188 67.199219 202.96875 C 65.746094 201.539062 62.8125 202.164062 62.613281 204.492188 C 62.433594 206.664062 64.269531 208.453125 66.125 209.59375 C 68.003906 210.714844 70.132812 211.609375 71.316406 213.441406 C 72.503906 215.253906 71.878906 218.390625 69.707031 218.65625 C 68.183594 218.835938 66.910156 217.515625 65.433594 217.023438 C 63.957031 216.53125 61.808594 218.140625 62.882812 219.238281 C 64.941406 219.84375 67.089844 220.515625 68.609375 221.992188 C 70.132812 223.492188 70.824219 226.085938 69.527344 227.789062 C 68.992188 228.480469 68.183594 228.953125 67.582031 229.578125 C 66.171875 231.03125 65.878906 233.496094 66.953125 235.21875 C 68.003906 236.960938 70.289062 237.859375 72.257812 237.277344 C 76.113281 236.097656 76.96875 230.917969 79.082031 228.347656 C 80.292969 232.417969 81.632812 236.46875 83.179688 240.429688 C 83.179688 240.453125 83.15625 240.5 83.15625 240.519531 C 82.214844 244.125 83.960938 248.261719 87.230469 250.007812 C 96.273438 269.65625 109.378906 287.347656 126.792969 301.679688 C 129.367188 306.023438 131.628906 310.542969 133.863281 315.0625 C 131.960938 315.085938 130.039062 315.109375 128.25 315.777344 C 124.460938 317.21875 123.214844 321.050781 126.457031 324.417969 C 127.644531 325.648438 129.121094 326.566406 130.484375 327.617188 C 139.773438 334.910156 131.359375 344.78125 127.667969 353.128906 Z M 127.667969 353.128906 " fill-opacity="1" fill-rule="nonzero"/><path fill="#2dc97d" d="M 288.386719 199.03125 C 282.488281 212.992188 274.398438 210.699219 272.320312 201.3125 C 271.246094 196.324219 271.3125 191.15625 270.304688 186.164062 C 269.296875 181.175781 266.882812 176.070312 262.382812 173.65625 C 258.957031 171.84375 254.082031 171.191406 253.027344 167.433594 C 252.132812 164.257812 254.460938 159.757812 251.597656 158.101562 C 247.667969 155.828125 239.988281 164.925781 245.597656 178.175781 C 250.164062 188.992188 262.171875 198.8125 260.457031 211.542969 C 253.253906 209.886719 245.152344 213.621094 241.726562 220.179688 C 239.488281 224.453125 239.175781 229.53125 237.003906 233.828125 C 234.8125 238.148438 229.308594 241.59375 225.257812 238.976562 C 220.960938 236.203125 222.148438 229.710938 223.847656 224.902344 C 231.210938 204.085938 232.460938 201.476562 232.171875 197.621094 C 231.96875 194.644531 230.226562 191.578125 227.359375 190.773438 C 223.222656 189.609375 219.417969 193.390625 215.210938 194.332031 C 208.003906 195.941406 201.46875 188.3125 201.15625 180.949219 C 200.582031 166.375 215.78125 155.203125 211.628906 144.046875 C 210.710938 141.519531 208.832031 139.484375 207.488281 137.179688 C 203.199219 129.746094 204.535156 120.570312 208.363281 112.808594 C 247.402344 126.613281 277.46875 158.886719 288.386719 199.03125 Z M 288.386719 199.03125 " fill-opacity="1" fill-rule="nonzero"/><path fill="#20b267" d="M 283.597656 184.820312 C 265.136719 155.640625 237.835938 132.007812 206.257812 118.023438 C 206.816406 116.230469 207.535156 114.488281 208.363281 112.808594 C 242.601562 124.914062 270.058594 151.300781 283.597656 184.820312 Z M 283.597656 184.820312 " fill-opacity="1" fill-rule="nonzero"/><path fill="#2dc97d" d="M 158.949219 223.445312 C 158.257812 226.535156 156.800781 229.421875 155.882812 232.441406 C 154.230469 237.949219 154.320312 243.855469 152.664062 249.335938 C 151.027344 254.84375 146.734375 260.28125 140.980469 260.414062 C 135.164062 260.550781 130.710938 255.335938 127.890625 250.234375 C 125.070312 245.152344 122.609375 239.335938 117.507812 236.539062 C 111.417969 233.160156 102.738281 236.066406 99.871094 242.402344 C 99.15625 244.035156 98.777344 245.800781 97.835938 247.300781 C 95.800781 250.613281 91.144531 251.910156 87.632812 250.253906 C 83.863281 248.355469 82.230469 244.066406 83.15625 240.519531 C 83.15625 240.5 83.179688 240.453125 83.179688 240.429688 C 83.894531 237.8125 85.796875 235.640625 86.78125 233.089844 C 87.789062 230.519531 87.429688 226.914062 84.878906 225.886719 C 82.027344 224.726562 79.191406 227.589844 77.828125 230.316406 C 76.464844 233.070312 75.191406 236.378906 72.257812 237.277344 C 70.289062 237.859375 68.003906 236.960938 66.953125 235.21875 C 65.878906 233.496094 66.171875 231.03125 67.582031 229.578125 C 68.183594 228.953125 68.992188 228.480469 69.527344 227.789062 C 70.824219 226.085938 70.132812 223.492188 68.609375 221.992188 C 67.089844 220.515625 64.941406 219.84375 62.882812 219.238281 C 61.808594 218.140625 63.957031 216.53125 65.433594 217.023438 C 66.910156 217.515625 68.183594 218.835938 69.707031 218.65625 C 71.878906 218.390625 72.503906 215.253906 71.316406 213.441406 C 70.132812 211.609375 68.003906 210.714844 66.125 209.59375 C 64.269531 208.453125 62.433594 206.664062 62.613281 204.492188 C 62.8125 202.164062 65.746094 201.539062 67.199219 202.96875 C 73.6875 199.109375 67.359375 184.765625 76.261719 182.335938 C 80.941406 181.085938 85.371094 185.246094 90.226562 183.074219 C 94.03125 181.398438 96.515625 176.808594 95.507812 172.714844 C 94.992188 170.632812 93.742188 168.730469 93.652344 166.605469 C 93.5625 164.457031 95.574219 162.039062 97.523438 162.914062 C 98.128906 163.183594 98.597656 163.71875 99.179688 164.03125 C 100.699219 164.835938 102.625 163.921875 103.742188 162.621094 C 106.429688 159.488281 108.511719 155.527344 112.894531 154.296875 C 116.722656 153.222656 119.027344 156.066406 118.421875 160.09375 C 118 163.023438 116.632812 166.089844 117.863281 168.777344 C 119.09375 171.527344 122.632812 172.558594 125.605469 172.019531 C 131.601562 170.9375 136.292969 165.046875 142.503906 166.515625 C 147.558594 167.703125 149.886719 173.878906 149.261719 179.027344 C 148.613281 184.195312 145.925781 188.851562 144.496094 193.839844 C 143.039062 198.832031 143.175781 204.960938 147.113281 208.339844 C 150.15625 210.960938 154.8125 211.339844 157.382812 214.382812 C 159.441406 216.824219 159.644531 220.335938 158.949219 223.445312 Z M 158.949219 223.445312 " fill-opacity="1" fill-rule="nonzero"/><path fill="#2dc97d" d="M 242.289062 302.152344 C 240.339844 306.828125 236.847656 311.125 236.738281 316.203125 C 238.191406 314.527344 241.304688 316.25 241.4375 318.464844 C 241.59375 320.679688 239.847656 322.582031 238.011719 323.8125 C 234.644531 326.046875 227.347656 328.460938 232.53125 340.28125 C 199.921875 360.421875 161.1875 363.847656 127.667969 353.128906 C 131.359375 344.78125 139.773438 334.910156 130.484375 327.617188 C 129.121094 326.566406 127.644531 325.648438 126.457031 324.417969 C 123.269531 321.109375 124.378906 317.246094 128.25 315.777344 C 130.039062 315.109375 131.960938 315.085938 133.863281 315.0625 C 131.691406 310.671875 128.851562 304.992188 126.078125 300.449219 C 128.828125 301.300781 131.738281 299.621094 133.730469 297.539062 C 135.722656 295.460938 137.246094 292.90625 139.546875 291.207031 C 141.875 289.507812 145.480469 288.96875 147.425781 291.074219 C 148.792969 292.550781 148.902344 294.722656 149.664062 296.554688 C 151.542969 301.253906 158.257812 303.136719 162.328125 300.136719 C 165.550781 297.742188 167.8125 292.796875 171.75 293.488281 C 175.332031 294.117188 176.183594 298.839844 175.957031 302.464844 C 175.734375 306.089844 175.78125 310.675781 179.089844 312.175781 C 182.539062 313.765625 186.140625 310.453125 188.511719 307.5 C 199.820312 293.476562 200.175781 292.355469 202.542969 291.945312 C 204.757812 291.566406 206.839844 293.421875 207.554688 295.550781 C 208.996094 299.691406 206.351562 305.4375 208.519531 311.078125 C 209.59375 313.875 212.054688 316.316406 215.054688 316.496094 C 220.019531 316.808594 223.152344 311.371094 225.054688 306.761719 C 225.527344 303.492188 225.996094 300.160156 225.4375 296.914062 C 224.878906 293.667969 223.085938 290.46875 220.132812 289.015625 C 217.15625 287.582031 213.015625 288.5 211.585938 291.476562 C 211.269531 283.464844 213.21875 275.386719 217.15625 268.402344 C 218.253906 266.480469 220.089844 264.375 222.238281 264.933594 C 226.511719 266.09375 224.503906 274.308594 225.882812 280.578125 C 226.667969 284.113281 228.972656 287.671875 232.507812 288.476562 C 234.566406 288.949219 236.78125 288.433594 238.796875 289.082031 C 243.652344 290.601562 244.210938 297.449219 242.289062 302.152344 Z M 242.289062 302.152344 " fill-opacity="1" fill-rule="nonzero"/><path fill="#181e1e" d="M 368.882812 119.53125 L 366.386719 127.933594 C 363.976562 126.617188 375.03125 132.65625 344.285156 115.859375 C 227.496094 98.367188 310.785156 110.839844 242.734375 100.644531 L 155.601562 80.960938 L 93.585938 48.625 C 69.261719 46.875 71.800781 47.058594 72.035156 47.074219 L 74.527344 38.695312 L 230.476562 10.25 C 248.9375 24.828125 361.886719 114.007812 368.882812 119.53125 Z M 368.882812 119.53125 " fill-opacity="1" fill-rule="nonzero"/><path fill="#2a3134" d="M 153.117188 89.351562 L 72.03125 47.074219 L 227.976562 18.636719 L 366.394531 127.929688 L 240.230469 109.027344 Z M 153.117188 89.351562 " fill-opacity="1" fill-rule="nonzero"/><path fill="#4f575f" d="M 267.527344 99.496094 C 267.089844 109.984375 265.269531 153.179688 265.378906 150.488281 C 264.882812 147.742188 260.605469 144.113281 253.582031 140.042969 C 241.914062 133.273438 222.597656 125.417969 200.199219 118.78125 C 177.800781 112.121094 157.371094 108.152344 143.886719 107.425781 C 135.722656 106.988281 130.121094 107.738281 128.253906 109.8125 L 153.820312 66.828125 C 154.753906 63.742188 160.636719 62.421875 169.632812 62.707031 C 203.613281 63.882812 266.789062 86.773438 267.527344 99.496094 Z M 267.527344 99.496094 " fill-opacity="1" fill-rule="nonzero"/><path fill="#3d4449" d="M 265.871094 139.03125 L 265.378906 150.488281 C 264.882812 147.742188 260.605469 144.113281 253.582031 140.042969 C 241.914062 133.273438 222.597656 125.417969 200.199219 118.78125 C 177.800781 112.121094 157.371094 108.152344 143.886719 107.425781 C 135.722656 106.988281 130.121094 107.738281 128.253906 109.8125 L 153.820312 66.828125 C 154.753906 63.742188 160.636719 62.421875 169.632812 62.707031 C 173.46875 79.765625 185.265625 95.035156 199.1875 105.613281 C 213.109375 116.191406 229.289062 123.269531 245.363281 130.113281 C 252.207031 133.015625 259.101562 135.894531 265.871094 139.03125 Z M 265.871094 139.03125 " fill-opacity="1" fill-rule="nonzero"/><path fill="#ebf2ff" d="M 281.824219 154.292969 C 281.636719 155.578125 280.386719 156.460938 279.0625 156.070312 C 278.046875 155.765625 277.398438 154.761719 277.53125 153.695312 C 282.195312 121.269531 295.070312 87.316406 287.15625 54.996094 L 292.457031 59.191406 C 298.214844 91.101562 286.285156 123.261719 281.824219 154.292969 Z M 281.824219 154.292969 " fill-opacity="1" fill-rule="nonzero"/><path fill="#ffca6c" d="M 277.996094 145.964844 C 269.929688 162.0625 270.488281 182.175781 279.433594 197.800781 C 278.445312 192.503906 278.535156 187.007812 279.6875 181.742188 C 283.800781 188.699219 289.996094 194.402344 297.265625 197.925781 C 294.015625 195.164062 291.503906 191.539062 290.0625 187.527344 C 297.996094 195.074219 309.007812 199.292969 319.957031 198.972656 C 312.089844 195 305.277344 188.953125 300.398438 181.613281 C 305.492188 185.960938 313.011719 187.253906 319.261719 184.859375 C 303.078125 178.375 291.054688 162.523438 289.167969 145.191406 Z M 277.996094 145.964844 " fill-opacity="1" fill-rule="nonzero"/><path fill="#ff6161" d="M 276.902344 132.351562 C 281.007812 129.082031 287.664062 129.800781 291.0625 133.800781 C 294.457031 137.800781 294.140625 144.390625 290.457031 148.128906 C 286.03125 152.625 276.042969 154.535156 273.101562 147.460938 C 271.121094 142.699219 272.851562 135.574219 276.902344 132.351562 Z M 276.902344 132.351562 " fill-opacity="1" fill-rule="nonzero"/><path fill="#ff6161" d="M 99.15625 133.4375 C 111.613281 144.042969 116.832031 143.34375 123.96875 150.691406 C 124.464844 151.203125 126.171875 153.773438 126.695312 153.871094 C 121.324219 152.859375 115.949219 151.847656 110.578125 150.835938 C 112.425781 155.660156 114.953125 160.226562 118.03125 164.300781 C 117.40625 163.472656 115.753906 163.1875 114.910156 162.847656 C 109.648438 160.71875 99.558594 152.523438 92.835938 141.464844 " fill-opacity="1" fill-rule="nonzero"/><path fill="#ebf2ff" d="M 174.609375 110.070312 L 89.625 145.769531 L 22.789062 173.824219 C 21.128906 174.523438 19.210938 174.394531 17.734375 173.355469 C 5.003906 164.488281 -0.0507812 152.410156 2.542969 137.113281 C 2.722656 135.945312 3.34375 134.910156 4.226562 134.15625 C 4.667969 133.742188 5.1875 133.429688 5.730469 133.199219 L 157.550781 69.445312 Z M 174.609375 110.070312 " fill-opacity="1" fill-rule="nonzero"/><path fill="#cbdbf4" d="M 157.546875 69.429688 C 152.679688 71.472656 152.554688 82.226562 157.265625 93.445312 C 161.976562 104.664062 169.742188 112.101562 174.609375 110.058594 C 179.476562 108.015625 179.601562 97.261719 174.890625 86.042969 C 170.179688 74.824219 162.414062 67.386719 157.546875 69.429688 Z M 157.546875 69.429688 " fill-opacity="1" fill-rule="nonzero"/><path fill="#ff6161" d="M 88.308594 98.515625 L 77.289062 103.144531 C 75.078125 118.960938 81.890625 134.527344 94.597656 143.664062 C 94.703125 143.746094 95.808594 143.15625 95.933594 143.105469 C 96.171875 143.003906 106.574219 138.636719 105.921875 138.910156 C 104.144531 138.375 102.777344 137.179688 101.226562 136.152344 C 95.574219 132.28125 91.585938 127.117188 89.210938 121.210938 C 84.609375 109.738281 88.203125 100.28125 88.261719 99.347656 Z M 88.308594 98.515625 " fill-opacity="1" fill-rule="nonzero"/><path fill="#dbe6fa" d="M 89.625 145.769531 L 22.789062 173.824219 C 21.128906 174.523438 19.210938 174.394531 17.734375 173.355469 C 5.003906 164.488281 -0.0507812 152.410156 2.542969 137.113281 C 2.722656 135.945312 3.34375 134.910156 4.226562 134.15625 C 17.457031 151.796875 50.550781 152.503906 72.539062 149.140625 C 78.296875 148.285156 83.972656 147.121094 89.625 145.769531 Z M 89.625 145.769531 " fill-opacity="1" fill-rule="nonzero"/><path fill="#ffffff" d="M 270.773438 221.667969 C 271.191406 230.382812 271.222656 238.960938 268.859375 247.429688 C 267.023438 254 277.238281 256.804688 279.070312 250.242188 C 281.683594 240.878906 281.824219 231.316406 281.359375 221.667969 C 281.03125 214.886719 270.445312 214.847656 270.773438 221.667969 Z M 270.773438 221.667969 " fill-opacity="0.4" fill-rule="nonzero"/><path fill="#ffffff" d="M 265.722656 262.148438 C 265.054688 264.480469 264.386719 266.816406 263.71875 269.148438 C 262.960938 271.8125 264.648438 275.03125 267.417969 275.660156 C 270.238281 276.304688 273.113281 274.8125 273.929688 271.964844 C 274.59375 269.628906 275.261719 267.296875 275.929688 264.960938 C 276.691406 262.300781 275 259.082031 272.234375 258.449219 C 269.414062 257.808594 266.535156 259.296875 265.722656 262.148438 Z M 265.722656 262.148438 " fill-opacity="0.4" fill-rule="nonzero"/><path fill="#20b267" d="M 72.617188 184.886719 C 72.726562 199.570312 74.941406 214.25 79.082031 228.347656 C 76.914062 230.984375 76.132812 236.09375 72.257812 237.277344 C 70.289062 237.859375 68.003906 236.960938 66.953125 235.21875 C 65.878906 233.496094 66.171875 231.03125 67.582031 229.578125 C 68.183594 228.953125 68.992188 228.480469 69.527344 227.789062 C 70.824219 226.085938 70.132812 223.492188 68.609375 221.992188 C 67.089844 220.515625 64.941406 219.84375 62.882812 219.238281 C 61.808594 218.140625 63.957031 216.53125 65.433594 217.023438 C 66.910156 217.515625 68.183594 218.835938 69.707031 218.65625 C 71.878906 218.390625 72.503906 215.253906 71.316406 213.441406 C 70.132812 211.609375 68.003906 210.714844 66.125 209.59375 C 64.269531 208.453125 62.433594 206.664062 62.613281 204.492188 C 62.8125 202.164062 65.746094 201.539062 67.199219 202.96875 C 72.410156 199.871094 69.351562 189.851562 72.617188 184.886719 Z M 72.617188 184.886719 " fill-opacity="1" fill-rule="nonzero"/><path fill="#20b267" d="M 83.179688 240.429688 C 84.410156 243.675781 85.753906 246.855469 87.230469 250.007812 C 83.960938 248.261719 82.214844 244.125 83.15625 240.519531 C 83.15625 240.5 83.179688 240.453125 83.179688 240.429688 Z M 83.179688 240.429688 " fill-opacity="1" fill-rule="nonzero"/><path fill="#20b267" d="M 239.3125 335.808594 C 204.507812 360.066406 163.324219 364.53125 127.667969 353.128906 C 131.359375 344.78125 139.773438 334.910156 130.484375 327.617188 C 129.121094 326.566406 127.644531 325.648438 126.457031 324.417969 C 123.269531 321.109375 124.378906 317.246094 128.25 315.777344 C 130.039062 315.109375 131.960938 315.085938 133.863281 315.0625 C 131.628906 310.542969 129.367188 306.023438 126.792969 301.679688 C 158.160156 327.421875 199.984375 339.382812 239.3125 335.808594 Z M 239.3125 335.808594 " fill-opacity="1" fill-rule="nonzero"/><path fill="#ffffff" d="M 219.410156 35.851562 C 224.371094 39.738281 229.101562 43.882812 233.601562 48.289062 C 238.472656 53.0625 245.964844 45.582031 241.085938 40.804688 C 236.585938 36.398438 231.855469 32.25 226.898438 28.367188 C 224.648438 26.605469 221.605469 26.171875 219.410156 28.367188 C 217.578125 30.199219 217.148438 34.078125 219.410156 35.851562 Z M 219.410156 35.851562 " fill-opacity="0.4" fill-rule="nonzero"/><path fill="#ffffff" d="M 245.878906 59.941406 C 246.367188 60.355469 246.859375 60.765625 247.347656 61.175781 C 249.46875 62.953125 252.785156 63.410156 254.832031 61.175781 C 256.632812 59.214844 257.097656 55.589844 254.832031 53.691406 C 254.34375 53.277344 253.855469 52.867188 253.363281 52.457031 C 251.246094 50.679688 247.925781 50.226562 245.878906 52.457031 C 244.078125 54.417969 243.613281 58.042969 245.878906 59.941406 Z M 245.878906 59.941406 " fill-opacity="0.4" fill-rule="nonzero"/><path fill="#ffffff" d="M 139.398438 83.710938 C 135.015625 85.789062 130.613281 87.816406 126.183594 89.792969 C 122.042969 91.640625 125.628906 97.726562 129.746094 95.886719 C 134.171875 93.910156 138.578125 91.882812 142.957031 89.804688 C 147.058594 87.855469 143.484375 81.769531 139.398438 83.710938 Z M 139.398438 83.710938 " fill-opacity="0.8" fill-rule="nonzero"/><path fill="#ffffff" d="M 116.519531 94.238281 C 115.945312 94.464844 115.375 94.695312 114.800781 94.921875 C 113.03125 95.625 111.792969 97.28125 112.339844 99.261719 C 112.800781 100.945312 114.898438 102.433594 116.679688 101.726562 C 117.25 101.5 117.824219 101.273438 118.394531 101.042969 C 120.164062 100.339844 121.402344 98.683594 120.859375 96.703125 C 120.394531 95.019531 118.300781 93.53125 116.519531 94.238281 Z M 116.519531 94.238281 " fill-opacity="0.8" fill-rule="nonzero"/></svg>