<svg xmlns="http://www.w3.org/2000/svg" xmlns:xlink="http://www.w3.org/1999/xlink" width="500" zoomAndPan="magnify" viewBox="0 0 375 374.999991" height="500" preserveAspectRatio="xMidYMid meet" version="1.0"><defs><clipPath id="8f7537fc4f"><path d="M 2 26.484375 L 373 26.484375 L 373 348.234375 L 2 348.234375 Z M 2 26.484375 " clip-rule="nonzero"/></clipPath></defs><g clip-path="url(#8f7537fc4f)"><path fill="#9e0105" d="M 10.25 183.144531 C 12.210938 196.855469 17.175781 209.648438 21.550781 220.953125 C 23.675781 226.445312 25.6875 231.640625 27.046875 236.21875 C 27.449219 237.5625 27.988281 238.707031 28.664062 239.699219 C 36.832031 216.195312 41.480469 215.804688 43.476562 215.644531 C 49.59375 215.132812 76.707031 215.605469 77.871094 215.625 C 79.046875 215.644531 80.160156 216.253906 80.8125 217.246094 C 81.464844 218.238281 81.589844 219.488281 81.132812 220.585938 C 77.761719 228.871094 74.847656 235.898438 72.324219 241.855469 L 192.714844 253.578125 C 194.304688 248.695312 195.699219 244.378906 196.78125 241.023438 C 199.214844 233.503906 205.886719 228.324219 213.773438 227.839844 L 275.773438 223.996094 C 277.089844 223.957031 278.269531 224.515625 278.984375 225.570312 C 279.699219 226.625 279.808594 227.984375 279.253906 229.140625 C 279.144531 229.378906 274.28125 239.601562 267.394531 253.660156 C 276.238281 253.390625 284.414062 253.183594 289.59375 253.050781 L 291.421875 253.003906 C 295.40625 252.90625 299.25 252.835938 302.945312 252.773438 C 335.242188 252.210938 354.738281 251.863281 362.839844 232.007812 C 367.011719 221.804688 364.09375 213.84375 360.917969 208.960938 C 354.972656 199.839844 344.1875 194.636719 336.066406 193.949219 C 331.988281 196.953125 317.742188 206.234375 297.738281 206.234375 C 295.824219 206.234375 293.859375 206.144531 291.851562 205.96875 C 290.566406 205.847656 289.449219 205.054688 288.902344 203.894531 L 283.902344 193.117188 C 283.476562 192.195312 283.457031 191.121094 283.867188 190.175781 C 284.269531 189.234375 285.066406 188.507812 286.03125 188.1875 C 286.257812 188.117188 307.003906 181.097656 315.488281 170.4375 C 308.34375 165.503906 298.042969 160.894531 283.253906 158.230469 C 271.363281 165.519531 237.558594 183.636719 195.332031 183.628906 C 182.109375 183.628906 168.058594 181.847656 153.597656 177.402344 C 145.59375 180.265625 99.726562 196.601562 91.4375 198.207031 C 71.269531 202.066406 57.222656 195.335938 48.492188 177.574219 C 38.71875 157.710938 34.515625 155.671875 22.953125 158.160156 C 11.496094 160.617188 7.4375 163.410156 10.25 183.144531 Z M 29.410156 266.1875 C 33.753906 270.140625 48.519531 270.613281 51.558594 269.835938 C 54.070312 266.125 63.648438 244.171875 72.46875 222.753906 C 64.320312 222.644531 49.152344 222.484375 44.457031 222.789062 C 41.707031 224.925781 35.363281 239.921875 28.738281 264.210938 C 28.542969 264.933594 28.585938 265.445312 29.410156 266.1875 Z M 178.539062 317.816406 C 176.230469 323.914062 175.917969 328.507812 177.582031 331.84375 C 179.230469 335.175781 183.117188 337.703125 189.46875 339.589844 C 200.199219 342.765625 210.328125 345.769531 227.84375 314.757812 C 241.933594 289.785156 262.800781 246.773438 270.105469 231.558594 L 214.222656 235.03125 C 209.308594 235.335938 205.152344 238.554688 203.640625 243.242188 C 196.863281 264.203125 184.59375 301.761719 178.539062 317.816406 Z M 321.125 174.925781 C 313.574219 184.351562 299 190.910156 292.085938 193.632812 L 294.554688 198.9375 C 312.511719 199.886719 326.042969 192.0625 330.800781 188.832031 C 329.773438 185.960938 327.195312 180.550781 321.125 174.925781 Z M 273.886719 101.601562 L 216.285156 134.425781 C 215.742188 134.738281 215.121094 134.898438 214.507812 134.898438 C 214.265625 134.898438 214.027344 134.871094 213.792969 134.828125 L 148.8125 121.707031 L 156.699219 170.824219 C 216.96875 188.789062 271.1875 157.335938 281.769531 150.628906 Z M 325.226562 64.054688 L 198.875 34.058594 L 96.433594 97.113281 L 203.828125 79.851562 C 205.769531 79.542969 207.640625 80.875 207.949219 82.84375 C 208.273438 84.808594 206.929688 86.660156 204.976562 86.972656 L 98.207031 104.136719 L 213.890625 127.496094 Z M 80.605469 143.714844 C 79.804688 144.832031 79.476562 146.183594 79.695312 147.542969 L 82.207031 162.414062 L 92.394531 160.777344 L 89.882812 145.914062 C 89.65625 144.554688 88.925781 143.367188 87.804688 142.554688 C 86.695312 141.757812 85.328125 141.417969 83.96875 141.648438 C 82.609375 141.867188 81.410156 142.597656 80.605469 143.714844 Z M 21.441406 151.113281 C 38.386719 147.460938 44.949219 154.054688 54.957031 174.390625 C 64.410156 193.625 79.535156 193.160156 90.066406 191.121094 C 96.605469 189.871094 132.8125 177.167969 149.464844 171.222656 L 141.265625 120.179688 L 82.253906 108.269531 L 86.464844 134.488281 C 88.460938 134.753906 90.351562 135.503906 92.027344 136.722656 C 94.710938 138.652344 96.46875 141.515625 96.988281 144.746094 L 100.101562 163.15625 C 100.261719 164.105469 100.039062 165.078125 99.484375 165.859375 C 98.921875 166.636719 98.074219 167.164062 97.121094 167.316406 L 79.828125 170.09375 C 79.632812 170.125 79.4375 170.140625 79.246094 170.140625 C 77.523438 170.140625 76.003906 168.898438 75.695312 167.136719 L 72.585938 148.734375 C 72.585938 148.714844 72.574219 148.707031 72.574219 148.695312 C 72.058594 145.445312 72.835938 142.171875 74.765625 139.496094 C 75.972656 137.820312 77.546875 136.507812 79.355469 135.625 L 74.320312 104.324219 C 74.167969 103.375 74.398438 102.410156 74.953125 101.640625 C 75.515625 100.863281 76.359375 100.339844 77.304688 100.191406 L 77.824219 100.109375 L 196.371094 27.136719 C 197.183594 26.636719 198.167969 26.476562 199.089844 26.699219 L 335.78125 59.152344 C 337.21875 59.492188 338.308594 60.683594 338.515625 62.148438 C 338.734375 63.605469 338.023438 65.054688 336.738281 65.789062 L 280.578125 97.796875 L 289.25 151.785156 C 289.269531 151.886719 289.269531 151.988281 289.277344 152.09375 C 325.246094 160.027344 335.21875 179.566406 337.730469 186.863281 C 348.9375 188.152344 360.648438 195.339844 366.957031 205.035156 C 371.070312 211.359375 374.855469 221.644531 369.511719 234.734375 C 359.613281 258.980469 335.894531 259.402344 303.066406 259.980469 C 299.390625 260.042969 295.574219 260.105469 291.605469 260.214844 L 289.769531 260.257812 C 283.867188 260.410156 274.058594 260.652344 263.792969 260.972656 C 254.597656 279.609375 243.027344 302.503906 234.109375 318.296875 C 221.1875 341.199219 210.886719 348.488281 199.230469 348.488281 C 195.476562 348.488281 191.589844 347.730469 187.421875 346.503906 C 179.046875 344.015625 173.71875 340.269531 171.125 335.054688 C 168.523438 329.816406 168.746094 323.351562 171.796875 315.273438 C 176.214844 303.558594 184.199219 279.558594 190.414062 260.601562 L 69.355469 248.804688 C 58.519531 273.941406 56.609375 275.210938 55.78125 275.765625 C 54.351562 276.722656 50.738281 277.265625 46.382812 277.265625 C 39.363281 277.265625 30.429688 275.84375 25.6875 272.433594 C 22.09375 269.847656 20.71875 266.253906 21.789062 262.316406 C 23.371094 256.484375 24.875 251.386719 26.277344 246.921875 L 25.449219 246.558594 C 24.988281 246.359375 24.589844 246.074219 24.25 245.71875 C 22.371094 243.679688 21.023438 241.238281 20.132812 238.265625 C 18.867188 233.96875 16.90625 228.90625 14.832031 223.558594 C 10.316406 211.894531 5.199219 198.6875 3.125 184.164062 C 0.0703125 162.773438 4.519531 154.742188 21.441406 151.113281 " fill-opacity="1" fill-rule="nonzero"/></g><path fill="#e2b808" d="M 177.582031 331.84375 C 179.230469 335.175781 183.117188 337.703125 189.46875 339.589844 C 200.199219 342.765625 210.328125 345.769531 227.84375 314.757812 C 241.933594 289.785156 262.800781 246.773438 270.105469 231.558594 L 214.222656 235.03125 C 209.308594 235.335938 205.152344 238.554688 203.640625 243.242188 C 196.863281 264.203125 184.59375 301.761719 178.539062 317.816406 C 176.230469 323.914062 175.917969 328.507812 177.582031 331.84375 Z M 29.410156 266.1875 C 33.753906 270.140625 48.519531 270.613281 51.558594 269.835938 C 54.070312 266.125 63.648438 244.171875 72.46875 222.753906 C 64.320312 222.644531 49.152344 222.484375 44.457031 222.789062 C 41.707031 224.925781 35.363281 239.921875 28.738281 264.210938 C 28.542969 264.933594 28.585938 265.445312 29.410156 266.1875 Z M 321.125 174.925781 C 327.195312 180.550781 329.773438 185.960938 330.800781 188.832031 C 326.042969 192.0625 312.511719 199.886719 294.554688 198.9375 L 292.085938 193.632812 C 299 190.910156 313.574219 184.351562 321.125 174.925781 Z M 79.695312 147.542969 L 82.207031 162.414062 L 92.394531 160.777344 L 89.882812 145.914062 C 89.65625 144.554688 88.925781 143.367188 87.804688 142.554688 C 86.695312 141.757812 85.328125 141.417969 83.96875 141.648438 C 82.609375 141.867188 81.410156 142.597656 80.605469 143.714844 C 79.804688 144.832031 79.476562 146.183594 79.695312 147.542969 " fill-opacity="1" fill-rule="nonzero"/><path fill="#8bd4be" d="M 10.25 183.144531 C 12.210938 196.855469 17.175781 209.648438 21.550781 220.953125 C 23.675781 226.445312 25.6875 231.640625 27.046875 236.21875 C 27.449219 237.5625 27.988281 238.707031 28.664062 239.699219 C 36.832031 216.195312 41.480469 215.804688 43.476562 215.644531 C 49.59375 215.132812 76.707031 215.605469 77.871094 215.625 C 79.046875 215.644531 80.160156 216.253906 80.8125 217.246094 C 81.464844 218.238281 81.589844 219.488281 81.132812 220.585938 C 77.761719 228.871094 74.847656 235.898438 72.324219 241.855469 L 192.714844 253.578125 C 194.304688 248.695312 195.699219 244.378906 196.78125 241.023438 C 199.214844 233.503906 205.886719 228.324219 213.773438 227.839844 L 275.773438 223.996094 C 277.089844 223.957031 278.269531 224.515625 278.984375 225.570312 C 279.699219 226.625 279.808594 227.984375 279.253906 229.140625 C 279.144531 229.378906 274.28125 239.601562 267.394531 253.660156 C 276.238281 253.390625 284.414062 253.183594 289.59375 253.050781 L 291.421875 253.003906 C 295.40625 252.90625 299.25 252.835938 302.945312 252.773438 C 335.242188 252.210938 354.738281 251.863281 362.839844 232.007812 C 367.011719 221.804688 364.09375 213.84375 360.917969 208.960938 C 354.972656 199.839844 344.1875 194.636719 336.066406 193.949219 C 331.988281 196.953125 317.742188 206.234375 297.738281 206.234375 C 295.824219 206.234375 293.859375 206.144531 291.851562 205.96875 C 290.566406 205.847656 289.449219 205.054688 288.902344 203.894531 L 283.902344 193.117188 C 283.476562 192.195312 283.457031 191.121094 283.867188 190.175781 C 284.269531 189.234375 285.066406 188.507812 286.03125 188.1875 C 286.257812 188.117188 307.003906 181.097656 315.488281 170.4375 C 308.34375 165.503906 298.042969 160.894531 283.253906 158.230469 C 271.363281 165.519531 237.558594 183.636719 195.332031 183.628906 C 182.109375 183.628906 168.058594 181.847656 153.597656 177.402344 C 145.59375 180.265625 99.726562 196.601562 91.4375 198.207031 C 71.269531 202.066406 57.222656 195.335938 48.492188 177.574219 C 38.71875 157.710938 34.515625 155.671875 22.953125 158.160156 C 11.496094 160.617188 7.4375 163.410156 10.25 183.144531 " fill-opacity="1" fill-rule="nonzero"/><path fill="#380c0f" d="M 207.949219 82.84375 C 207.640625 80.875 205.769531 79.542969 203.828125 79.851562 L 96.433594 97.113281 L 198.875 34.058594 L 325.226562 64.054688 L 213.890625 127.496094 L 98.207031 104.136719 L 204.976562 86.972656 C 206.929688 86.660156 208.273438 84.808594 207.949219 82.84375 Z M 148.8125 121.707031 L 156.699219 170.824219 C 216.96875 188.789062 271.1875 157.335938 281.769531 150.628906 L 273.886719 101.601562 L 216.285156 134.425781 C 215.742188 134.738281 215.121094 134.898438 214.507812 134.898438 C 214.265625 134.898438 214.027344 134.871094 213.792969 134.828125 L 148.8125 121.707031 " fill-opacity="1" fill-rule="nonzero"/></svg>