<?xml version="1.0" encoding="utf-8"?>
<!-- Generator: Adobe Illustrator 25.1.0, SVG Export Plug-In . SVG Version: 6.00 Build 0)  -->
<svg version="1.1" id="Layer_1" xmlns="http://www.w3.org/2000/svg" xmlns:xlink="http://www.w3.org/1999/xlink" x="0px" y="0px"
	 viewBox="0 0 1452.1 1631.85" style="enable-background:new 0 0 1452.1 1631.85;" xml:space="preserve">
<style type="text/css">
	.st0{fill:url(#SVGID_1_);}
	.st1{fill:url(#SVGID_2_);}
	.st2{fill:url(#SVGID_3_);}
	.st3{fill:url(#SVGID_4_);}
	.st4{fill:url(#SVGID_5_);}
	.st5{fill:url(#SVGID_6_);}
	.st6{fill:url(#SVGID_7_);}
	.st7{fill:url(#SVGID_8_);}
	.st8{fill:#6490FF;}
	.st9{fill:#92B1FF;}
</style>
<linearGradient id="SVGID_1_" gradientUnits="userSpaceOnUse" x1="3576.0527" y1="429.6588" x2="3705.4565" y2="429.6588">
	<stop  offset="0" style="stop-color:#F0766A"/>
	<stop  offset="1" style="stop-color:#F49484"/>
</linearGradient>
<path class="st0" d="M3641.25,511.74c-19.2-17.33-41.15-36.8-62.52-56.89c-2.45-2.3-3.41-8.79-2.06-12.12
	c11.84-29.09,24.18-57.99,36.96-86.69c1.48-3.32,6.51-5.06,9.95-7.47c0.35-0.25,1.03-0.02,1.55-0.06
	c39.39-2.5,39.37-2.49,54.57,33.45c8.36,19.77,17.14,39.38,24.93,59.37c1.49,3.84,1,10.99-1.59,13.47
	C3681.84,475.11,3659.94,494.68,3641.25,511.74z"/>
<linearGradient id="SVGID_2_" gradientUnits="userSpaceOnUse" x1="3618.1003" y1="241.1531" x2="3662.2317" y2="241.1531">
	<stop  offset="0" style="stop-color:#F0766A"/>
	<stop  offset="1" style="stop-color:#F49484"/>
</linearGradient>
<path class="st1" d="M3662.23,322.3c-15.6,0-28.6,0-43.83,0c0-11.88,0-23.19,0-34.51c-0.02-32.99,0.33-65.99-0.29-98.97
	c-0.18-9.48,2.8-14.29,11.78-16.98c10.44-3.12,20.52-7.44,32.35-11.83C3662.23,214.88,3662.23,268.33,3662.23,322.3z"/>
<g>
	<g>
		<linearGradient id="SVGID_3_" gradientUnits="userSpaceOnUse" x1="217.9802" y1="664.1912" x2="1234.1136" y2="664.1912">
			<stop  offset="0" style="stop-color:#6490FF"/>
			<stop  offset="1" style="stop-color:#92B1FF"/>
		</linearGradient>
		<path class="st2" d="M1233.35,744.52c-8.42,75.47-66.62,130.1-140.34,131.71c-5.29,0.11-10.59,0.12-15.88,0.05
			c-31.03-0.39-43.98-12.82-44.17-44.24c-0.38-63.51,0.03-127.03-0.19-190.55c-0.2-58.9-10.54-115.78-35.97-169.3
			C941.33,355.4,826.94,292.03,694.54,304.42C575.4,315.56,473.26,406.15,441.57,532.23c-8.75,34.83-13.26,71.51-13.86,107.44
			c-1.14,68.67-3.82,138.12,4.55,205.97c13.07,105.93,91.47,173.16,196.08,178.69c14.48,24.73,29,49.57,43.48,74.39
			c-154.96,5.09-266.79-68.55-306.27-210.42c-0.6-2.14-1.86-4.1-3.21-7.03c-113.85-12.57-173.23-107.91-130.45-207.6
			c19.41-45.23,53.96-72.39,102.78-78.82c16.56-2.18,22.38-7.87,24.6-24.62c21.75-164.66,131.46-293.04,280.31-329.54
			c201.42-49.38,394.15,67.54,449.38,273.06c6.46,24,10.51,48.65,16.07,74.88c6.48,1.74,14.27,3.85,22.08,5.92
			C1193.87,612.28,1240.73,678.42,1233.35,744.52z"/>
		<linearGradient id="SVGID_4_" gradientUnits="userSpaceOnUse" x1="545.3912" y1="732.8312" x2="623.1661" y2="732.8312">
			<stop  offset="0" style="stop-color:#6490FF"/>
			<stop  offset="1" style="stop-color:#92B1FF"/>
		</linearGradient>
		<path class="st3" d="M584.92,771.31c-20.66,0.17-39.29-17.89-39.53-38.33c-0.24-20.56,17.75-38.44,38.86-38.62
			c21.73-0.19,38.74,16.39,38.91,37.93C623.34,753.58,606.14,771.13,584.92,771.31z"/>
		<linearGradient id="SVGID_5_" gradientUnits="userSpaceOnUse" x1="691.129" y1="732.833" x2="767.9446" y2="732.833">
			<stop  offset="0" style="stop-color:#6490FF"/>
			<stop  offset="1" style="stop-color:#92B1FF"/>
		</linearGradient>
		<path class="st4" d="M729.85,771.65c-20.79,0-39.05-18.66-38.72-39.55c0.33-21.22,18.55-38.62,39.85-38.06
			c20.85,0.54,36.72,16.88,36.96,38.03C768.19,753.93,751.13,771.65,729.85,771.65z"/>
		<linearGradient id="SVGID_6_" gradientUnits="userSpaceOnUse" x1="836.3865" y1="732.8157" x2="913.1962" y2="732.8157">
			<stop  offset="0" style="stop-color:#6490FF"/>
			<stop  offset="1" style="stop-color:#92B1FF"/>
		</linearGradient>
		<path class="st5" d="M874.17,693.99c21.8-0.5,38.88,16.25,39.03,38.27c0.15,21.85-17.03,39.52-38.3,39.39
			c-19.91-0.12-37.54-17.3-38.47-37.5C835.45,713.15,853.01,694.47,874.17,693.99z"/>
	</g>
	<linearGradient id="SVGID_7_" gradientUnits="userSpaceOnUse" x1="26.5321" y1="715.3559" x2="1420.1207" y2="715.3559">
		<stop  offset="0" style="stop-color:#6490FF"/>
		<stop  offset="1" style="stop-color:#92B1FF"/>
	</linearGradient>
	<path class="st6" d="M1304.58,1096.64c-23.13-39.04-46.53-78.45-69.88-117.52c0.67-2.49,1.66-4.98,2.65-6.97
		c45.07-91.03,64.32-187.13,58.65-288.55c-12.64-225.96-169.58-429.1-388.05-501.58c-239.17-79.34-498.04,2.3-648.21,204.44
		c-206.22,277.58-109.1,682.48,200.43,836.83c61.17,30.5,125.08,51.1,193,59.1c4.37,0.52,8.69,1.41,13.01,2.27
		c-25.52,14.8-42.42,42.09-43.49,73.34c-0.52,15.28,2.5,29.86,8.82,42.9c-213.26-18.94-493.44-183.94-580.81-502.54
		C-36.67,579.72,118.71,244.95,422.22,98.3c300.65-145.27,667.63-53.36,866.41,218.36
		C1481.84,580.75,1440.25,906.08,1304.58,1096.64z"/>
	<linearGradient id="SVGID_8_" gradientUnits="userSpaceOnUse" x1="626.3935" y1="1244.0547" x2="1425.5631" y2="1244.0547">
		<stop  offset="0" style="stop-color:#6490FF"/>
		<stop  offset="1" style="stop-color:#92B1FF"/>
	</linearGradient>
	<path class="st7" d="M819.25,1049.19c2.35-41.52,16.51-63.2,45.47-70.37c43.1-10.67,66.06,14.68,84.12,50.18
		c2.11-38.88,18.3-65.96,58.46-69.99c40.99-4.12,58.42,26.58,77.09,56.03c0.13-2.43,0.35-4.86,0.39-7.29
		c0.53-29.69,17.33-52.52,44.04-59.81c27.61-7.54,55.29,3.14,70.45,28.47c40.63,67.85,80.9,135.91,121.18,203.97
		c31.38,53.03,62.59,106.17,93.8,159.31c3.78,6.44,7.12,13.14,11.3,20.9c-141.35,80.67-281.34,160.56-423.07,241.45
		c-13.93-23.77-29.31-45.22-39.73-68.86c-16.68-37.84-42.57-57.68-84.2-65.84c-61.4-12.04-121.52-30.81-181.96-47.52
		c-28.93-7.99-45.91-32.21-44.93-60.81c0.92-26.84,19.49-50.46,46.72-55.92c11.28-2.26,24-1.25,35.34,1.41
		c34.41,8.06,68.45,17.64,106.72,27.71c-4.14-7.87-6.51-12.82-9.26-17.53c-63.94-109.8-127.8-219.65-192.05-329.26
		c-10.1-17.23-16.27-34.71-10.58-54.45c6.97-24.21,23.3-39.6,48.02-43.75c26.53-4.46,49,4.32,63.26,27.83
		c23.19,38.22,45.34,77.07,67.97,115.63C810.77,1035.69,813.94,1040.59,819.25,1049.19z"/>
</g>
<image style="overflow:visible;" width="74" height="65" xlink:href="4321312A.jpg"  transform="matrix(10.5625 0 0 10.5625 -1924.4032 -113.8613)">
</image>
<rect x="-1408.31" y="886.08" class="st8" width="365.76" height="424.92"/>
<rect x="-1408.31" y="1389.57" class="st9" width="365.76" height="424.92"/>
<image style="overflow:visible;" width="626" height="626" xlink:href="4321312E.jpg"  transform="matrix(1 0 0 1 -954.5107 1748.9653)">
</image>
<image style="overflow:visible;" width="71" height="71" xlink:href="43213129.jpg"  transform="matrix(21.9651 0 0 21.9651 1887.8492 189.4453)">
</image>
<g>
</g>
<g>
</g>
<g>
</g>
<g>
</g>
<g>
</g>
<g>
</g>
</svg>
