<?xml version="1.0" encoding="utf-8"?>
<!-- Generator: Adobe Illustrator 25.1.0, SVG Export Plug-In . SVG Version: 6.00 Build 0)  -->
<svg version="1.1" id="Layer_1" xmlns="http://www.w3.org/2000/svg" xmlns:xlink="http://www.w3.org/1999/xlink" x="0px" y="0px"
	 viewBox="0 0 1425.4 1685.71" style="enable-background:new 0 0 1425.4 1685.71;" xml:space="preserve">
<style type="text/css">
	.st0{fill:url(#SVGID_1_);}
	.st1{fill:url(#SVGID_2_);}
	.st2{fill:url(#SVGID_3_);}
	.st3{fill:url(#SVGID_4_);}
	.st4{fill:url(#SVGID_5_);}
	.st5{fill:#F7A1C2;}
	.st6{fill:#F78DB8;}
</style>
<g>
	<linearGradient id="SVGID_1_" gradientUnits="userSpaceOnUse" x1="183.1978" y1="722.194" x2="1371.9393" y2="722.194">
		<stop  offset="0" style="stop-color:#F487B9"/>
		<stop  offset="1" style="stop-color:#F7A1C2"/>
	</linearGradient>
	<path class="st0" d="M1371.94,749.23L1154,617.97v74.3c0,0-138.69-52.01-269.94,59.44V348.03h79.25L785.82,63.23l-161.8,284.8h80.9
		v232.8c0,0-118.05-106.49-276.55-61.91v-79.25L183.2,580.83l227.25,136.35l8.03,4.82v-74.3c0,0,203.56,19.2,262.31,143.86
		c7.89,16.72,12.38,34.74,15.05,53.23l24.42,7.01c1.35,0.39,2.4,0.89,3.71,1.52c0.67,0.32,1.55,0.76,2.79,1.32l22.54,10.31
		l-38.43,11.05c-4,1.15-7.93,2.27-11.8,3.38c0.88,16.33,1.14,32.64,1.79,48.4c0.17,4.07,0.32,8.14,0.47,12.21
		c2.95,84.1-3.35,167.69-4.82,251.72c-0.29,16.89-0.46,33.77-0.55,50.65c-0.03,5.7-3.8,46.64-0.11,48.82
		c35.74,21.17,65.24,51.84,85.45,88.25c2.42,4.37,22.58-0.77,26.15-1.99c8.34-2.84,15.81-7.76,22.36-13.6
		c14.64-13.05,24.87-30.82,31.99-48.91c17.34-44.04,12.51-94.4,10.14-140.61c-2.55-49.79-6-100.21,2.01-149.72
		c7.42-45.83,26.28-90.75,56.55-126.19c51.89-60.77,131.09-82.07,208.66-79.83v79.25L1371.94,749.23z"/>
	<linearGradient id="SVGID_2_" gradientUnits="userSpaceOnUse" x1="53.464" y1="1463.3217" x2="764.3614" y2="1463.3217">
		<stop  offset="0" style="stop-color:#F78DB8"/>
		<stop  offset="1" style="stop-color:#F7A1C2"/>
	</linearGradient>
	<path class="st1" d="M721.85,1375.08c-26.97-33.51-64.38-56.51-105.34-64.78c-23.97-4.83-48.83-4.93-72.87-5.03
		c-9.1-0.04-18.51-0.07-27.63-0.37c-6.53-0.21-12.21,4.04-16.88,8.23c-54.4,48.85-115.47,53.19-176.6,12.56
		c-23.37-15.53-46.37-21.97-76.88-21.52c-52.22,0.77-100.58,20.8-136.17,56.4c-35.69,35.69-55.54,84.07-55.89,136.23
		c-0.18,26.53-0.12,53.49-0.06,79.56c0.02,8.22,0.04,16.45,0.05,24.67c0,3.03,0.2,6,0.4,8.87c0.09,1.28,0.17,2.57,0.24,3.89
		l0.46,8.68h709.51v-9.17c0-12.92,0.04-25.73,0.09-38.45c0.1-28.49,0.19-55.41-0.18-82.94
		C763.52,1449.71,748.51,1408.22,721.85,1375.08z"/>
	<linearGradient id="SVGID_3_" gradientUnits="userSpaceOnUse" x1="218.9612" y1="1111.5085" x2="599.22" y2="1111.5085">
		<stop  offset="0" style="stop-color:#F78DB8"/>
		<stop  offset="1" style="stop-color:#F7A1C2"/>
	</linearGradient>
	<path class="st2" d="M276.58,1244.36c66.18,80.75,172.69,88.58,247.89,17.87c34.96-32.88,57.66-73.84,64.68-120.92
		c6.28-42.12,7.44-85.08,9.38-127.73c1.37-30.07,0.29-60.25,0.24-90.38c-0.01-3.19-0.49-6.37-0.82-10.27
		c-3.24,0.84-5.42,1.35-7.56,1.96c-57.48,16.4-114.92,32.93-172.48,49.02c-5.48,1.53-12.11,1.61-17.58,0.1
		c-44.4-12.27-88.66-25.09-132.96-37.74c-15.66-4.47-31.33-8.92-48.36-13.76c0,5.11-0.1,8.81,0.02,12.5
		c1.29,39.72,2.81,79.44,3.8,119.17c0.32,12.94-1.16,25.91-1,38.86C222.56,1142.72,238.19,1197.51,276.58,1244.36z M257.9,1037.94
		c51.32,3.73,101.33,10.2,151.34,10.2c49.7,0,99.4-6.49,149.96-10.2c6.14,75.67-2.66,146.06-60.89,200.75
		c-59.8,56.16-144.93,47.18-197.32-19.75c-26.4-33.73-40.23-72.49-42.85-114.95C256.8,1082.43,257.9,1060.73,257.9,1037.94z"/>
	<linearGradient id="SVGID_4_" gradientUnits="userSpaceOnUse" x1="94.2751" y1="860.8077" x2="722.9424" y2="860.8077">
		<stop  offset="0" style="stop-color:#F78DB8"/>
		<stop  offset="1" style="stop-color:#F7A1C2"/>
	</linearGradient>
	<path class="st3" d="M349.45,936.94c40.14,12.8,77.92,17.43,116.85-0.36c1.02-0.46,2.24-0.45,3.34-0.77
		c35.78-10.29,71.55-20.6,107.32-30.91c0.01-0.74,0.02-1.49,0.02-2.23c-27.9-4.01-55.7-8.97-83.72-11.76
		c-28.05-2.79-55.44-13.06-84.59-5.83c-12,2.97-24.06-8.27-25.55-19.43c-1.56-11.67,5.85-22.62,18.53-24.72
		c6.4-1.06,13.41,0.77,20.02,1.96c5.15,0.92,10.02,3.53,15.18,4.27c63.78,9.09,127.59,17.91,191.36,27.07
		c4.65,0.67,8.91,3.7,13.49,5.23c4.17,1.39,8.67,3.5,12.77,3.03c6.34-0.72,12.46-3.4,18.68-5.19c15.92-4.59,31.84-9.16,49.79-14.32
		c-3.32-1.52-4.23-2.08-5.22-2.37c-100.66-28.9-201.31-57.84-302.05-86.47c-4.75-1.35-10.61-0.9-15.45,0.48
		c-83.19,23.62-166.3,47.51-249.42,71.37c-17.9,5.14-35.77,10.37-56.53,16.39c4.86,1.7,6.56,2.38,8.31,2.89
		C184.95,888.93,267.85,910.91,349.45,936.94z"/>
	<linearGradient id="SVGID_5_" gradientUnits="userSpaceOnUse" x1="392.1662" y1="988.6088" x2="644.775" y2="988.6088">
		<stop  offset="0" style="stop-color:#F78DB8"/>
		<stop  offset="1" style="stop-color:#F7A1C2"/>
	</linearGradient>
	<path class="st4" d="M612.13,1128.46c11.29,0,21.43,0,32.65,0c-3.2-17.57-6.21-33.66-9.03-49.78c-1.26-7.21-4.72-14.61,3.75-20.63
		c1.99-1.42,1.63-7,1.34-10.58c-0.54-6.71-2.64-13.36-2.68-20.04c-0.26-42.72-0.55-85.46,0.14-128.17
		c0.19-11.91-4.31-16.13-15.38-17.52c-35.17-4.41-70.33-8.97-105.35-14.43c-34.46-5.38-68.71-12.01-103.1-17.87
		c-4.02-0.68-9.21-1.35-12.23,0.56c-4.38,2.76-9.85,7.73-10.07,12.02c-0.22,4.14,4.77,10.16,9.03,12.46
		c4.04,2.18,10.12,0.87,15.28,0.64c5.87-0.26,11.85-2.12,17.55-1.39c29.49,3.76,58.9,8.11,88.33,12.29
		c32.36,4.6,64.71,9.24,98.05,14.01c0,19.46,0,38.07,0,56.69c0,25.56,0.63,51.14-0.32,76.66c-0.42,11.21-9.96,22.6,2.79,32.97
		c1.35,1.1-0.69,6.48-1.3,9.84C618.51,1093.36,615.38,1110.51,612.13,1128.46z"/>
</g>
<image style="overflow:visible;" width="1000" height="1080" xlink:href="9F3BD350.jpg"  transform="matrix(1.7755 0 0 1.7755 -2441.5625 -114.3871)">
</image>
<circle class="st5" cx="-1445.8" cy="-492.93" r="252.72"/>
<circle class="st6" cx="-897.16" cy="-492.93" r="252.72"/>
<g>
</g>
<g>
</g>
<g>
</g>
<g>
</g>
<g>
</g>
<g>
</g>
</svg>
