<?xml version="1.0" encoding="utf-8"?>
<!-- Generator: Adobe Illustrator 25.1.0, SVG Export Plug-In . SVG Version: 6.00 Build 0)  -->
<svg version="1.1" id="Layer_1" xmlns="http://www.w3.org/2000/svg" xmlns:xlink="http://www.w3.org/1999/xlink" x="0px" y="0px"
	 viewBox="0 0 1260.88 1628.46" style="enable-background:new 0 0 1260.88 1628.46;" xml:space="preserve">
<style type="text/css">
	.st0{fill:url(#SVGID_1_);}
	.st1{fill:url(#SVGID_2_);}
	.st2{fill:url(#SVGID_3_);}
	.st3{fill:url(#SVGID_4_);}
	.st4{fill:url(#SVGID_5_);}
	.st5{fill:url(#SVGID_6_);}
	.st6{fill:url(#SVGID_7_);}
	.st7{fill:url(#SVGID_8_);}
</style>
<g>
	<linearGradient id="SVGID_1_" gradientUnits="userSpaceOnUse" x1="754.1817" y1="1140.5833" x2="1215.2319" y2="1140.5833">
		<stop  offset="0" style="stop-color:#85CC86"/>
		<stop  offset="1" style="stop-color:#9BCC9E"/>
	</linearGradient>
	<path class="st0" d="M1202.65,742.65c-24.24-46.2-77.68-70.65-122.06-58.88c-55.9,14.82-91.59,58.65-91.92,115.28
		c-0.56,96.36-0.15,192.72-0.15,294.36c-48.89,0-95.19,0.06-141.48-0.02c-55.7-0.09-92.83,37.18-92.83,93.55
		c-0.01,104.12-0.14,208.25,0.35,312.37c0.08,16.46,1.32,33.35,5.19,49.27c9.36,38.51,44.23,57.6,88.33,50.2
		c32.6-5.47,57.4-41.49,56.43-76.1c-2.22-79.53-3.81-159.13-2.9-238.68c0.3-25.81,13.46-45.17,45.68-44.26
		c52.02,1.47,104.12,0.91,156.17,0.24c64.46-0.83,110.97-47.17,111.27-111.08c0.53-111.87,0.84-223.75-0.08-335.62
		C1214.5,776.26,1210.5,757.6,1202.65,742.65z"/>
	<linearGradient id="SVGID_2_" gradientUnits="userSpaceOnUse" x1="40.4677" y1="1142.5039" x2="501.6696" y2="1142.5039">
		<stop  offset="0" style="stop-color:#85CC86"/>
		<stop  offset="1" style="stop-color:#9BCC9E"/>
	</linearGradient>
	<path class="st1" d="M411.06,1093.41c-46.3-0.25-92.6-0.05-141.84-0.05c-0.95-11.41-1.96-17.94-1.97-24.47
		c-0.12-90.8,0.68-181.62-0.37-272.41c-0.76-66.17-50.22-111.05-118.97-110.61c-60.86,0.39-106.56,47.35-106.93,111.6
		c-0.62,107.41-0.62,214.83-0.33,322.24c0.19,72.58,48.98,120.45,121.07,120.19c46.51-0.17,93.02,0.03,139.53-0.04
		c40.1-0.06,53.37,12.66,53.54,52.98c0.33,77.51,0.13,155.03,0.38,232.55c0.14,45.03,29.21,73.3,75.22,73.73
		c46.03,0.43,70.96-24.16,71.07-71.86c0.29-115.17,0.3-230.34-0.19-345.5C501.06,1128.88,464.63,1093.71,411.06,1093.41z"/>
	<linearGradient id="SVGID_3_" gradientUnits="userSpaceOnUse" x1="315.1147" y1="906.5369" x2="940.7227" y2="906.5369">
		<stop  offset="0" style="stop-color:#85CC86"/>
		<stop  offset="1" style="stop-color:#9BCC9E"/>
	</linearGradient>
	<path class="st2" d="M896.58,1000.53c35.87-0.04,44.43-10.21,44.14-49.7c-0.35-47.43-7.32-56.94-43.05-57
		c-45.25-0.08-90.49-0.09-135.74-0.08c0.08-0.91,0.12-1.84,0.11-2.8c-0.32-18.4-0.1-36.81-0.09-55.22c0-7.65,0-15.3,0-23.34
		c-2.15,0.59-3.81,1.02-5.46,1.5c-38.93,11.23-77.86,22.46-116.79,33.7c-6.56,1.9-12.86,3.2-19.94,1.07
		c-27.13-8.17-54.42-15.78-81.65-23.6c-10.68-3.07-21.34-6.17-32.72-9.46c0,2.2,0,3.64,0,5.08c0,22.61,0.39,45.22-0.18,67.81
		c-0.05,1.91,0.05,3.72,0.27,5.45c-50.78,0.05-101.56,0.01-152.33-0.43c-26.77-0.23-39.06,10.59-37.94,37.21
		c0.42,9.94,0.33,19.93,0.01,29.88c-0.9,27.8,12.6,40.14,40.17,40.1C535.76,1000.47,716.17,1000.7,896.58,1000.53z"/>
	<linearGradient id="SVGID_4_" gradientUnits="userSpaceOnUse" x1="21.7764" y1="517.2045" x2="306.7429" y2="517.2045">
		<stop  offset="0" style="stop-color:#85CC86"/>
		<stop  offset="1" style="stop-color:#9BCC9E"/>
	</linearGradient>
	<path class="st3" d="M163.92,659.47c79.09-0.84,143.37-65.22,142.82-143.8c-0.58-83.1-63.57-140.63-154.1-140.74
		c-73.21-0.09-130.15,60.36-130.13,138.14C13.52,594.96,88.58,660.27,163.92,659.47z"/>
	<linearGradient id="SVGID_5_" gradientUnits="userSpaceOnUse" x1="953.6309" y1="517.2834" x2="1239.1036" y2="517.2834">
		<stop  offset="0" style="stop-color:#85CC86"/>
		<stop  offset="1" style="stop-color:#9BCC9E"/>
	</linearGradient>
	<path class="st4" d="M1097.49,659.71c84.39-0.73,148.72-79.28,140.99-145.42c-0.1-78.93-61.46-139.37-141.56-139.44
		c-81.09-0.07-143.11,61.31-143.28,141.79C953.47,594.79,1019.5,660.38,1097.49,659.71z"/>
	<linearGradient id="SVGID_6_" gradientUnits="userSpaceOnUse" x1="327.6456" y1="257.2175" x2="835.0455" y2="257.2175">
		<stop  offset="0" style="stop-color:#85CC86"/>
		<stop  offset="1" style="stop-color:#9BCC9E"/>
	</linearGradient>
	<path class="st5" d="M385.02,359.57c46.37,41.66,44.43,43.84,7.83,96.16c-5.63,8.04-11.43,15.98-19.63,27.42
		c48.5,10.47,85.72-6.96,124.12-24.54c26.13-11.97,55.27-23.08,83.33-23.83c53.42-1.45,103.1-12.49,148.75-38.92
		c137.27-79.48,133.75-230.41,29.69-312.16c-92.46-72.64-260.44-75.24-355.84-0.85C315.43,151.33,297.39,280.88,385.02,359.57z
		 M693.13,192.67c17.06,0,30.88,13.82,30.88,30.88c0,17.04-13.82,30.88-30.88,30.88c-17.04,0-30.86-13.83-30.86-30.88
		C662.27,206.49,676.09,192.67,693.13,192.67z M581.34,192.67c17.06,0,30.88,13.82,30.88,30.88c0,17.04-13.82,30.88-30.88,30.88
		c-17.04,0-30.86-13.83-30.86-30.88C550.48,206.49,564.3,192.67,581.34,192.67z M464.97,192.67c17.04,0,30.88,13.82,30.88,30.88
		c0,17.04-13.83,30.88-30.88,30.88c-17.04,0-30.88-13.83-30.88-30.88C434.09,206.49,447.92,192.67,464.97,192.67z"/>
	<linearGradient id="SVGID_7_" gradientUnits="userSpaceOnUse" x1="424.3513" y1="777.8751" x2="831.486" y2="777.8751">
		<stop  offset="0" style="stop-color:#85CC86"/>
		<stop  offset="1" style="stop-color:#9BCC9E"/>
	</linearGradient>
	<path class="st6" d="M627.82,838.77c1.11-0.33,2.07-0.63,3.03-0.9c59.25-17.01,118.5-34.02,177.75-51.03
		c6.68-1.92,13.39-3.73,19.99-5.9c1.28-0.42,2.74-2.22,2.9-3.53c0.12-0.98-1.61-2.35-2.75-3.24c-0.74-0.58-1.9-0.64-2.87-0.92
		c-64.8-18.65-129.6-37.34-194.44-55.84c-2.7-0.77-6.05-0.36-8.83,0.44c-50.23,14.35-100.42,28.83-150.62,43.3
		c-14.74,4.25-29.49,8.44-44.18,12.86c-1.46,0.44-3.39,2.27-3.45,3.54c-0.06,1.16,2.02,2.56,3.35,3.59c0.75,0.58,1.9,0.63,2.87,0.91
		c59.51,17.12,119.03,34.25,178.54,51.37C615.37,835.2,621.62,836.99,627.82,838.77z"/>
	<linearGradient id="SVGID_8_" gradientUnits="userSpaceOnUse" x1="426.9222" y1="840.7137" x2="453.5266" y2="840.7137">
		<stop  offset="0" style="stop-color:#85CC86"/>
		<stop  offset="1" style="stop-color:#9BCC9E"/>
	</linearGradient>
	<path class="st7" d="M427.33,870.14c-1.4,5.23,0.91,10.69,5.32,13.69c4.62,3.14,10.48,3.13,15.1-0.04c4.52-3.1,6.83-8.34,5.3-13.62
		c-1.28-4.43-3.43-8.59-4.89-12.97c-0.98-2.94-1.97-6.06-2.01-9.11c-0.2-15.21-0.04-30.43-0.19-45.65c-0.02-1.52-0.92-3.8-2.08-4.37
		c-2.67-1.31-5.74-1.79-9.4-2.82c0,2.31,0,3.87,0,5.44c0,14.49-0.13,28.99,0.07,43.48c0.08,5.62-0.64,10.83-3.37,15.86
		C429.46,863.17,428.26,866.67,427.33,870.14z"/>
</g>
<g>
</g>
<g>
</g>
<g>
</g>
<g>
</g>
<g>
</g>
<g>
</g>
</svg>
