<svg xmlns="http://www.w3.org/2000/svg" xmlns:xlink="http://www.w3.org/1999/xlink" width="500" zoomAndPan="magnify" viewBox="0 0 375 374.999991" height="500" preserveAspectRatio="xMidYMid meet" version="1.0"><defs><clipPath id="20fd2d9a94"><path d="M 2 26.484375 L 373 26.484375 L 373 348.234375 L 2 348.234375 Z M 2 26.484375 " clip-rule="nonzero"/></clipPath></defs><g clip-path="url(#20fd2d9a94)"><path fill="#9e0105" d="M 364.75 183.144531 C 362.789062 196.855469 357.824219 209.648438 353.449219 220.953125 C 351.324219 226.445312 349.3125 231.640625 347.953125 236.21875 C 347.550781 237.5625 347.011719 238.707031 346.335938 239.699219 C 338.167969 216.195312 333.519531 215.804688 331.523438 215.644531 C 325.40625 215.132812 298.292969 215.605469 297.128906 215.625 C 295.953125 215.644531 294.839844 216.253906 294.1875 217.246094 C 293.535156 218.238281 293.410156 219.488281 293.867188 220.585938 C 297.238281 228.871094 300.152344 235.898438 302.675781 241.855469 L 182.285156 253.578125 C 180.695312 248.695312 179.300781 244.378906 178.21875 241.023438 C 175.785156 233.503906 169.113281 228.324219 161.226562 227.839844 L 99.226562 223.996094 C 97.910156 223.957031 96.730469 224.515625 96.015625 225.570312 C 95.300781 226.625 95.191406 227.984375 95.746094 229.140625 C 95.855469 229.378906 100.71875 239.601562 107.601562 253.660156 C 98.761719 253.390625 90.585938 253.183594 85.40625 253.050781 L 83.578125 253.003906 C 79.59375 252.90625 75.75 252.835938 72.054688 252.773438 C 39.757812 252.210938 20.261719 251.863281 12.160156 232.007812 C 7.988281 221.804688 10.90625 213.84375 14.082031 208.960938 C 20.027344 199.839844 30.8125 194.636719 38.933594 193.949219 C 43.011719 196.953125 57.257812 206.234375 77.261719 206.234375 C 79.175781 206.234375 81.140625 206.144531 83.148438 205.96875 C 84.433594 205.847656 85.550781 205.054688 86.097656 203.894531 L 91.097656 193.117188 C 91.523438 192.195312 91.542969 191.121094 91.132812 190.175781 C 90.730469 189.234375 89.933594 188.507812 88.96875 188.1875 C 88.742188 188.117188 67.996094 181.097656 59.511719 170.4375 C 66.65625 165.503906 76.957031 160.894531 91.746094 158.230469 C 103.636719 165.519531 137.441406 183.636719 179.667969 183.628906 C 192.890625 183.628906 206.941406 181.847656 221.402344 177.402344 C 229.40625 180.265625 275.273438 196.601562 283.5625 198.207031 C 303.730469 202.066406 317.777344 195.335938 326.507812 177.574219 C 336.28125 157.710938 340.484375 155.671875 352.046875 158.160156 C 363.503906 160.617188 367.5625 163.410156 364.75 183.144531 Z M 345.589844 266.1875 C 341.246094 270.140625 326.480469 270.613281 323.441406 269.835938 C 320.929688 266.125 311.351562 244.171875 302.53125 222.753906 C 310.679688 222.644531 325.847656 222.484375 330.542969 222.789062 C 333.292969 224.925781 339.636719 239.921875 346.261719 264.210938 C 346.457031 264.933594 346.414062 265.445312 345.589844 266.1875 Z M 196.460938 317.816406 C 198.769531 323.914062 199.082031 328.507812 197.417969 331.84375 C 195.769531 335.175781 191.882812 337.703125 185.53125 339.589844 C 174.800781 342.765625 164.671875 345.769531 147.15625 314.757812 C 133.066406 289.785156 112.199219 246.773438 104.894531 231.558594 L 160.777344 235.03125 C 165.691406 235.335938 169.847656 238.554688 171.359375 243.242188 C 178.136719 264.203125 190.40625 301.761719 196.460938 317.816406 Z M 53.875 174.925781 C 61.425781 184.351562 76 190.910156 82.914062 193.632812 L 80.445312 198.9375 C 62.488281 199.886719 48.957031 192.0625 44.199219 188.832031 C 45.226562 185.960938 47.804688 180.550781 53.875 174.925781 Z M 101.113281 101.601562 L 158.714844 134.425781 C 159.257812 134.738281 159.878906 134.898438 160.492188 134.898438 C 160.734375 134.898438 160.972656 134.871094 161.207031 134.828125 L 226.1875 121.707031 L 218.300781 170.824219 C 158.03125 188.789062 103.8125 157.335938 93.230469 150.628906 Z M 49.773438 64.054688 L 176.125 34.058594 L 278.566406 97.113281 L 171.171875 79.851562 C 169.230469 79.542969 167.359375 80.875 167.050781 82.84375 C 166.726562 84.808594 168.070312 86.660156 170.023438 86.972656 L 276.792969 104.136719 L 161.109375 127.496094 Z M 294.394531 143.714844 C 295.195312 144.832031 295.523438 146.183594 295.304688 147.542969 L 292.792969 162.414062 L 282.605469 160.777344 L 285.117188 145.914062 C 285.34375 144.554688 286.074219 143.367188 287.195312 142.554688 C 288.304688 141.757812 289.671875 141.417969 291.03125 141.648438 C 292.390625 141.867188 293.589844 142.597656 294.394531 143.714844 Z M 353.558594 151.113281 C 336.613281 147.460938 330.050781 154.054688 320.042969 174.390625 C 310.589844 193.625 295.464844 193.160156 284.933594 191.121094 C 278.394531 189.871094 242.1875 177.167969 225.535156 171.222656 L 233.734375 120.179688 L 292.746094 108.269531 L 288.535156 134.488281 C 286.539062 134.753906 284.648438 135.503906 282.972656 136.722656 C 280.289062 138.652344 278.53125 141.515625 278.011719 144.746094 L 274.898438 163.15625 C 274.738281 164.105469 274.960938 165.078125 275.515625 165.859375 C 276.078125 166.636719 276.925781 167.164062 277.878906 167.316406 L 295.171875 170.09375 C 295.367188 170.125 295.5625 170.140625 295.753906 170.140625 C 297.476562 170.140625 298.996094 168.898438 299.304688 167.136719 L 302.414062 148.734375 C 302.414062 148.714844 302.425781 148.707031 302.425781 148.695312 C 302.941406 145.445312 302.164062 142.171875 300.234375 139.496094 C 299.027344 137.820312 297.453125 136.507812 295.644531 135.625 L 300.679688 104.324219 C 300.832031 103.375 300.601562 102.410156 300.046875 101.640625 C 299.484375 100.863281 298.640625 100.339844 297.695312 100.191406 L 297.175781 100.109375 L 178.628906 27.136719 C 177.816406 26.636719 176.832031 26.476562 175.910156 26.699219 L 39.21875 59.152344 C 37.78125 59.492188 36.691406 60.683594 36.484375 62.148438 C 36.265625 63.605469 36.976562 65.054688 38.261719 65.789062 L 94.421875 97.796875 L 85.75 151.785156 C 85.730469 151.886719 85.730469 151.988281 85.722656 152.09375 C 49.753906 160.027344 39.78125 179.566406 37.269531 186.863281 C 26.0625 188.152344 14.351562 195.339844 8.042969 205.035156 C 3.929688 211.359375 0.144531 221.644531 5.488281 234.734375 C 15.386719 258.980469 39.105469 259.402344 71.933594 259.980469 C 75.609375 260.042969 79.425781 260.105469 83.394531 260.214844 L 85.230469 260.257812 C 91.132812 260.410156 100.941406 260.652344 111.207031 260.972656 C 120.402344 279.609375 131.972656 302.503906 140.890625 318.296875 C 153.8125 341.199219 164.113281 348.488281 175.769531 348.488281 C 179.523438 348.488281 183.410156 347.730469 187.578125 346.503906 C 195.953125 344.015625 201.28125 340.269531 203.875 335.054688 C 206.476562 329.816406 206.253906 323.351562 203.203125 315.273438 C 198.785156 303.558594 190.800781 279.558594 184.585938 260.601562 L 305.644531 248.804688 C 316.480469 273.941406 318.390625 275.210938 319.21875 275.765625 C 320.648438 276.722656 324.261719 277.265625 328.617188 277.265625 C 335.636719 277.265625 344.570312 275.84375 349.3125 272.433594 C 352.90625 269.847656 354.28125 266.253906 353.210938 262.316406 C 351.628906 256.484375 350.125 251.386719 348.722656 246.921875 L 349.550781 246.558594 C 350.011719 246.359375 350.410156 246.074219 350.75 245.71875 C 352.628906 243.679688 353.976562 241.238281 354.867188 238.265625 C 356.132812 233.96875 358.09375 228.90625 360.167969 223.558594 C 364.683594 211.894531 369.800781 198.6875 371.875 184.164062 C 374.929688 162.773438 370.480469 154.742188 353.558594 151.113281 " fill-opacity="1" fill-rule="nonzero"/></g><path fill="#e2b808" d="M 197.417969 331.84375 C 195.769531 335.175781 191.882812 337.703125 185.53125 339.589844 C 174.800781 342.765625 164.671875 345.769531 147.15625 314.757812 C 133.066406 289.785156 112.199219 246.773438 104.894531 231.558594 L 160.777344 235.03125 C 165.691406 235.335938 169.847656 238.554688 171.359375 243.242188 C 178.136719 264.203125 190.40625 301.761719 196.460938 317.816406 C 198.769531 323.914062 199.082031 328.507812 197.417969 331.84375 Z M 345.589844 266.1875 C 341.246094 270.140625 326.480469 270.613281 323.441406 269.835938 C 320.929688 266.125 311.351562 244.171875 302.53125 222.753906 C 310.679688 222.644531 325.847656 222.484375 330.542969 222.789062 C 333.292969 224.925781 339.636719 239.921875 346.261719 264.210938 C 346.457031 264.933594 346.414062 265.445312 345.589844 266.1875 Z M 53.875 174.925781 C 47.804688 180.550781 45.226562 185.960938 44.199219 188.832031 C 48.957031 192.0625 62.488281 199.886719 80.445312 198.9375 L 82.914062 193.632812 C 76 190.910156 61.425781 184.351562 53.875 174.925781 Z M 295.304688 147.542969 L 292.792969 162.414062 L 282.605469 160.777344 L 285.117188 145.914062 C 285.34375 144.554688 286.074219 143.367188 287.195312 142.554688 C 288.304688 141.757812 289.671875 141.417969 291.03125 141.648438 C 292.390625 141.867188 293.589844 142.597656 294.394531 143.714844 C 295.195312 144.832031 295.523438 146.183594 295.304688 147.542969 " fill-opacity="1" fill-rule="nonzero"/><path fill="#8bd4be" d="M 364.75 183.144531 C 362.789062 196.855469 357.824219 209.648438 353.449219 220.953125 C 351.324219 226.445312 349.3125 231.640625 347.953125 236.21875 C 347.550781 237.5625 347.011719 238.707031 346.335938 239.699219 C 338.167969 216.195312 333.519531 215.804688 331.523438 215.644531 C 325.40625 215.132812 298.292969 215.605469 297.128906 215.625 C 295.953125 215.644531 294.839844 216.253906 294.1875 217.246094 C 293.535156 218.238281 293.410156 219.488281 293.867188 220.585938 C 297.238281 228.871094 300.152344 235.898438 302.675781 241.855469 L 182.285156 253.578125 C 180.695312 248.695312 179.300781 244.378906 178.21875 241.023438 C 175.785156 233.503906 169.113281 228.324219 161.226562 227.839844 L 99.226562 223.996094 C 97.910156 223.957031 96.730469 224.515625 96.015625 225.570312 C 95.300781 226.625 95.191406 227.984375 95.746094 229.140625 C 95.855469 229.378906 100.71875 239.601562 107.601562 253.660156 C 98.761719 253.390625 90.585938 253.183594 85.40625 253.050781 L 83.578125 253.003906 C 79.59375 252.90625 75.75 252.835938 72.054688 252.773438 C 39.757812 252.210938 20.261719 251.863281 12.160156 232.007812 C 7.988281 221.804688 10.90625 213.84375 14.082031 208.960938 C 20.027344 199.839844 30.8125 194.636719 38.933594 193.949219 C 43.011719 196.953125 57.257812 206.234375 77.261719 206.234375 C 79.175781 206.234375 81.140625 206.144531 83.148438 205.96875 C 84.433594 205.847656 85.550781 205.054688 86.097656 203.894531 L 91.097656 193.117188 C 91.523438 192.195312 91.542969 191.121094 91.132812 190.175781 C 90.730469 189.234375 89.933594 188.507812 88.96875 188.1875 C 88.742188 188.117188 67.996094 181.097656 59.511719 170.4375 C 66.65625 165.503906 76.957031 160.894531 91.746094 158.230469 C 103.636719 165.519531 137.441406 183.636719 179.667969 183.628906 C 192.890625 183.628906 206.941406 181.847656 221.402344 177.402344 C 229.40625 180.265625 275.273438 196.601562 283.5625 198.207031 C 303.730469 202.066406 317.777344 195.335938 326.507812 177.574219 C 336.28125 157.710938 340.484375 155.671875 352.046875 158.160156 C 363.503906 160.617188 367.5625 163.410156 364.75 183.144531 " fill-opacity="1" fill-rule="nonzero"/><path fill="#380c0f" d="M 167.050781 82.84375 C 167.359375 80.875 169.230469 79.542969 171.171875 79.851562 L 278.566406 97.113281 L 176.125 34.058594 L 49.773438 64.054688 L 161.109375 127.496094 L 276.792969 104.136719 L 170.023438 86.972656 C 168.070312 86.660156 166.726562 84.808594 167.050781 82.84375 Z M 226.1875 121.707031 L 218.300781 170.824219 C 158.03125 188.789062 103.8125 157.335938 93.230469 150.628906 L 101.113281 101.601562 L 158.714844 134.425781 C 159.257812 134.738281 159.878906 134.898438 160.492188 134.898438 C 160.734375 134.898438 160.972656 134.871094 161.207031 134.828125 L 226.1875 121.707031 " fill-opacity="1" fill-rule="nonzero"/></svg>