<svg xmlns="http://www.w3.org/2000/svg" xmlns:xlink="http://www.w3.org/1999/xlink" width="500" zoomAndPan="magnify" viewBox="0 0 375 374.999991" height="500" preserveAspectRatio="xMidYMid meet" version="1.0"><defs><clipPath id="44317267d3"><path d="M 93 270 L 350 270 L 350 366.421875 L 93 366.421875 Z M 93 270 " clip-rule="nonzero"/></clipPath><clipPath id="c5def3dc91"><path d="M 71 8.671875 L 150 8.671875 L 150 198 L 71 198 Z M 71 8.671875 " clip-rule="nonzero"/></clipPath></defs><path fill="#706efc" d="M 251.164062 111.132812 L 311.597656 116 L 299.800781 148.132812 C 293.910156 164.179688 243.667969 160.644531 227.628906 154.753906 L 226.386719 154.292969 C 210.339844 148.40625 170.988281 119.058594 176.875 103.011719 L 188.671875 70.878906 L 237.910156 106.261719 C 241.691406 108.988281 246.519531 110.757812 251.164062 111.132812 " fill-opacity="1" fill-rule="nonzero"/><path fill="#e2311d" d="M 363.921875 112.402344 L 356.019531 111.761719 L 347.90625 133.878906 C 351.617188 136.164062 353.792969 139.3125 352.855469 141.855469 C 352.511719 142.792969 351.78125 143.539062 350.800781 144.066406 L 339.53125 174.761719 C 338.464844 177.660156 333.449219 178.476562 328.320312 176.601562 C 323.191406 174.710938 319.886719 170.839844 320.960938 167.945312 L 332.222656 137.25 C 331.820312 136.207031 331.738281 135.171875 332.085938 134.234375 C 333.019531 131.6875 336.71875 130.691406 341.027344 131.347656 L 348.433594 111.152344 L 251.789062 103.375 C 248.546875 103.113281 245.089844 101.847656 242.449219 99.953125 L 151.097656 34.292969 C 144.042969 29.21875 146.363281 22.890625 155.027344 23.589844 L 267.167969 32.613281 C 270.40625 32.871094 273.859375 34.136719 276.507812 36.035156 L 367.84375 101.699219 C 374.902344 106.769531 372.578125 113.097656 363.921875 112.402344 " fill-opacity="1" fill-rule="nonzero"/><path fill="#e2311d" d="M 318.347656 339.71875 C 320.039062 338.023438 320.96875 335.78125 320.96875 333.414062 L 320.929688 303.269531 C 320.921875 298.3125 316.835938 294.292969 311.804688 294.292969 L 110.917969 294.339844 C 114.222656 300.96875 116.152344 308.28125 116.539062 315.640625 C 116.589844 316.644531 116.613281 317.554688 116.613281 318.433594 C 116.613281 326.769531 114.664062 335.015625 110.972656 342.453125 L 311.835938 342.398438 C 314.304688 342.398438 316.613281 341.445312 318.347656 339.71875 " fill-opacity="1" fill-rule="nonzero"/><g clip-path="url(#44317267d3)"><path fill="#706efc" d="M 349.148438 304.542969 L 349.15625 332.144531 C 349.15625 351.011719 333.859375 366.308594 315 366.316406 L 112.9375 366.359375 C 102.933594 366.359375 94.625 358.886719 93.339844 349.226562 L 311.84375 349.171875 C 316.078125 349.171875 320.066406 347.535156 323.058594 344.582031 C 326.074219 341.597656 327.742188 337.628906 327.734375 333.402344 L 327.703125 303.261719 C 327.695312 294.578125 320.558594 287.519531 311.804688 287.519531 L 93.324219 287.574219 C 94.613281 277.910156 102.910156 270.429688 112.921875 270.429688 L 314.96875 270.378906 C 333.84375 270.378906 349.148438 285.667969 349.148438 304.542969 " fill-opacity="1" fill-rule="nonzero"/></g><path fill="#e2311d" d="M 23.738281 25.875 L 108.804688 209.628906 C 108.878906 209.785156 108.953125 209.933594 109.027344 210.074219 C 112.914062 203.226562 119.449219 198.402344 127.152344 196.714844 L 46.363281 22.230469 C 39.105469 25.117188 31.5 26.34375 23.738281 25.875 " fill-opacity="1" fill-rule="nonzero"/><path fill="#e2311d" d="M 349.796875 216.109375 L 159.867188 216.15625 C 160.582031 218.640625 160.9375 221.214844 160.9375 223.8125 C 160.945312 228.914062 159.554688 233.878906 156.902344 238.222656 L 356.039062 238.179688 C 352.386719 231.382812 350.234375 223.785156 349.796875 216.109375 " fill-opacity="1" fill-rule="nonzero"/><g clip-path="url(#c5def3dc91)"><path fill="#e2311d" d="M 121.535156 108.644531 C 111.335938 72.484375 96.226562 42.503906 76.621094 19.550781 C 76.144531 18.992188 75.476562 18.648438 74.746094 18.597656 C 74.007812 18.539062 73.300781 18.769531 72.734375 19.25 C 72.183594 19.726562 71.84375 20.398438 71.78125 21.128906 C 71.730469 21.855469 71.960938 22.570312 72.4375 23.128906 C 91.523438 45.472656 106.261719 74.75 116.234375 110.140625 C 124.25 138.589844 128.582031 168.175781 132.320312 196.066406 C 132.601562 196.050781 132.878906 196.050781 133.167969 196.050781 C 135.59375 196.050781 138.042969 196.371094 140.386719 197.003906 C 141.273438 197.242188 142.144531 197.523438 142.984375 197.84375 C 146.65625 168.875 150.175781 138.105469 149.691406 108.011719 C 149.082031 70.425781 142.128906 37.585938 129.050781 10.394531 C 128.730469 9.730469 128.171875 9.234375 127.480469 8.988281 C 126.789062 8.742188 126.035156 8.785156 125.375 9.105469 C 124.710938 9.425781 124.214844 9.976562 123.976562 10.675781 C 123.730469 11.371094 123.765625 12.121094 124.085938 12.785156 C 136.820312 39.265625 143.589844 71.332031 144.183594 108.09375 C 144.609375 134.265625 137.773438 189.226562 137.773438 189.226562 C 137.773438 189.226562 128.730469 134.175781 121.535156 108.644531 " fill-opacity="1" fill-rule="nonzero"/></g><path fill="#706efc" d="M 372.011719 243.960938 C 370.71875 253.617188 362.417969 261.105469 352.414062 261.105469 L 150.359375 261.15625 C 136.84375 261.15625 125.160156 253.3125 119.613281 241.921875 C 106.980469 241.648438 95 234.355469 89.335938 222.117188 L 4.4375 38.761719 C 0.238281 29.679688 3.527344 19.007812 11.753906 13.773438 L 103.558594 212.054688 C 105.195312 215.566406 107.972656 218.320312 111.449219 219.890625 C 111.769531 218.113281 112.304688 216.40625 113.035156 214.800781 C 116.078125 207.980469 122.488281 203.003906 130.144531 201.953125 C 134.417969 201.371094 138.847656 202.050781 142.730469 203.925781 C 147.703125 206.308594 151.625 210.5 153.679688 215.640625 C 154.691406 218.171875 155.242188 220.925781 155.25 223.8125 C 155.25 229.285156 153.265625 234.277344 149.964844 238.136719 C 148.730469 239.59375 147.300781 240.882812 145.722656 241.976562 C 148.039062 243.269531 150.695312 244.007812 153.53125 244.007812 L 372.011719 243.960938 " fill-opacity="1" fill-rule="nonzero"/></svg>