<svg xmlns="http://www.w3.org/2000/svg" xmlns:xlink="http://www.w3.org/1999/xlink" width="500" zoomAndPan="magnify" viewBox="0 0 375 374.999991" height="500" preserveAspectRatio="xMidYMid meet" version="1.0"><defs><clipPath id="c7aecffb3c"><path d="M 109 73.125 L 266 73.125 L 266 156 L 109 156 Z M 109 73.125 " clip-rule="nonzero"/></clipPath><clipPath id="80b07b6d59"><path d="M 182.550781 3 L 264.300781 3 L 264.300781 131.25 L 182.550781 131.25 Z M 182.550781 3 " clip-rule="nonzero"/></clipPath></defs><path fill="#e2311d" d="M 134.441406 215.734375 L 95.453125 215.734375 L 95.453125 198.585938 L 134.441406 198.585938 Z M 102.101562 209.085938 L 127.792969 209.085938 L 127.792969 205.234375 L 102.101562 205.234375 Z M 102.101562 209.085938 " fill-opacity="1" fill-rule="nonzero"/><path fill="#e2311d" d="M 279.527344 215.734375 L 240.539062 215.734375 L 240.539062 198.585938 L 279.527344 198.585938 Z M 247.1875 209.085938 L 272.878906 209.085938 L 272.878906 205.234375 L 247.1875 205.234375 Z M 247.1875 209.085938 " fill-opacity="1" fill-rule="nonzero"/><path fill="#e2311d" d="M 134.441406 347.011719 L 95.453125 347.011719 L 95.453125 329.945312 L 134.441406 329.945312 Z M 102.101562 340.363281 L 127.792969 340.363281 L 127.792969 336.59375 L 102.101562 336.59375 Z M 102.101562 340.363281 " fill-opacity="1" fill-rule="nonzero"/><path fill="#e2311d" d="M 287.011719 205.234375 L 87.96875 205.234375 L 87.96875 167.277344 L 287.011719 167.277344 Z M 94.617188 198.585938 L 280.363281 198.585938 L 280.363281 173.925781 L 94.617188 173.925781 Z M 94.617188 198.585938 " fill-opacity="1" fill-rule="nonzero"/><path fill="#e2311d" d="M 255.105469 173.925781 L 119.871094 173.925781 L 119.871094 148.761719 L 255.105469 148.761719 Z M 126.523438 167.277344 L 248.457031 167.277344 L 248.457031 155.410156 L 126.523438 155.410156 Z M 126.523438 167.277344 " fill-opacity="1" fill-rule="nonzero"/><path fill="#e2311d" d="M 279.527344 347.011719 L 240.539062 347.011719 L 240.539062 329.945312 L 279.527344 329.945312 Z M 247.1875 340.363281 L 272.878906 340.363281 L 272.878906 336.59375 L 247.1875 336.59375 Z M 247.1875 340.363281 " fill-opacity="1" fill-rule="nonzero"/><path fill="#e2311d" d="M 130.722656 336.59375 L 99.167969 336.59375 L 99.167969 209.085938 L 130.722656 209.085938 Z M 105.820312 329.945312 L 124.074219 329.945312 L 124.074219 215.734375 L 105.820312 215.734375 Z M 105.820312 329.945312 " fill-opacity="1" fill-rule="nonzero"/><path fill="#e2311d" d="M 275.808594 336.59375 L 244.253906 336.59375 L 244.253906 209.085938 L 275.808594 209.085938 Z M 250.902344 329.945312 L 269.160156 329.945312 L 269.160156 215.734375 L 250.902344 215.734375 Z M 250.902344 329.945312 " fill-opacity="1" fill-rule="nonzero"/><path fill="#e2311d" d="M 365.128906 360.671875 L 9.871094 360.671875 L 9.871094 187.597656 L 91.289062 187.597656 L 91.289062 194.246094 L 16.523438 194.246094 L 16.523438 354.019531 L 358.476562 354.019531 L 358.476562 194.246094 L 283.675781 194.246094 L 283.675781 187.597656 L 365.128906 187.597656 Z M 365.128906 360.671875 " fill-opacity="1" fill-rule="nonzero"/><path fill="#e2311d" d="M 290.992188 360.667969 L 84.007812 360.667969 L 84.007812 340.363281 L 290.992188 340.363281 Z M 90.65625 354.019531 L 284.34375 354.019531 L 284.34375 347.011719 L 90.65625 347.011719 Z M 90.65625 354.019531 " fill-opacity="1" fill-rule="nonzero"/><path fill="#e2311d" d="M 373.671875 374.328125 L 1.328125 374.328125 L 1.328125 354.019531 L 373.671875 354.019531 Z M 7.980469 367.679688 L 367.019531 367.679688 L 367.019531 360.667969 L 7.980469 360.667969 Z M 7.980469 367.679688 " fill-opacity="1" fill-rule="nonzero"/><path fill="#e2311d" d="M 218.972656 347.011719 L 156.027344 347.011719 L 156.027344 276.148438 C 156.027344 266.285156 164.050781 258.261719 173.914062 258.261719 L 201.085938 258.261719 C 210.949219 258.261719 218.972656 266.285156 218.972656 276.148438 Z M 162.675781 340.363281 L 212.324219 340.363281 L 212.324219 276.148438 C 212.324219 269.953125 207.28125 264.910156 201.085938 264.910156 L 173.914062 264.910156 C 167.71875 264.910156 162.675781 269.953125 162.675781 276.148438 Z M 162.675781 340.363281 " fill-opacity="1" fill-rule="nonzero"/><path fill="#e2311d" d="M 187.488281 244.679688 C 179.554688 244.679688 173.101562 238.226562 173.101562 230.292969 C 173.101562 222.359375 179.554688 215.90625 187.488281 215.90625 C 195.421875 215.90625 201.878906 222.359375 201.878906 230.292969 C 201.878906 238.226562 195.421875 244.679688 187.488281 244.679688 Z M 187.488281 222.554688 C 183.222656 222.554688 179.75 226.023438 179.75 230.292969 C 179.75 234.558594 183.222656 238.03125 187.488281 238.03125 C 191.757812 238.03125 195.226562 234.558594 195.226562 230.292969 C 195.226562 226.023438 191.757812 222.554688 187.488281 222.554688 Z M 187.488281 222.554688 " fill-opacity="1" fill-rule="nonzero"/><path fill="#e2311d" d="M 53.355469 244.042969 L 34.347656 244.042969 L 34.347656 208.449219 L 53.355469 208.449219 Z M 40.996094 237.394531 L 46.707031 237.394531 L 46.707031 215.097656 L 40.996094 215.097656 Z M 40.996094 237.394531 " fill-opacity="1" fill-rule="nonzero"/><path fill="#e2311d" d="M 81.328125 244.042969 L 62.316406 244.042969 L 62.316406 208.449219 L 81.328125 208.449219 Z M 68.964844 237.394531 L 74.675781 237.394531 L 74.675781 215.097656 L 68.964844 215.097656 Z M 68.964844 237.394531 " fill-opacity="1" fill-rule="nonzero"/><path fill="#e2311d" d="M 105.820312 276.164062 L 9.859375 276.164062 L 9.859375 258.261719 L 105.816406 258.261719 L 105.816406 276.164062 Z M 16.507812 269.515625 L 99.167969 269.515625 L 99.167969 264.910156 L 16.507812 264.910156 Z M 16.507812 269.515625 " fill-opacity="1" fill-rule="nonzero"/><path fill="#e2311d" d="M 365.121094 276.164062 L 269.160156 276.164062 L 269.160156 258.261719 L 365.121094 258.261719 Z M 275.808594 269.515625 L 358.472656 269.515625 L 358.472656 264.910156 L 275.808594 264.910156 Z M 275.808594 269.515625 " fill-opacity="1" fill-rule="nonzero"/><path fill="#e2311d" d="M 53.355469 326.058594 L 34.347656 326.058594 L 34.347656 290.464844 L 53.355469 290.464844 Z M 40.996094 319.410156 L 46.707031 319.410156 L 46.707031 297.113281 L 40.996094 297.113281 Z M 40.996094 319.410156 " fill-opacity="1" fill-rule="nonzero"/><path fill="#e2311d" d="M 81.328125 326.058594 L 62.316406 326.058594 L 62.316406 290.464844 L 81.328125 290.464844 Z M 68.964844 319.410156 L 74.675781 319.410156 L 74.675781 297.113281 L 68.964844 297.113281 Z M 68.964844 319.410156 " fill-opacity="1" fill-rule="nonzero"/><path fill="#e2311d" d="M 312.660156 326.058594 L 293.652344 326.058594 L 293.652344 290.464844 L 312.660156 290.464844 Z M 300.300781 319.410156 L 306.011719 319.410156 L 306.011719 297.113281 L 300.300781 297.113281 Z M 300.300781 319.410156 " fill-opacity="1" fill-rule="nonzero"/><path fill="#e2311d" d="M 340.628906 326.058594 L 321.621094 326.058594 L 321.621094 290.464844 L 340.628906 290.464844 Z M 328.269531 319.410156 L 333.980469 319.410156 L 333.980469 297.113281 L 328.269531 297.113281 Z M 328.269531 319.410156 " fill-opacity="1" fill-rule="nonzero"/><path fill="#e2311d" d="M 312.660156 244.042969 L 293.652344 244.042969 L 293.652344 208.449219 L 312.660156 208.449219 Z M 300.300781 237.394531 L 306.011719 237.394531 L 306.011719 215.097656 L 300.300781 215.097656 Z M 300.300781 237.394531 " fill-opacity="1" fill-rule="nonzero"/><path fill="#e2311d" d="M 340.628906 244.042969 L 321.621094 244.042969 L 321.621094 208.449219 L 340.628906 208.449219 Z M 328.269531 237.394531 L 333.980469 237.394531 L 333.980469 215.097656 L 328.269531 215.097656 Z M 328.269531 237.394531 " fill-opacity="1" fill-rule="nonzero"/><g clip-path="url(#c7aecffb3c)"><path fill="#e2311d" d="M 265.457031 155.410156 L 109.523438 155.410156 L 109.523438 126.257812 L 187.488281 73.535156 L 265.457031 126.257812 Z M 116.171875 148.761719 L 258.808594 148.761719 L 258.808594 129.785156 L 187.488281 81.558594 L 116.171875 129.785156 Z M 116.171875 148.761719 " fill-opacity="1" fill-rule="nonzero"/></g><path fill="#e2311d" d="M 91.289062 194.242188 L 0.0351562 194.242188 L 12.167969 158.007812 L 126.53125 158.007812 L 126.53125 170.605469 L 119.882812 170.605469 L 119.882812 164.65625 L 16.953125 164.65625 L 9.273438 187.59375 L 91.289062 187.59375 Z M 91.289062 194.242188 " fill-opacity="1" fill-rule="nonzero"/><path fill="#e2311d" d="M 374.929688 194.242188 L 283.675781 194.242188 L 283.675781 187.59375 L 365.699219 187.59375 L 358.042969 164.65625 L 255.117188 164.65625 L 255.117188 170.605469 L 248.46875 170.605469 L 248.46875 158.007812 L 362.835938 158.007812 Z M 374.929688 194.242188 " fill-opacity="1" fill-rule="nonzero"/><path fill="#e2311d" d="M 111.636719 185.957031 L 111.636719 178.660156 L 114.652344 178.660156 L 114.652344 185.847656 C 114.652344 188.320312 115.730469 189.347656 117.554688 189.347656 C 119.398438 189.347656 120.460938 188.320312 120.460938 185.847656 L 120.460938 178.660156 L 123.4375 178.660156 L 123.4375 185.957031 C 123.4375 189.792969 121.242188 191.917969 117.539062 191.917969 C 113.832031 191.917969 111.636719 189.792969 111.636719 185.957031 Z M 111.636719 185.957031 " fill-opacity="1" fill-rule="nonzero"/><path fill="#e2311d" d="M 142.09375 178.660156 L 142.09375 191.691406 L 139.617188 191.691406 L 133.121094 183.78125 L 133.121094 191.691406 L 130.140625 191.691406 L 130.140625 178.660156 L 132.636719 178.660156 L 139.113281 186.574219 L 139.113281 178.660156 Z M 142.09375 178.660156 " fill-opacity="1" fill-rule="nonzero"/><path fill="#e2311d" d="M 148.910156 178.660156 L 151.925781 178.660156 L 151.925781 191.691406 L 148.910156 191.691406 Z M 148.910156 178.660156 " fill-opacity="1" fill-rule="nonzero"/><path fill="#e2311d" d="M 171.191406 178.660156 L 165.550781 191.691406 L 162.570312 191.691406 L 156.949219 178.660156 L 160.207031 178.660156 L 164.171875 187.96875 L 168.195312 178.660156 Z M 171.191406 178.660156 " fill-opacity="1" fill-rule="nonzero"/><path fill="#e2311d" d="M 186.085938 189.273438 L 186.085938 191.691406 L 175.996094 191.691406 L 175.996094 178.660156 L 185.84375 178.660156 L 185.84375 181.082031 L 178.992188 181.082031 L 178.992188 183.910156 L 185.042969 183.910156 L 185.042969 186.257812 L 178.992188 186.257812 L 178.992188 189.273438 Z M 186.085938 189.273438 " fill-opacity="1" fill-rule="nonzero"/><path fill="#e2311d" d="M 200.515625 191.691406 L 198 188.0625 L 195.226562 188.0625 L 195.226562 191.691406 L 192.210938 191.691406 L 192.210938 178.660156 L 197.851562 178.660156 C 201.332031 178.660156 203.511719 180.464844 203.511719 183.390625 C 203.511719 185.34375 202.523438 186.777344 200.832031 187.503906 L 203.753906 191.691406 L 200.511719 191.691406 Z M 197.683594 181.117188 L 195.226562 181.117188 L 195.226562 185.660156 L 197.683594 185.660156 C 199.527344 185.660156 200.457031 184.804688 200.457031 183.390625 C 200.457031 181.957031 199.527344 181.117188 197.683594 181.117188 Z M 197.683594 181.117188 " fill-opacity="1" fill-rule="nonzero"/><path fill="#e2311d" d="M 208.59375 190.410156 L 209.617188 188.136719 C 210.714844 188.9375 212.355469 189.496094 213.917969 189.496094 C 215.703125 189.496094 216.429688 188.898438 216.429688 188.101562 C 216.429688 185.660156 208.855469 187.335938 208.855469 182.496094 C 208.855469 180.28125 210.640625 178.4375 214.347656 178.4375 C 215.984375 178.4375 217.660156 178.828125 218.871094 179.589844 L 217.9375 181.882812 C 216.730469 181.195312 215.480469 180.855469 214.328125 180.855469 C 212.539062 180.855469 211.851562 181.527344 211.851562 182.347656 C 211.851562 184.75 219.429688 183.089844 219.429688 187.875 C 219.429688 190.054688 217.621094 191.917969 213.898438 191.917969 C 211.832031 191.917969 209.746094 191.300781 208.59375 190.410156 Z M 208.59375 190.410156 " fill-opacity="1" fill-rule="nonzero"/><path fill="#e2311d" d="M 225.21875 178.660156 L 228.234375 178.660156 L 228.234375 191.691406 L 225.21875 191.691406 Z M 225.21875 178.660156 " fill-opacity="1" fill-rule="nonzero"/><path fill="#e2311d" d="M 237.746094 181.117188 L 233.578125 181.117188 L 233.578125 178.660156 L 244.933594 178.660156 L 244.933594 181.117188 L 240.761719 181.117188 L 240.761719 191.691406 L 237.746094 191.691406 Z M 237.746094 181.117188 " fill-opacity="1" fill-rule="nonzero"/><path fill="#e2311d" d="M 256.289062 187.074219 L 256.289062 191.691406 L 253.273438 191.691406 L 253.273438 187.039062 L 248.226562 178.660156 L 251.429688 178.660156 L 254.910156 184.449219 L 258.390625 178.660156 L 261.351562 178.660156 Z M 256.289062 187.074219 " fill-opacity="1" fill-rule="nonzero"/><g clip-path="url(#80b07b6d59)"><path fill="#e2311d" d="M 190.613281 13.972656 L 190.613281 12.734375 C 190.613281 12.558594 190.613281 12.558594 190.613281 12.382812 C 191.851562 11.496094 192.734375 10.082031 192.734375 8.3125 C 192.734375 5.660156 190.613281 3.359375 187.78125 3.359375 C 185.128906 3.359375 182.828125 5.484375 182.828125 8.3125 C 182.828125 10.082031 183.714844 11.496094 184.949219 12.382812 C 184.949219 12.558594 184.949219 12.558594 184.949219 12.734375 L 184.949219 128.769531 C 184.949219 130.363281 186.1875 131.601562 187.78125 131.601562 C 189.375 131.601562 190.613281 130.363281 190.613281 128.769531 L 190.613281 60.316406 C 215.199219 74.292969 239.609375 46.34375 264.195312 60.316406 C 264.195312 44.929688 264.195312 29.363281 264.195312 13.972656 C 239.609375 0 215.019531 27.769531 190.613281 13.972656 Z M 190.613281 13.972656 " fill-opacity="1" fill-rule="nonzero"/></g></svg>