<?xml version="1.0" encoding="utf-8"?>
<!-- Generator: Adobe Illustrator 25.1.0, SVG Export Plug-In . SVG Version: 6.00 Build 0)  -->
<svg version="1.1" id="Layer_1" xmlns="http://www.w3.org/2000/svg" xmlns:xlink="http://www.w3.org/1999/xlink" x="0px" y="0px"
	 viewBox="0 0 1105.36 1615.46" style="enable-background:new 0 0 1105.36 1615.46;" xml:space="preserve">
<style type="text/css">
	.st0{display:none;fill:url(#SVGID_1_);}
	.st1{fill:url(#SVGID_2_);}
	.st2{fill:url(#SVGID_3_);}
	.st3{fill:url(#SVGID_4_);}
	.st4{fill:url(#SVGID_5_);}
	.st5{fill:url(#SVGID_6_);}
	.st6{fill:url(#SVGID_7_);}
	.st7{fill:url(#SVGID_8_);}
	.st8{fill:url(#SVGID_9_);}
	.st9{fill:url(#SVGID_10_);}
</style>
<radialGradient id="SVGID_1_" cx="552.68" cy="807.7287" r="1000" gradientUnits="userSpaceOnUse">
	<stop  offset="0" style="stop-color:#003831"/>
	<stop  offset="0.7598" style="stop-color:#002622"/>
</radialGradient>
<rect x="-447.32" y="-192.27" class="st0" width="2000" height="2000"/>
<g>
	<g>
		<linearGradient id="SVGID_2_" gradientUnits="userSpaceOnUse" x1="210.3507" y1="1044.1409" x2="894.3325" y2="1044.1409">
			<stop  offset="0" style="stop-color:#F0766A"/>
			<stop  offset="1" style="stop-color:#F49484"/>
		</linearGradient>
		<path class="st1" d="M307.52,1190.26c-76.63-8.46-116.6-72.64-87.81-139.74c13.06-30.44,36.32-48.73,69.18-53.05
			c11.15-1.47,15.06-5.3,16.55-16.57c14.64-110.83,88.49-197.25,188.69-221.82c135.57-33.24,265.31,45.46,302.49,183.8
			c4.34,16.16,7.07,32.75,10.81,50.4c4.36,1.17,9.61,2.59,14.86,3.99c44.94,11.93,76.48,56.45,71.52,100.95
			c-5.67,50.8-44.84,87.57-94.47,88.65c-3.56,0.08-7.13,0.08-10.69,0.04c-20.89-0.27-29.6-8.63-29.73-29.78
			c-0.26-42.75,0.02-85.51-0.13-128.26c-0.14-39.65-7.1-77.94-24.21-113.96c-37.34-78.62-114.34-121.27-203.46-112.93
			c-80.19,7.5-148.94,68.48-170.28,153.35c-5.89,23.45-8.93,48.14-9.33,72.32c-0.77,46.22-2.57,92.97,3.06,138.64
			c9.17,74.38,66.19,120.41,141.17,120.53c12.22,0.02,24.44-0.27,36.64,0.13c14.91,0.49,24.93,9.71,25.68,22.88
			c0.73,12.76-9.06,24.35-23.23,25.63c-114.15,10.38-197.01-39.25-225.18-140.45C309.28,1193.55,308.43,1192.23,307.52,1190.26z"/>
		<linearGradient id="SVGID_3_" gradientUnits="userSpaceOnUse" x1="430.7367" y1="1090.3438" x2="483.0887" y2="1090.3438">
			<stop  offset="0" style="stop-color:#F0766A"/>
			<stop  offset="1" style="stop-color:#F49484"/>
		</linearGradient>
		<path class="st2" d="M457.35,1116.24c-13.91,0.12-26.45-12.04-26.61-25.8c-0.16-13.84,11.95-25.87,26.16-26
			c14.62-0.13,26.07,11.03,26.19,25.53C483.21,1104.31,471.62,1116.12,457.35,1116.24z"/>
		<linearGradient id="SVGID_4_" gradientUnits="userSpaceOnUse" x1="528.836" y1="1090.345" x2="580.5423" y2="1090.345">
			<stop  offset="0" style="stop-color:#F0766A"/>
			<stop  offset="1" style="stop-color:#F49484"/>
		</linearGradient>
		<path class="st3" d="M554.9,1116.47c-13.99,0-26.28-12.56-26.06-26.62c0.22-14.28,12.49-25.99,26.82-25.62
			c14.03,0.36,24.72,11.36,24.88,25.6C580.71,1104.54,569.23,1116.47,554.9,1116.47z"/>
		<linearGradient id="SVGID_5_" gradientUnits="userSpaceOnUse" x1="626.6121" y1="1090.3334" x2="678.3144" y2="1090.3334">
			<stop  offset="0" style="stop-color:#F0766A"/>
			<stop  offset="1" style="stop-color:#F49484"/>
		</linearGradient>
		<path class="st4" d="M652.04,1064.2c14.68-0.33,26.17,10.94,26.27,25.76c0.1,14.71-11.46,26.6-25.78,26.51
			c-13.4-0.08-25.27-11.64-25.9-25.24C625.98,1077.1,637.8,1064.52,652.04,1064.2z"/>
	</g>
	<linearGradient id="SVGID_6_" gradientUnits="userSpaceOnUse" x1="14.7935" y1="1099.6216" x2="1090.5665" y2="1099.6216">
		<stop  offset="0" style="stop-color:#F0766A"/>
		<stop  offset="1" style="stop-color:#F49484"/>
	</linearGradient>
	<path class="st5" d="M359.66,659.58C146.24,765.85,73.71,1000.03,132.6,1188.57c56.32,180.32,229.15,307.35,421.18,306.64
		c194.29-0.72,362.79-126.74,420.07-313.99c53.26-174.11-7-408.81-225-519.63c28.26-17.58,57.97-36.53,88.35-54.36
		c3.62-2.13,11.84,0.28,16.2,3.19c52.49,35.04,97.35,78.26,134.33,129.35c71.35,98.58,105.8,209.16,102.65,330.59
		c-6.61,255.02-190.7,468.31-442.76,514.61c-292.64,53.75-576.66-142.4-624.31-437.13c-36.22-223.98,44.07-403.31,226.69-537.32
		c9-6.6,15.05-7.18,24.31,0.51c12.81,10.65,27.36,19.45,41.94,27.67C330.2,646.56,345.15,652.68,359.66,659.58z"/>
	<linearGradient id="SVGID_7_" gradientUnits="userSpaceOnUse" x1="60.4461" y1="210.5374" x2="1044.4115" y2="210.5374">
		<stop  offset="0" style="stop-color:#F0766A"/>
		<stop  offset="1" style="stop-color:#F49484"/>
	</linearGradient>
	<path class="st6" d="M60.45,204.39c47.47-18.1,92.89-35.55,138.41-52.75C309.7,109.76,420.67,68.23,531.34,25.92
		c14.57-5.57,26.81-5.83,41.67-0.16C726.76,84.5,880.82,142.41,1034.78,200.6c2.84,1.08,5.48,2.69,9.63,4.76
		c-70.04,28.07-138.62,55.58-207.23,83.03c-91.05,36.43-182.06,72.96-273.3,108.91c-6.47,2.55-15.61,2.99-21.95,0.48
		C383.53,334.92,225.36,271.53,67.15,208.2C65.71,207.63,64.41,206.66,60.45,204.39z"/>
	<linearGradient id="SVGID_8_" gradientUnits="userSpaceOnUse" x1="270.8281" y1="488.384" x2="833.8551" y2="488.384">
		<stop  offset="0" style="stop-color:#F0766A"/>
		<stop  offset="1" style="stop-color:#F49484"/>
	</linearGradient>
	<path class="st7" d="M272.89,338.86c14.68,5.68,28.78,10.99,42.77,16.57c74.04,29.57,148.15,58.94,221.94,89.1
		c10.71,4.38,19.38,4,29.74-0.19c82.16-33.2,164.5-65.95,246.79-98.81c5.71-2.28,11.48-4.37,17.99-6.84
		c0.78,4.33,1.62,6.85,1.62,9.37c0.08,65.68,0.33,131.37-0.37,197.04c-0.06,6.06-4.86,13.72-9.8,17.82
		c-40.24,33.4-88.12,50.27-138.41,60.61C575.61,646.08,466.81,643.96,360.83,606c-28.64-10.26-54.36-28.83-80.96-44.39
		c-4.06-2.38-7.9-9.05-7.96-13.78c-0.78-67.25-0.9-134.5-1.09-201.76C270.82,344.16,271.89,342.24,272.89,338.86z"/>
	<linearGradient id="SVGID_9_" gradientUnits="userSpaceOnUse" x1="914.3636" y1="546.7422" x2="1043.7673" y2="546.7422">
		<stop  offset="0" style="stop-color:#F0766A"/>
		<stop  offset="1" style="stop-color:#F49484"/>
	</linearGradient>
	<path class="st8" d="M979.56,628.82c-19.2-17.33-41.15-36.8-62.52-56.89c-2.45-2.3-3.41-8.79-2.06-12.12
		c11.84-29.09,24.18-57.99,36.96-86.69c1.48-3.32,6.51-5.06,9.95-7.47c0.35-0.25,1.03-0.02,1.55-0.06
		c39.39-2.5,39.37-2.49,54.57,33.45c8.36,19.77,17.14,39.38,24.93,59.37c1.49,3.84,1,10.99-1.59,13.47
		C1020.15,592.2,998.25,611.76,979.56,628.82z"/>
	<linearGradient id="SVGID_10_" gradientUnits="userSpaceOnUse" x1="956.4111" y1="358.2365" x2="1000.5424" y2="358.2365">
		<stop  offset="0" style="stop-color:#F0766A"/>
		<stop  offset="1" style="stop-color:#F49484"/>
	</linearGradient>
	<path class="st9" d="M1000.54,439.38c-15.6,0-28.6,0-43.83,0c0-11.88,0.01-23.19,0-34.51c-0.02-32.99,0.33-65.99-0.29-98.97
		c-0.18-9.48,2.8-14.29,11.78-16.98c10.44-3.12,20.52-7.44,32.35-11.83C1000.54,331.97,1000.54,385.41,1000.54,439.38z"/>
</g>
<g>
</g>
<g>
</g>
<g>
</g>
<g>
</g>
<g>
</g>
<g>
</g>
</svg>
