<svg xmlns="http://www.w3.org/2000/svg" xmlns:xlink="http://www.w3.org/1999/xlink" width="500" zoomAndPan="magnify" viewBox="0 0 375 374.999991" height="500" preserveAspectRatio="xMidYMid meet" version="1.0"><defs><clipPath id="47c5680904"><path d="M 134 2.1875 L 241 2.1875 L 241 69 L 134 69 Z M 134 2.1875 " clip-rule="nonzero"/></clipPath><clipPath id="7dfc8716fa"><path d="M 0 273 L 66 273 L 66 372.6875 L 0 372.6875 Z M 0 273 " clip-rule="nonzero"/></clipPath><clipPath id="4c7c5e11e7"><path d="M 80 273 L 146 273 L 146 372.6875 L 80 372.6875 Z M 80 273 " clip-rule="nonzero"/></clipPath><clipPath id="95f8532688"><path d="M 230 273 L 295 273 L 295 372.6875 L 230 372.6875 Z M 230 273 " clip-rule="nonzero"/></clipPath><clipPath id="01be36e874"><path d="M 310 273 L 375 273 L 375 372.6875 L 310 372.6875 Z M 310 273 " clip-rule="nonzero"/></clipPath></defs><path fill="#e9af3d" d="M 348.957031 277.628906 L 370.574219 358.484375 L 357.976562 348.78125 L 345.296875 339.078125 L 339.253906 353.804688 L 333.125 368.527344 L 314.316406 298.226562 L 321.125 294.566406 L 342.148438 291.757812 Z M 348.957031 277.628906 " fill-opacity="1" fill-rule="nonzero"/><path fill="#e9af3d" d="M 283.847656 294.566406 L 290.65625 298.226562 L 271.84375 368.527344 L 265.71875 353.804688 L 259.589844 339.078125 L 246.992188 348.78125 L 234.3125 358.484375 L 256.015625 277.628906 L 262.738281 291.757812 Z M 283.847656 294.566406 " fill-opacity="1" fill-rule="nonzero"/><path fill="#e9af3d" d="M 119.15625 277.542969 L 140.859375 358.484375 L 128.175781 348.78125 L 115.582031 339.078125 L 109.453125 353.804688 L 103.410156 368.527344 L 84.515625 298.226562 L 91.324219 294.566406 L 112.433594 291.757812 Z M 119.15625 277.542969 " fill-opacity="1" fill-rule="nonzero"/><path fill="#e9af3d" d="M 54.046875 294.566406 L 60.855469 298.226562 L 42.046875 368.527344 L 35.917969 353.804688 L 29.875 339.078125 L 17.191406 348.78125 L 4.597656 358.484375 L 26.214844 277.628906 L 33.023438 291.757812 Z M 54.046875 294.566406 " fill-opacity="1" fill-rule="nonzero"/><path fill="#e9af3d" d="M 329.804688 230.988281 L 314.828125 243.925781 L 319.335938 263.160156 L 302.484375 252.863281 L 285.546875 263.160156 L 290.058594 243.925781 L 275.164062 230.988281 L 294.824219 229.285156 L 302.484375 211.15625 L 310.144531 229.285156 Z M 329.804688 230.988281 " fill-opacity="1" fill-rule="nonzero"/><path fill="#e9af3d" d="M 100.003906 230.988281 L 85.109375 243.925781 L 89.621094 263.160156 L 72.683594 252.863281 L 55.832031 263.160156 L 60.34375 243.925781 L 45.363281 230.988281 L 65.023438 229.285156 L 72.683594 211.15625 L 80.34375 229.285156 Z M 100.003906 230.988281 " fill-opacity="1" fill-rule="nonzero"/><path fill="#e9af3d" d="M 302.484375 192.859375 C 326.914062 192.859375 346.742188 212.6875 346.742188 237.117188 C 346.742188 261.542969 326.914062 281.375 302.484375 281.375 C 278.058594 281.375 258.226562 261.542969 258.226562 237.117188 C 258.226562 212.6875 278.058594 192.859375 302.484375 192.859375 Z M 314.828125 243.925781 L 329.804688 230.988281 L 310.144531 229.371094 L 302.484375 211.15625 L 294.824219 229.371094 L 275.164062 230.988281 L 290.144531 243.925781 L 285.632812 263.160156 L 302.570312 252.945312 L 319.507812 263.160156 Z M 314.828125 243.925781 " fill-opacity="1" fill-rule="nonzero"/><path fill="#e9af3d" d="M 72.683594 192.859375 C 97.113281 192.859375 116.941406 212.6875 116.941406 237.117188 C 116.941406 261.542969 97.113281 281.375 72.683594 281.375 C 48.257812 281.375 28.425781 261.542969 28.425781 237.117188 C 28.425781 212.6875 48.257812 192.859375 72.683594 192.859375 Z M 85.109375 243.925781 L 100.089844 230.988281 L 80.429688 229.371094 L 72.769531 211.15625 L 65.109375 229.371094 L 45.449219 230.988281 L 60.429688 243.925781 L 55.917969 263.160156 L 72.769531 252.945312 L 89.707031 263.160156 Z M 85.109375 243.925781 " fill-opacity="1" fill-rule="nonzero"/><path fill="#e9af3d" d="M 324.273438 180.089844 L 342.148438 182.472656 L 351.339844 201.625 L 366.746094 216.265625 L 362.914062 237.117188 L 366.746094 257.96875 L 351.339844 272.605469 L 348.957031 277.628906 L 342.148438 291.757812 L 321.125 294.566406 L 314.316406 298.3125 L 302.484375 304.695312 L 290.65625 298.3125 L 283.847656 294.566406 L 262.824219 291.757812 L 256.015625 277.628906 L 253.632812 272.605469 L 253.546875 272.523438 L 238.226562 257.96875 L 242.054688 237.117188 L 238.226562 216.261719 L 253.632812 201.625 L 262.824219 182.472656 L 283.847656 179.664062 L 302.484375 169.621094 L 321.125 179.75 Z M 346.742188 237.117188 C 346.742188 212.6875 326.914062 192.859375 302.484375 192.859375 C 278.058594 192.859375 258.226562 212.6875 258.226562 237.117188 C 258.226562 261.542969 278.058594 281.375 302.484375 281.375 C 326.914062 281.375 346.742188 261.542969 346.742188 237.117188 Z M 346.742188 237.117188 " fill-opacity="1" fill-rule="nonzero"/><path fill="#e9af3d" d="M 50.898438 180.089844 L 54.046875 179.664062 L 72.683594 169.621094 L 91.324219 179.75 L 112.347656 182.558594 L 121.453125 201.710938 L 136.859375 216.347656 L 133.027344 237.199219 L 136.859375 258.054688 L 121.539062 272.605469 L 121.453125 272.691406 L 119.070312 277.714844 L 112.347656 291.84375 L 91.324219 294.652344 L 84.515625 298.394531 L 72.683594 304.78125 L 60.855469 298.394531 L 54.046875 294.652344 L 33.023438 291.84375 L 26.300781 277.714844 L 23.917969 272.691406 L 8.511719 258.054688 L 12.339844 237.199219 L 8.511719 216.347656 L 23.917969 201.710938 L 33.109375 182.558594 Z M 116.941406 237.117188 C 116.941406 212.6875 97.113281 192.859375 72.683594 192.859375 C 48.257812 192.859375 28.425781 212.6875 28.425781 237.117188 C 28.425781 261.542969 48.257812 281.375 72.683594 281.375 C 97.195312 281.375 116.941406 261.542969 116.941406 237.117188 Z M 116.941406 237.117188 " fill-opacity="1" fill-rule="nonzero"/><path fill="#e9af3d" d="M 236.269531 39.65625 L 236.269531 63.914062 L 207.5 63.914062 L 207.5 39.65625 C 207.5 38.464844 206.992188 37.359375 206.222656 36.507812 C 205.375 35.65625 204.265625 35.148438 203.074219 35.148438 L 172.007812 35.148438 C 170.816406 35.148438 169.710938 35.65625 168.859375 36.507812 C 168.007812 37.359375 167.5 38.464844 167.5 39.65625 L 167.5 63.914062 L 138.730469 63.914062 L 138.730469 39.65625 C 138.730469 30.804688 142.222656 22.464844 148.433594 16.167969 C 154.648438 9.953125 163.074219 6.464844 171.925781 6.464844 L 202.992188 6.464844 C 211.839844 6.464844 220.183594 9.953125 226.394531 16.167969 C 232.777344 22.378906 236.269531 30.804688 236.269531 39.65625 Z M 236.269531 39.65625 " fill-opacity="1" fill-rule="nonzero"/><path fill="#e9af3d" d="M 216.183594 272.777344 L 223.84375 333.035156 L 187.585938 365.207031 L 151.328125 333.035156 L 158.988281 272.777344 L 170.648438 180.6875 L 204.523438 180.6875 Z M 216.183594 272.777344 " fill-opacity="1" fill-rule="nonzero"/><path fill="#e9af3d" d="M 218.90625 149.367188 L 204.523438 180.6875 L 170.648438 180.6875 L 156.265625 149.367188 Z M 218.90625 149.367188 " fill-opacity="1" fill-rule="nonzero"/><path fill="#e9af3d" d="M 156.265625 149.367188 L 170.648438 180.6875 L 158.988281 272.777344 L 121.878906 272.777344 L 121.625 272.523438 L 136.945312 257.96875 L 133.027344 237.117188 L 136.945312 216.261719 L 121.539062 201.625 L 112.433594 182.472656 L 91.324219 179.664062 L 72.683594 169.621094 L 54.046875 179.664062 L 50.898438 180.089844 L 50.898438 149.367188 Z M 156.265625 149.367188 " fill-opacity="1" fill-rule="nonzero"/><path fill="#e9af3d" d="M 324.273438 149.875 L 324.273438 180.089844 L 321.125 179.664062 L 302.484375 169.621094 L 283.847656 179.664062 L 262.738281 182.472656 L 253.632812 201.625 L 238.226562 216.261719 L 242.054688 237.117188 L 238.226562 257.96875 L 253.546875 272.523438 L 253.289062 272.777344 L 216.183594 272.777344 L 204.523438 180.6875 L 218.90625 149.367188 L 324.273438 149.367188 Z M 324.273438 149.875 " fill-opacity="1" fill-rule="nonzero"/><path fill="#e9af3d" d="M 333.378906 82.382812 L 333.378906 149.367188 L 41.789062 149.367188 L 41.789062 82.382812 C 41.789062 72.253906 50.128906 63.914062 60.257812 63.914062 L 314.828125 63.914062 C 325.039062 63.914062 333.378906 72.171875 333.378906 82.382812 Z M 333.378906 82.382812 " fill-opacity="1" fill-rule="nonzero"/><path fill="#9e0105" d="M 324.273438 184.859375 C 321.890625 184.859375 320.019531 182.984375 320.019531 180.601562 L 320.019531 149.792969 C 320.019531 147.410156 321.890625 145.535156 324.273438 145.535156 C 326.65625 145.535156 328.527344 147.410156 328.527344 149.792969 L 328.527344 180.601562 C 328.527344 182.984375 326.65625 184.859375 324.273438 184.859375 Z M 324.273438 184.859375 " fill-opacity="1" fill-rule="nonzero"/><path fill="#9e0105" d="M 253.289062 277.03125 L 216.183594 277.03125 C 213.800781 277.03125 211.925781 275.160156 211.925781 272.777344 C 211.925781 270.394531 213.800781 268.523438 216.183594 268.523438 L 253.375 268.523438 C 255.757812 268.523438 257.632812 270.394531 257.632812 272.777344 C 257.632812 275.160156 255.675781 277.03125 253.289062 277.03125 Z M 253.289062 277.03125 " fill-opacity="1" fill-rule="nonzero"/><path fill="#9e0105" d="M 159.074219 277.03125 L 121.878906 277.03125 C 119.496094 277.03125 117.625 275.160156 117.625 272.777344 C 117.625 270.394531 119.496094 268.523438 121.878906 268.523438 L 158.988281 268.523438 C 161.371094 268.523438 163.242188 270.394531 163.242188 272.777344 C 163.242188 275.160156 161.371094 277.03125 159.074219 277.03125 Z M 159.074219 277.03125 " fill-opacity="1" fill-rule="nonzero"/><path fill="#9e0105" d="M 50.898438 184.859375 C 48.511719 184.859375 46.640625 182.984375 46.640625 180.601562 L 46.640625 149.792969 C 46.640625 147.410156 48.511719 145.535156 50.898438 145.535156 C 53.28125 145.535156 55.152344 147.410156 55.152344 149.792969 L 55.152344 180.601562 C 55.152344 182.984375 53.28125 184.859375 50.898438 184.859375 Z M 50.898438 184.859375 " fill-opacity="1" fill-rule="nonzero"/><path fill="#9e0105" d="M 207.585938 68.171875 C 205.203125 68.171875 203.332031 66.296875 203.332031 63.914062 L 203.332031 39.65625 C 203.332031 39.65625 203.332031 39.574219 203.246094 39.574219 C 203.160156 39.488281 203.160156 39.488281 203.160156 39.488281 L 172.09375 39.488281 C 172.09375 39.488281 172.007812 39.488281 172.007812 39.574219 C 172.007812 39.574219 171.925781 39.65625 171.925781 39.65625 L 171.925781 63.914062 C 171.925781 66.296875 170.050781 68.171875 167.667969 68.171875 C 165.285156 68.171875 163.414062 66.296875 163.414062 63.914062 L 163.414062 39.65625 C 163.414062 37.359375 164.351562 35.148438 165.96875 33.53125 C 167.582031 31.914062 169.796875 30.976562 172.09375 30.976562 L 203.160156 30.976562 C 205.457031 30.976562 207.671875 31.914062 209.289062 33.53125 C 210.90625 35.148438 211.839844 37.359375 211.839844 39.65625 L 211.839844 63.914062 C 211.839844 66.210938 209.882812 68.171875 207.585938 68.171875 Z M 207.585938 68.171875 " fill-opacity="1" fill-rule="nonzero"/><g clip-path="url(#47c5680904)"><path fill="#9e0105" d="M 236.269531 68.171875 C 233.886719 68.171875 232.011719 66.296875 232.011719 63.914062 L 232.011719 39.65625 C 232.011719 31.914062 229.035156 24.679688 223.503906 19.230469 C 218.054688 13.785156 210.734375 10.71875 203.074219 10.71875 L 172.007812 10.71875 C 164.265625 10.71875 157.03125 13.699219 151.582031 19.230469 C 146.136719 24.679688 143.070312 31.996094 143.070312 39.65625 L 143.070312 63.914062 C 143.070312 66.296875 141.199219 68.171875 138.816406 68.171875 C 136.433594 68.171875 134.5625 66.296875 134.5625 63.914062 L 134.5625 39.65625 C 134.5625 29.699219 138.476562 20.253906 145.539062 13.1875 C 152.605469 6.125 162.050781 2.210938 172.007812 2.210938 L 203.074219 2.210938 C 213.035156 2.210938 222.480469 6.125 229.546875 13.1875 C 236.609375 20.253906 240.523438 29.699219 240.523438 39.65625 L 240.523438 63.914062 C 240.523438 66.210938 238.652344 68.171875 236.269531 68.171875 Z M 236.269531 68.171875 " fill-opacity="1" fill-rule="nonzero"/></g><path fill="#9e0105" d="M 333.378906 153.621094 L 218.90625 153.621094 C 216.523438 153.621094 214.652344 151.75 214.652344 149.367188 C 214.652344 146.984375 216.523438 145.109375 218.90625 145.109375 L 329.125 145.109375 L 329.125 82.382812 C 329.125 74.554688 322.742188 68.171875 314.910156 68.171875 L 60.34375 68.171875 C 52.511719 68.171875 46.128906 74.554688 46.128906 82.382812 L 46.128906 145.109375 L 156.347656 145.109375 C 158.730469 145.109375 160.605469 146.984375 160.605469 149.367188 C 160.605469 151.75 158.730469 153.621094 156.347656 153.621094 L 41.789062 153.621094 C 39.40625 153.621094 37.535156 151.75 37.535156 149.367188 L 37.535156 82.382812 C 37.535156 69.871094 47.746094 59.660156 60.257812 59.660156 L 314.828125 59.660156 C 327.335938 59.660156 337.550781 69.871094 337.550781 82.382812 L 337.550781 149.367188 C 337.636719 151.664062 335.679688 153.621094 333.378906 153.621094 Z M 333.378906 153.621094 " fill-opacity="1" fill-rule="nonzero"/><path fill="#9e0105" d="M 170.648438 184.941406 C 169.03125 184.941406 167.5 184.007812 166.816406 182.472656 L 152.433594 151.152344 C 151.839844 149.875 151.921875 148.261719 152.691406 147.066406 C 153.457031 145.875 154.816406 145.109375 156.265625 145.109375 L 218.90625 145.109375 C 220.351562 145.109375 221.714844 145.875 222.480469 147.066406 C 223.246094 148.261719 223.332031 149.792969 222.734375 151.152344 L 208.351562 182.390625 C 207.332031 184.515625 204.863281 185.453125 202.734375 184.515625 C 200.605469 183.496094 199.671875 181.027344 200.605469 178.898438 L 212.265625 153.621094 L 162.902344 153.621094 L 174.5625 178.898438 C 175.585938 181.027344 174.648438 183.582031 172.433594 184.515625 C 171.839844 184.773438 171.242188 184.941406 170.648438 184.941406 Z M 170.648438 184.941406 " fill-opacity="1" fill-rule="nonzero"/><path fill="#9e0105" d="M 159.15625 103.066406 L 93.621094 103.066406 C 91.238281 103.066406 89.367188 101.191406 89.367188 98.808594 C 89.367188 96.425781 91.238281 94.554688 93.621094 94.554688 L 159.15625 94.554688 C 161.542969 94.554688 163.414062 96.425781 163.414062 98.808594 C 163.414062 101.191406 161.457031 103.066406 159.15625 103.066406 Z M 159.15625 103.066406 " fill-opacity="1" fill-rule="nonzero"/><path fill="#9e0105" d="M 281.546875 103.066406 L 216.011719 103.066406 C 213.628906 103.066406 211.757812 101.191406 211.757812 98.808594 C 211.757812 96.425781 213.628906 94.554688 216.011719 94.554688 L 281.546875 94.554688 C 283.929688 94.554688 285.804688 96.425781 285.804688 98.808594 C 285.804688 101.191406 283.929688 103.066406 281.546875 103.066406 Z M 281.546875 103.066406 " fill-opacity="1" fill-rule="nonzero"/><path fill="#9e0105" d="M 187.585938 369.464844 C 186.5625 369.464844 185.542969 369.125 184.777344 368.355469 L 148.519531 336.183594 C 147.496094 335.25 146.902344 333.886719 147.15625 332.441406 L 166.476562 180.089844 C 166.734375 177.964844 168.519531 176.347656 170.734375 176.347656 L 204.523438 176.347656 C 206.648438 176.347656 208.4375 177.964844 208.777344 180.089844 L 228.097656 332.441406 C 228.269531 333.800781 227.757812 335.25 226.734375 336.183594 L 190.480469 368.355469 C 189.628906 369.125 188.605469 369.464844 187.585938 369.464844 Z M 155.839844 331.335938 L 187.585938 359.503906 L 219.332031 331.335938 L 200.777344 184.941406 L 174.476562 184.941406 Z M 155.839844 331.335938 " fill-opacity="1" fill-rule="nonzero"/><path fill="#9e0105" d="M 181.882812 208.773438 C 180.265625 208.773438 178.820312 207.921875 178.050781 206.390625 C 177.03125 204.261719 177.96875 201.710938 180.011719 200.6875 L 191.753906 195.070312 C 193.882812 194.050781 196.4375 194.984375 197.457031 197.027344 C 198.480469 199.15625 197.542969 201.710938 195.5 202.730469 L 183.753906 208.347656 C 183.160156 208.605469 182.5625 208.773438 181.882812 208.773438 Z M 181.882812 208.773438 " fill-opacity="1" fill-rule="nonzero"/><path fill="#9e0105" d="M 187.753906 227.839844 C 186.136719 227.839844 184.691406 226.988281 183.925781 225.457031 C 182.902344 223.328125 183.839844 220.773438 185.882812 219.753906 L 197.628906 214.136719 C 199.757812 213.113281 202.308594 214.050781 203.332031 216.09375 C 204.351562 218.222656 203.414062 220.773438 201.375 221.796875 L 189.628906 227.414062 C 189.03125 227.753906 188.4375 227.839844 187.753906 227.839844 Z M 187.753906 227.839844 " fill-opacity="1" fill-rule="nonzero"/><path fill="#9e0105" d="M 175.160156 245.371094 C 173.542969 245.371094 172.007812 244.519531 171.328125 242.988281 C 170.308594 240.859375 171.242188 238.308594 173.285156 237.285156 L 185.03125 231.667969 C 187.160156 230.648438 189.710938 231.582031 190.734375 233.625 C 191.753906 235.753906 190.820312 238.308594 188.777344 239.328125 L 177.03125 244.945312 C 176.433594 245.203125 175.753906 245.371094 175.160156 245.371094 Z M 175.160156 245.371094 " fill-opacity="1" fill-rule="nonzero"/><path fill="#9e0105" d="M 190.222656 257.203125 C 188.605469 257.203125 187.160156 256.351562 186.394531 254.820312 C 185.371094 252.691406 186.308594 250.136719 188.351562 249.117188 L 200.097656 243.5 C 202.222656 242.476562 204.777344 243.414062 205.800781 245.457031 C 206.820312 247.585938 205.882812 250.136719 203.839844 251.160156 L 192.097656 256.777344 C 191.5 257.03125 190.820312 257.203125 190.222656 257.203125 Z M 190.222656 257.203125 " fill-opacity="1" fill-rule="nonzero"/><path fill="#9e0105" d="M 171.585938 273.375 C 169.96875 273.375 168.519531 272.523438 167.753906 270.988281 C 166.734375 268.863281 167.667969 266.308594 169.710938 265.289062 L 181.457031 259.671875 C 183.585938 258.648438 186.136719 259.585938 187.160156 261.628906 C 188.179688 263.753906 187.246094 266.308594 185.203125 267.332031 L 173.457031 272.949219 C 172.859375 273.203125 172.265625 273.375 171.585938 273.375 Z M 171.585938 273.375 " fill-opacity="1" fill-rule="nonzero"/><path fill="#9e0105" d="M 187.328125 283.84375 C 185.710938 283.84375 184.265625 282.992188 183.5 281.457031 C 182.476562 279.332031 183.414062 276.777344 185.457031 275.757812 L 197.203125 270.140625 C 199.332031 269.117188 201.882812 270.054688 202.90625 272.097656 C 203.925781 274.222656 202.992188 276.777344 200.949219 277.800781 L 189.203125 283.417969 C 188.519531 283.757812 187.925781 283.84375 187.328125 283.84375 Z M 187.328125 283.84375 " fill-opacity="1" fill-rule="nonzero"/><path fill="#9e0105" d="M 170.902344 302.652344 C 169.285156 302.652344 167.753906 301.800781 167.074219 300.269531 C 166.050781 298.140625 166.988281 295.585938 169.03125 294.566406 L 180.777344 288.949219 C 182.902344 287.925781 185.457031 288.863281 186.480469 290.90625 C 187.5 293.035156 186.5625 295.585938 184.519531 296.609375 L 172.777344 302.226562 C 172.179688 302.566406 171.585938 302.652344 170.902344 302.652344 Z M 170.902344 302.652344 " fill-opacity="1" fill-rule="nonzero"/><path fill="#9e0105" d="M 192.863281 310.226562 C 191.246094 310.226562 189.710938 309.375 189.03125 307.84375 C 188.011719 305.714844 188.945312 303.164062 190.988281 302.140625 L 202.734375 296.523438 C 204.863281 295.503906 207.414062 296.4375 208.4375 298.480469 C 209.457031 300.609375 208.523438 303.164062 206.480469 304.183594 L 194.734375 309.800781 C 194.136719 310.054688 193.457031 310.226562 192.863281 310.226562 Z M 192.863281 310.226562 " fill-opacity="1" fill-rule="nonzero"/><path fill="#9e0105" d="M 169.03125 328.867188 C 167.414062 328.867188 165.882812 328.015625 165.199219 326.484375 C 164.179688 324.355469 165.117188 321.800781 167.160156 320.78125 L 178.902344 315.164062 C 181.03125 314.140625 183.585938 315.078125 184.605469 317.121094 C 185.628906 319.25 184.691406 321.800781 182.648438 322.824219 L 170.902344 328.441406 C 170.308594 328.78125 169.710938 328.867188 169.03125 328.867188 Z M 169.03125 328.867188 " fill-opacity="1" fill-rule="nonzero"/><path fill="#9e0105" d="M 187.246094 338.484375 C 185.628906 338.484375 184.09375 337.632812 183.414062 336.101562 C 182.394531 333.972656 183.328125 331.417969 185.371094 330.398438 L 197.117188 324.78125 C 199.246094 323.757812 201.796875 324.695312 202.820312 326.738281 C 203.839844 328.867188 202.90625 331.417969 200.863281 332.441406 L 189.117188 338.058594 C 188.4375 338.3125 187.839844 338.484375 187.246094 338.484375 Z M 187.246094 338.484375 " fill-opacity="1" fill-rule="nonzero"/><path fill="#9e0105" d="M 72.683594 308.863281 C 72.003906 308.863281 71.324219 308.695312 70.640625 308.355469 L 52.683594 298.652344 L 32.425781 296.011719 C 30.980469 295.84375 29.789062 294.90625 29.109375 293.628906 L 22.300781 279.5 C 22.300781 279.417969 22.214844 279.417969 22.214844 279.332031 L 20.257812 275.246094 L 5.445312 261.203125 C 4.425781 260.179688 3.914062 258.734375 4.171875 257.371094 L 7.914062 237.285156 L 4.171875 217.199219 C 3.914062 215.753906 4.339844 214.304688 5.445312 213.371094 L 20.257812 199.328125 L 29.191406 180.6875 C 29.789062 179.410156 31.066406 178.472656 32.511719 178.304688 L 52.769531 175.582031 L 70.726562 165.878906 C 72.003906 165.195312 73.535156 165.195312 74.8125 165.878906 L 92.769531 175.582031 L 113.027344 178.304688 C 114.472656 178.472656 115.667969 179.410156 116.347656 180.6875 L 125.113281 199.15625 L 139.921875 213.199219 C 140.945312 214.222656 141.453125 215.667969 141.199219 217.03125 L 137.453125 237.117188 L 141.199219 257.203125 C 141.453125 258.648438 141.027344 260.097656 139.921875 261.03125 L 125.027344 275.160156 L 116.261719 293.628906 C 115.667969 294.90625 114.390625 295.84375 112.941406 296.011719 L 92.6875 298.652344 L 74.726562 308.355469 C 74.132812 308.695312 73.367188 308.863281 72.683594 308.863281 Z M 35.832031 287.84375 L 54.554688 290.308594 C 55.066406 290.394531 55.578125 290.566406 56.003906 290.820312 L 72.683594 299.84375 L 89.28125 290.820312 C 89.707031 290.566406 90.21875 290.394531 90.730469 290.308594 L 109.453125 287.84375 L 117.625 270.820312 C 117.792969 270.394531 118.132812 269.96875 118.476562 269.628906 C 118.476562 269.628906 118.558594 269.542969 118.644531 269.457031 L 132.261719 256.519531 L 128.859375 237.882812 C 128.773438 237.371094 128.773438 236.859375 128.859375 236.351562 L 132.261719 217.710938 L 118.644531 204.6875 C 118.304688 204.347656 117.964844 203.921875 117.707031 203.410156 L 109.539062 186.390625 L 90.8125 183.921875 C 90.304688 183.835938 89.792969 183.667969 89.367188 183.410156 L 72.683594 174.390625 L 56.089844 183.410156 C 55.664062 183.667969 55.152344 183.835938 54.640625 183.921875 L 35.917969 186.390625 L 27.746094 203.410156 C 27.492188 203.921875 27.234375 204.261719 26.808594 204.6875 L 13.105469 217.710938 L 16.511719 236.351562 C 16.597656 236.859375 16.597656 237.371094 16.511719 237.882812 L 13.105469 256.519531 L 26.808594 269.542969 C 27.152344 269.882812 27.492188 270.308594 27.746094 270.820312 L 30.128906 275.839844 C 30.128906 275.925781 30.214844 275.925781 30.214844 276.011719 Z M 35.832031 287.84375 " fill-opacity="1" fill-rule="nonzero"/><path fill="#9e0105" d="M 72.683594 285.628906 C 45.960938 285.628906 24.171875 263.839844 24.171875 237.117188 C 24.171875 210.390625 45.960938 188.601562 72.683594 188.601562 C 99.410156 188.601562 121.199219 210.390625 121.199219 237.117188 C 121.199219 263.839844 99.496094 285.628906 72.683594 285.628906 Z M 72.683594 197.113281 C 50.640625 197.113281 32.683594 215.070312 32.683594 237.117188 C 32.683594 259.160156 50.640625 277.117188 72.683594 277.117188 C 94.730469 277.117188 112.6875 259.160156 112.6875 237.117188 C 112.6875 215.070312 94.730469 197.113281 72.683594 197.113281 Z M 72.683594 197.113281 " fill-opacity="1" fill-rule="nonzero"/><g clip-path="url(#7dfc8716fa)"><path fill="#9e0105" d="M 42.046875 372.78125 C 40.34375 372.78125 38.8125 371.761719 38.128906 370.144531 L 28.085938 345.804688 L 7.148438 361.890625 C 5.703125 362.996094 3.746094 363.082031 2.214844 362.058594 C 0.679688 361.039062 0 359.164062 0.425781 357.378906 L 22.128906 276.523438 C 22.554688 274.648438 24.257812 273.289062 26.300781 273.289062 C 28.683594 273.289062 30.554688 275.160156 30.554688 277.542969 C 30.554688 277.882812 30.46875 278.308594 30.382812 278.648438 L 11.914062 347.503906 L 27.234375 335.675781 C 28.257812 334.910156 29.617188 334.566406 30.894531 334.910156 C 32.171875 335.25 33.195312 336.183594 33.703125 337.375 L 41.109375 355.25 L 56.683594 297.035156 C 57.28125 294.734375 59.664062 293.460938 61.875 294.054688 C 64.175781 294.652344 65.535156 297.035156 64.855469 299.246094 L 46.128906 369.632812 C 45.621094 371.421875 44.085938 372.699219 42.300781 372.78125 C 42.214844 372.78125 42.128906 372.78125 42.046875 372.78125 Z M 42.046875 372.78125 " fill-opacity="1" fill-rule="nonzero"/></g><g clip-path="url(#4c7c5e11e7)"><path fill="#9e0105" d="M 103.410156 372.78125 C 103.324219 372.78125 103.238281 372.78125 103.15625 372.78125 C 101.367188 372.699219 99.75 371.421875 99.324219 369.632812 L 80.515625 299.332031 C 79.917969 297.035156 81.28125 294.734375 83.492188 294.140625 C 85.792969 293.542969 88.089844 294.90625 88.6875 297.121094 L 104.261719 355.335938 L 111.664062 337.460938 C 112.175781 336.269531 113.199219 335.335938 114.472656 334.992188 C 115.75 334.652344 117.113281 334.910156 118.132812 335.761719 L 133.453125 347.589844 L 114.984375 278.820312 C 114.390625 276.523438 115.75 274.222656 117.964844 273.628906 C 120.261719 273.03125 122.558594 274.394531 123.15625 276.609375 L 144.859375 357.546875 C 145.371094 359.335938 144.605469 361.207031 143.070312 362.230469 C 141.539062 363.25 139.582031 363.164062 138.136719 362.058594 L 117.367188 345.804688 L 107.324219 370.144531 C 106.644531 371.761719 105.113281 372.78125 103.410156 372.78125 Z M 103.410156 372.78125 " fill-opacity="1" fill-rule="nonzero"/></g><path fill="#9e0105" d="M 55.832031 267.414062 C 54.980469 267.414062 54.046875 267.160156 53.363281 266.5625 C 52.003906 265.542969 51.320312 263.839844 51.746094 262.136719 L 55.664062 245.371094 L 42.640625 234.136719 C 41.363281 233.03125 40.851562 231.242188 41.363281 229.625 C 41.875 228.007812 43.320312 226.816406 45.023438 226.730469 L 62.132812 225.285156 L 68.769531 209.453125 C 69.449219 207.835938 70.984375 206.816406 72.683594 206.816406 C 74.386719 206.816406 75.917969 207.835938 76.601562 209.453125 L 83.238281 225.285156 L 100.347656 226.730469 C 102.046875 226.902344 103.496094 228.007812 104.007812 229.625 C 104.515625 231.242188 104.007812 233.03125 102.730469 234.136719 L 89.707031 245.371094 L 93.621094 262.136719 C 94.046875 263.839844 93.367188 265.542969 92.003906 266.5625 C 90.644531 267.585938 88.769531 267.671875 87.324219 266.734375 L 72.683594 257.882812 L 57.960938 266.820312 C 57.363281 267.160156 56.597656 267.414062 55.832031 267.414062 Z M 72.683594 248.605469 C 73.449219 248.605469 74.21875 248.777344 74.898438 249.203125 L 83.152344 254.222656 L 80.941406 244.859375 C 80.601562 243.328125 81.109375 241.710938 82.300781 240.691406 L 89.621094 234.390625 L 80.003906 233.625 C 78.386719 233.457031 77.027344 232.519531 76.429688 231.074219 L 72.683594 222.222656 L 68.941406 231.074219 C 68.34375 232.519531 66.984375 233.542969 65.367188 233.625 L 55.746094 234.390625 L 63.066406 240.691406 C 64.257812 241.710938 64.769531 243.328125 64.429688 244.859375 L 62.214844 254.222656 L 70.472656 249.203125 C 71.152344 248.859375 71.917969 248.605469 72.683594 248.605469 Z M 65.023438 229.285156 Z M 65.023438 229.285156 " fill-opacity="1" fill-rule="nonzero"/><path fill="#9e0105" d="M 256.015625 281.800781 C 254.398438 281.800781 252.867188 280.949219 252.183594 279.417969 L 250.140625 275.160156 L 235.332031 261.117188 C 234.3125 260.097656 233.800781 258.648438 234.054688 257.289062 L 237.800781 237.199219 L 234.054688 217.113281 C 233.800781 215.667969 234.226562 214.222656 235.332031 213.285156 L 250.140625 199.242188 L 258.992188 180.773438 C 259.589844 179.496094 260.867188 178.558594 262.3125 178.390625 L 282.570312 175.664062 L 300.527344 165.964844 C 301.804688 165.28125 303.335938 165.28125 304.613281 165.964844 L 322.570312 175.664062 L 342.828125 178.390625 C 344.273438 178.558594 345.464844 179.496094 346.148438 180.773438 L 355 199.242188 L 369.808594 213.285156 C 370.828125 214.304688 371.339844 215.753906 371.085938 217.113281 L 367.339844 237.199219 L 371.085938 257.289062 C 371.339844 258.734375 370.914062 260.179688 369.808594 261.117188 L 354.828125 275.160156 L 352.785156 279.417969 C 351.765625 281.542969 349.210938 282.394531 347.082031 281.457031 C 344.957031 280.4375 344.105469 277.882812 345.039062 275.757812 L 347.425781 270.734375 C 347.679688 270.308594 347.933594 269.882812 348.359375 269.457031 L 362.0625 256.4375 L 358.660156 237.796875 C 358.574219 237.285156 358.574219 236.777344 358.660156 236.265625 L 362.0625 217.625 L 348.359375 204.601562 C 348.019531 204.261719 347.679688 203.835938 347.425781 203.328125 L 339.253906 186.304688 L 320.527344 183.835938 C 320.019531 183.75 319.507812 183.582031 319.082031 183.324219 L 302.484375 174.390625 L 285.886719 183.410156 C 285.464844 183.667969 284.953125 183.835938 284.441406 183.921875 L 265.71875 186.390625 L 257.546875 203.410156 C 257.292969 203.921875 257.035156 204.261719 256.609375 204.6875 L 242.90625 217.710938 L 246.3125 236.351562 C 246.398438 236.859375 246.398438 237.371094 246.3125 237.882812 L 242.90625 256.519531 L 256.523438 269.457031 C 256.523438 269.457031 256.609375 269.542969 256.609375 269.542969 C 256.949219 269.882812 257.292969 270.308594 257.460938 270.734375 L 259.84375 275.757812 C 260.867188 277.882812 259.929688 280.4375 257.800781 281.457031 C 257.292969 281.714844 256.609375 281.800781 256.015625 281.800781 Z M 256.015625 281.800781 " fill-opacity="1" fill-rule="nonzero"/><path fill="#9e0105" d="M 302.484375 308.863281 C 301.804688 308.863281 301.125 308.695312 300.441406 308.355469 L 282.484375 298.652344 L 262.226562 296.011719 C 260.78125 295.84375 259.589844 294.90625 258.910156 293.628906 L 252.097656 279.5 C 251.078125 277.375 252.015625 274.820312 254.140625 273.800781 C 256.269531 272.777344 258.824219 273.714844 259.84375 275.839844 L 265.632812 287.925781 L 284.355469 290.394531 C 284.867188 290.480469 285.378906 290.652344 285.804688 290.90625 L 302.484375 299.84375 L 319.082031 290.820312 C 319.507812 290.566406 320.019531 290.394531 320.527344 290.308594 L 339.253906 287.84375 L 345.039062 275.757812 C 346.0625 273.628906 348.617188 272.777344 350.742188 273.714844 C 352.871094 274.734375 353.722656 277.289062 352.785156 279.417969 L 346.0625 293.542969 C 345.464844 294.820312 344.191406 295.757812 342.742188 295.929688 L 322.488281 298.566406 L 304.527344 308.355469 C 303.847656 308.695312 303.167969 308.863281 302.484375 308.863281 Z M 302.484375 308.863281 " fill-opacity="1" fill-rule="nonzero"/><path fill="#9e0105" d="M 302.484375 285.628906 C 275.761719 285.628906 253.972656 263.839844 253.972656 237.117188 C 253.972656 210.390625 275.761719 188.601562 302.484375 188.601562 C 329.210938 188.601562 351 210.390625 351 237.117188 C 351 263.839844 329.210938 285.628906 302.484375 285.628906 Z M 302.484375 197.113281 C 280.441406 197.113281 262.484375 215.070312 262.484375 237.117188 C 262.484375 259.160156 280.441406 277.117188 302.484375 277.117188 C 324.527344 277.117188 342.488281 259.160156 342.488281 237.117188 C 342.488281 215.070312 324.527344 197.113281 302.484375 197.113281 Z M 302.484375 197.113281 " fill-opacity="1" fill-rule="nonzero"/><g clip-path="url(#95f8532688)"><path fill="#9e0105" d="M 271.761719 372.78125 C 270.058594 372.78125 268.527344 371.761719 267.84375 370.144531 L 257.800781 345.804688 L 236.949219 361.890625 C 235.503906 362.996094 233.546875 363.082031 232.011719 362.058594 C 230.480469 361.039062 229.800781 359.164062 230.226562 357.378906 L 251.929688 276.523438 C 252.355469 274.648438 254.058594 273.289062 256.101562 273.289062 C 258.484375 273.289062 260.355469 275.160156 260.355469 277.542969 C 260.355469 277.882812 260.269531 278.308594 260.183594 278.648438 L 241.714844 347.503906 L 257.035156 335.675781 C 258.058594 334.910156 259.417969 334.566406 260.695312 334.910156 C 261.972656 335.25 262.992188 336.183594 263.503906 337.375 L 270.910156 355.25 L 286.484375 297.035156 C 287.082031 294.734375 289.464844 293.375 291.675781 294.054688 C 293.972656 294.652344 295.335938 297.035156 294.65625 299.246094 L 275.929688 369.632812 C 275.417969 371.421875 273.886719 372.699219 272.101562 372.78125 C 272.015625 372.78125 271.929688 372.78125 271.761719 372.78125 Z M 271.761719 372.78125 " fill-opacity="1" fill-rule="nonzero"/></g><g clip-path="url(#01be36e874)"><path fill="#9e0105" d="M 333.125 372.78125 C 333.039062 372.78125 332.953125 372.78125 332.871094 372.78125 C 331.082031 372.699219 329.464844 371.421875 329.039062 369.632812 L 310.144531 299.332031 C 309.550781 297.035156 310.910156 294.734375 313.125 294.140625 C 315.421875 293.542969 317.71875 294.90625 318.316406 297.121094 L 333.890625 355.335938 L 341.296875 337.460938 C 341.804688 336.269531 342.828125 335.335938 344.105469 334.992188 C 345.382812 334.652344 346.742188 334.910156 347.765625 335.761719 L 363.085938 347.589844 L 344.617188 278.820312 C 344.53125 278.480469 344.445312 278.054688 344.445312 277.714844 C 344.445312 275.332031 346.316406 273.457031 348.699219 273.457031 C 350.742188 273.457031 352.445312 274.90625 352.871094 276.777344 L 374.488281 357.546875 C 375 359.335938 374.234375 361.207031 372.703125 362.230469 C 371.171875 363.25 369.210938 363.164062 367.765625 362.058594 L 347.082031 345.804688 L 337.039062 370.144531 C 336.359375 371.761719 334.828125 372.78125 333.125 372.78125 Z M 333.125 372.78125 " fill-opacity="1" fill-rule="nonzero"/></g><path fill="#9e0105" d="M 285.546875 267.414062 C 284.695312 267.414062 283.761719 267.160156 283.078125 266.5625 C 281.71875 265.542969 281.039062 263.839844 281.460938 262.136719 L 285.378906 245.371094 L 272.355469 234.136719 C 271.078125 233.03125 270.570312 231.242188 271.078125 229.625 C 271.589844 228.007812 273.035156 226.816406 274.738281 226.730469 L 291.847656 225.285156 L 298.484375 209.453125 C 299.164062 207.835938 300.699219 206.816406 302.398438 206.816406 C 304.101562 206.816406 305.632812 207.835938 306.316406 209.453125 L 312.953125 225.285156 L 330.0625 226.730469 C 331.761719 226.902344 333.210938 228.007812 333.722656 229.625 C 334.230469 231.242188 333.722656 233.03125 332.445312 234.136719 L 319.421875 245.371094 L 323.335938 262.136719 C 323.761719 263.839844 323.082031 265.542969 321.71875 266.5625 C 320.359375 267.585938 318.484375 267.671875 317.039062 266.734375 L 302.484375 257.882812 L 287.761719 266.820312 C 287.082031 267.160156 286.3125 267.414062 285.546875 267.414062 Z M 285.546875 234.390625 L 292.867188 240.691406 C 294.058594 241.710938 294.570312 243.328125 294.230469 244.859375 L 292.015625 254.222656 L 300.273438 249.203125 C 301.632812 248.351562 303.335938 248.351562 304.699219 249.203125 L 312.953125 254.222656 L 310.742188 244.859375 C 310.402344 243.328125 310.910156 241.710938 312.101562 240.691406 L 319.421875 234.390625 L 309.804688 233.625 C 308.1875 233.457031 306.824219 232.519531 306.230469 231.074219 L 302.484375 222.222656 L 298.742188 231.074219 C 298.144531 232.519531 296.78125 233.542969 295.164062 233.625 Z M 285.546875 234.390625 " fill-opacity="1" fill-rule="nonzero"/></svg>