<svg xmlns="http://www.w3.org/2000/svg" xmlns:xlink="http://www.w3.org/1999/xlink" width="500" zoomAndPan="magnify" viewBox="0 0 375 374.999991" height="500" preserveAspectRatio="xMidYMid meet" version="1.0"><defs><clipPath id="d04e0d238c"><path d="M 1 206 L 207 206 L 207 373.5 L 1 373.5 Z M 1 206 " clip-rule="nonzero"/></clipPath></defs><path fill="#e7ff00" d="M 178.753906 151 C 182.253906 158.578125 188.375 164.699219 194.789062 166.449219 C 195.660156 166.738281 195.953125 166.738281 196.246094 171.695312 C 196.535156 174.609375 196.535156 177.816406 198.285156 181.023438 C 200.617188 185.394531 204.117188 187.4375 207.03125 189.1875 C 210.238281 191.226562 212.859375 192.390625 214.316406 197.640625 C 216.066406 202.886719 219.566406 206.96875 223.9375 209.007812 C 227.4375 210.464844 230.933594 210.175781 233.847656 209.882812 C 235.015625 209.882812 235.890625 209.589844 236.765625 209.589844 C 239.96875 209.589844 243.175781 212.214844 246.675781 215.421875 C 249.296875 217.460938 251.921875 219.792969 255.128906 221.542969 C 257.753906 223 261.25 223.875 264.457031 223.875 C 267.953125 223.875 271.160156 222.710938 273.785156 220.085938 C 276.117188 218.046875 276.992188 215.421875 277.867188 213.382812 C 278.15625 212.507812 278.742188 211.046875 279.03125 210.757812 C 279.613281 210.175781 281.65625 210.175781 283.113281 209.882812 C 286.609375 209.589844 291.273438 209.300781 294.773438 205.21875 C 296.8125 202.886719 297.398438 199.972656 297.980469 198.222656 C 300.601562 186.855469 303.226562 173.734375 297.398438 162.660156 C 302.0625 159.160156 304.101562 152.746094 302.933594 144.585938 C 302.351562 140.503906 301.1875 135.550781 297.105469 132.050781 C 293.316406 128.84375 288.359375 127.679688 283.695312 128.84375 C 283.113281 128.261719 282.820312 127.679688 282.238281 127.386719 C 281.363281 126.511719 280.488281 125.636719 279.613281 124.472656 C 275.242188 120.097656 267.664062 118.058594 261.832031 119.808594 C 255.710938 121.847656 251.046875 121.558594 246.964844 121.265625 C 246.09375 121.265625 245.21875 121.265625 244.34375 121.265625 C 229.769531 120.972656 225.105469 116.019531 224.8125 115.433594 C 224.230469 114.5625 223.355469 111.355469 223.0625 109.3125 C 221.316406 102.609375 218.398438 89.785156 205.863281 91.824219 C 202.074219 92.40625 199.160156 94.15625 197.121094 95.320312 C 196.535156 95.613281 195.953125 95.90625 195.664062 95.90625 C 194.789062 96.195312 194.203125 95.90625 194.203125 95.90625 C 194.203125 95.90625 193.914062 95.90625 193.914062 95.90625 C 191.871094 95.03125 189.832031 94.449219 185.167969 95.613281 C 181.085938 96.488281 179.046875 98.820312 178.171875 100.570312 C 175.546875 105.234375 177.296875 110.480469 178.753906 115.144531 C 179.339844 117.183594 180.503906 120.683594 180.210938 121.847656 C 174.964844 130.886719 174.671875 141.378906 178.753906 151 Z M 189.539062 111.355469 C 189.25 109.898438 188.375 107.855469 188.375 106.691406 C 188.957031 106.691406 189.25 106.691406 189.25 106.691406 L 189.539062 106.691406 C 191.289062 107.566406 193.621094 108.148438 197.703125 107.273438 C 199.742188 106.980469 201.199219 106.105469 202.65625 105.234375 C 204.117188 104.359375 205.574219 103.484375 207.613281 103.191406 C 209.070312 102.902344 209.945312 104.941406 211.695312 111.9375 C 212.570312 116.019531 213.734375 119.808594 216.066406 122.722656 C 218.398438 125.636719 225.976562 132.34375 244.34375 132.925781 C 244.925781 132.925781 245.800781 132.925781 246.675781 132.925781 C 251.339844 133.21875 257.460938 133.507812 265.621094 130.886719 C 267.371094 130.300781 270.578125 131.175781 271.746094 132.34375 C 272.617188 133.21875 273.203125 134.089844 274.078125 134.964844 C 275.535156 136.421875 276.992188 138.171875 279.03125 139.921875 C 281.074219 141.671875 284.277344 141.960938 286.320312 140.214844 C 287.195312 139.628906 288.941406 139.628906 289.816406 140.503906 C 290.984375 141.671875 291.566406 144.292969 291.859375 146.335938 C 292.441406 150.125 291.859375 152.746094 290.984375 153.332031 L 290.402344 153.621094 C 288.941406 154.496094 285.445312 156.246094 284.863281 160.328125 C 284.277344 163.535156 286.027344 165.574219 286.609375 167.03125 C 291.566406 174.609375 289.527344 185.394531 287.195312 195.890625 C 286.902344 196.472656 286.609375 197.929688 286.609375 198.222656 C 286.027344 198.515625 283.988281 198.804688 282.820312 198.804688 C 279.613281 199.097656 275.535156 199.386719 272.328125 202.304688 C 269.703125 204.636719 268.539062 207.257812 267.664062 209.589844 C 267.371094 210.757812 266.789062 211.921875 266.207031 212.214844 C 265.621094 212.796875 263.582031 212.796875 261.25 211.632812 C 259.210938 210.464844 257.167969 208.714844 254.835938 206.96875 C 250.171875 203.179688 244.925781 198.515625 237.636719 198.515625 C 237.347656 198.515625 237.347656 198.515625 237.054688 198.515625 C 235.597656 198.515625 234.140625 198.804688 232.972656 198.804688 C 231.515625 199.097656 230.058594 199.097656 229.476562 198.804688 C 228.019531 198.222656 226.851562 196.472656 226.269531 194.433594 C 223.355469 184.8125 217.523438 181.605469 213.445312 179.273438 C 211.113281 177.816406 209.945312 177.234375 209.070312 175.777344 C 208.488281 174.902344 208.488281 172.863281 208.488281 171.113281 C 208.195312 166.449219 207.613281 157.996094 198.578125 155.371094 C 195.953125 154.496094 192.164062 151.582031 189.832031 146.335938 C 188.375 142.835938 186.332031 135.550781 190.707031 126.804688 C 192.746094 121.847656 190.996094 116.308594 189.539062 111.355469 Z M 189.539062 111.355469 " fill-opacity="1" fill-rule="nonzero"/><path fill="#e7ff00" d="M 188.664062 300.25 C 183.417969 299.082031 178.464844 297.917969 173.507812 296.460938 L 176.714844 309.578125 C 189.832031 313.074219 203.53125 315.117188 217.523438 315.117188 C 304.394531 315.117188 374.9375 244.570312 374.9375 157.703125 C 374.9375 131.757812 368.523438 106.980469 357.15625 85.410156 C 354.53125 89.78125 352.199219 93.574219 349.867188 97.070312 C 353.367188 104.941406 356.28125 113.101562 358.613281 121.558594 C 358.03125 121.265625 357.445312 120.683594 356.863281 120.390625 C 352.199219 117.476562 345.785156 113.101562 338.789062 116.601562 C 335.292969 118.351562 333.542969 120.972656 331.792969 123.304688 C 331.210938 124.472656 330.335938 125.347656 329.753906 125.929688 C 327.714844 127.679688 323.050781 126.804688 320.71875 124.179688 C 317.21875 120.683594 316.054688 114.851562 315.179688 109.898438 C 314.304688 105.234375 313.429688 99.984375 309.929688 95.320312 C 307.015625 91.242188 302.0625 89.492188 297.6875 88.035156 C 295.941406 87.449219 293.023438 86.285156 292.441406 85.703125 C 291.566406 84.828125 291.566406 81.914062 291.273438 79.871094 C 290.984375 75.789062 290.402344 71.125 286.609375 67.921875 C 280.78125 63.546875 272.328125 62.964844 263.875 66.753906 C 260.957031 67.921875 258.625 69.378906 256.003906 70.835938 C 253.378906 72.292969 250.757812 73.75 248.425781 74.625 C 244.925781 75.789062 240.261719 76.082031 238.222656 74.042969 C 237.347656 73.167969 236.765625 70.835938 236.179688 69.085938 C 234.722656 64.714844 232.390625 58.007812 225.105469 57.132812 C 216.648438 56.261719 216.359375 53.636719 214.902344 47.804688 C 213.734375 42.269531 211.984375 34.980469 203.53125 30.316406 C 198.285156 27.402344 192.164062 27.402344 186.625 27.402344 C 175.839844 27.402344 173.800781 26.527344 173.507812 19.53125 C 187.207031 13.992188 202.074219 11.660156 217.523438 11.660156 C 242.011719 11.660156 264.75 17.78125 285.152344 28.277344 C 285.738281 24.195312 286.609375 20.40625 288.359375 16.90625 C 266.789062 6.121094 242.886719 0 217.523438 0 C 130.65625 0 60.113281 70.542969 60.113281 157.410156 C 60.113281 181.605469 65.652344 204.636719 75.5625 225.039062 L 84.308594 216.296875 C 76.144531 198.222656 71.773438 178.398438 71.773438 157.410156 C 71.773438 127.679688 80.808594 99.695312 96.257812 76.664062 C 101.214844 77.25 104.421875 81.621094 108.503906 88.035156 C 112.292969 94.15625 116.957031 101.441406 125.117188 100.570312 C 130.363281 99.984375 136.777344 100.859375 140.859375 111.644531 C 141.152344 112.519531 140.566406 114.851562 139.984375 116.308594 L 139.984375 116.894531 C 137.945312 123.890625 139.109375 131.46875 143.191406 137.007812 C 151.644531 140.214844 158.640625 146.335938 163.304688 154.207031 C 165.347656 146.625 162.140625 138.171875 154.558594 132.34375 C 151.0625 129.71875 149.605469 124.765625 151.0625 120.390625 L 151.0625 120.101562 C 151.9375 116.894531 153.394531 112.230469 151.644531 107.855469 C 146.691406 94.738281 136.777344 88.324219 123.953125 89.492188 C 122.785156 89.492188 119.578125 84.535156 118.414062 82.203125 C 114.914062 76.957031 110.835938 69.960938 103.546875 66.753906 C 118.707031 47.515625 138.820312 32.355469 161.847656 22.738281 C 164.179688 37.605469 177.589844 37.894531 186.042969 38.1875 C 190.414062 38.1875 194.789062 38.1875 197.410156 39.644531 C 201.199219 41.683594 202.074219 44.601562 203.242188 49.554688 C 204.699219 56.261719 207.03125 66.171875 223.355469 67.921875 C 223.9375 68.796875 224.519531 70.542969 224.8125 72 C 225.980469 75.207031 227.144531 78.707031 229.769531 81.328125 C 236.179688 87.742188 245.507812 87.453125 252.503906 84.828125 C 256.003906 83.660156 258.917969 81.914062 261.832031 80.164062 C 264.164062 78.996094 266.207031 77.539062 268.539062 76.664062 C 271.746094 75.207031 276.410156 74.332031 279.03125 76.375 C 279.324219 77.25 279.324219 78.996094 279.613281 80.457031 C 279.90625 84.246094 280.488281 88.910156 283.40625 92.699219 C 286.027344 95.90625 290.109375 97.070312 293.898438 98.527344 C 296.523438 99.402344 299.4375 100.570312 300.601562 101.734375 C 302.351562 104.066406 303.226562 107.855469 303.808594 111.355469 C 304.976562 118.351562 306.726562 126.222656 312.554688 132.050781 C 316.34375 135.839844 321.882812 138.171875 327.128906 138.171875 C 330.921875 138.171875 334.710938 137.007812 337.625 134.382812 C 339.375 132.925781 340.539062 131.175781 341.414062 129.71875 C 342.289062 128.554688 343.164062 127.386719 343.746094 126.804688 C 344.914062 126.222656 348.117188 128.261719 350.449219 129.71875 C 353.65625 131.761719 357.445312 134.09375 361.527344 134.675781 C 362.695312 141.960938 363.277344 149.832031 363.277344 157.414062 C 363.277344 196.472656 347.828125 232.039062 322.757812 258.273438 C 319.84375 256.523438 316.34375 255.359375 311.679688 255.359375 L 309.933594 255.359375 C 307.308594 255.359375 304.683594 255.648438 303.519531 254.773438 C 303.226562 254.484375 302.9375 253.898438 302.351562 253.316406 C 300.894531 251.566406 298.855469 248.652344 295.355469 247.777344 C 289.816406 246.320312 285.738281 250.109375 283.988281 251.859375 L 274.367188 260.3125 C 269.414062 264.6875 267.371094 264.6875 266.496094 264.394531 C 265.625 264.101562 264.164062 262.644531 263 261.480469 C 260.375 258.5625 256.296875 254.484375 249.882812 255.359375 C 246.96875 255.941406 244.636719 257.691406 243.46875 258.5625 L 242.304688 259.4375 C 234.140625 265.851562 226.5625 271.683594 218.109375 275.179688 C 216.359375 275.761719 214.320312 276.636719 212.570312 277.21875 C 207.90625 278.679688 202.949219 280.425781 198.578125 283.632812 C 193.328125 287.714844 189.25 293.835938 188.664062 300.25 Z M 205.28125 293.542969 C 208.488281 291.503906 212.277344 290.046875 216.359375 288.589844 C 218.398438 288.003906 220.441406 287.132812 222.480469 286.257812 C 232.683594 282.175781 241.429688 275.472656 249.589844 269.058594 L 250.757812 268.183594 C 251.046875 267.890625 251.632812 267.308594 252.214844 267.308594 C 252.796875 267.601562 253.964844 269.058594 254.835938 269.640625 C 256.878906 271.679688 259.210938 274.011719 262.417969 275.472656 C 271.160156 278.96875 279.03125 271.972656 282.238281 269.347656 L 291.859375 260.894531 C 292.441406 260.605469 292.734375 260.3125 293.023438 260.019531 C 293.316406 260.3125 293.316406 260.3125 293.316406 260.605469 C 293.898438 261.480469 294.773438 262.644531 295.941406 263.519531 C 300.3125 267.601562 306.140625 267.308594 310.515625 267.308594 L 311.972656 267.308594 C 312.554688 267.308594 313.136719 267.308594 313.429688 267.308594 C 287.777344 289.464844 254.253906 303.164062 217.523438 303.164062 C 211.695312 303.164062 206.15625 302.871094 200.324219 302.289062 C 200.035156 299.375 202.367188 295.585938 205.28125 293.542969 Z M 205.28125 293.542969 " fill-opacity="1" fill-rule="nonzero"/><g clip-path="url(#d04e0d238c)"><path fill="#e7ff00" d="M 7.351562 353.300781 L 9.683594 354.761719 C 7.640625 356.21875 6.183594 358.550781 6.183594 361.464844 C 6.183594 366.421875 9.972656 370.210938 14.929688 370.210938 C 19.011719 370.210938 22.507812 367.292969 23.382812 363.214844 L 27.171875 365.546875 C 28.921875 366.710938 31.253906 367.292969 33.292969 367.292969 C 34.167969 367.292969 35.042969 367.292969 35.917969 367.003906 C 39.125 366.128906 41.457031 364.378906 43.207031 361.757812 L 71.191406 316.28125 C 74.6875 310.742188 72.9375 303.457031 67.398438 300.25 L 63.027344 297.625 L 82.558594 270.515625 C 82.851562 270.515625 82.851562 270.515625 83.140625 270.515625 C 86.054688 270.515625 89.261719 269.347656 91.304688 267.015625 L 98.589844 260.019531 L 98.589844 276.636719 C 98.589844 280.136719 99.757812 283.632812 101.796875 286.839844 L 104.710938 290.921875 L 84.597656 349.511719 C 83.722656 352.429688 83.722656 355.632812 85.183594 358.550781 C 86.640625 361.464844 88.972656 363.503906 91.886719 364.378906 L 102.964844 368.167969 C 104.128906 368.460938 105.585938 368.753906 106.753906 368.753906 C 111.707031 368.753906 116.082031 365.835938 117.832031 360.882812 L 129.78125 326.191406 L 131.238281 327.941406 L 131.238281 361.464844 C 131.238281 367.878906 136.488281 373.125 142.898438 373.125 L 154.558594 373.125 C 160.972656 373.125 166.21875 367.878906 166.21875 361.464844 L 166.21875 315.988281 C 166.21875 315.40625 166.21875 315.117188 165.929688 314.53125 L 157.183594 278.96875 L 157.183594 256.523438 L 160.972656 260.019531 C 161.554688 260.605469 162.429688 261.1875 163.304688 261.480469 L 188.957031 269.347656 C 190.125 269.640625 191.289062 269.933594 192.457031 269.933594 C 197.410156 269.933594 201.785156 267.015625 203.53125 262.0625 L 205.574219 256.523438 C 206.738281 253.609375 206.449219 250.402344 204.988281 247.488281 C 203.53125 244.570312 201.199219 242.53125 197.992188 241.65625 L 175.546875 234.660156 L 151.9375 211.339844 C 151.351562 210.757812 150.769531 210.464844 149.894531 210.175781 C 146.980469 208.132812 143.484375 206.96875 139.984375 206.96875 L 116.371094 206.96875 C 109.667969 206.96875 103.546875 210.757812 100.632812 216.585938 L 70.898438 246.027344 C 68.566406 248.359375 67.398438 251.277344 67.398438 254.191406 C 67.398438 257.398438 68.566406 260.3125 70.898438 262.355469 L 72.648438 264.101562 L 53.117188 290.921875 L 47.578125 287.421875 C 44.953125 285.675781 41.75 285.382812 38.832031 285.964844 C 35.625 286.839844 33.292969 288.589844 31.546875 291.210938 L 3.5625 336.6875 C 0.0625 342.515625 1.8125 349.804688 7.351562 353.300781 Z M 106.460938 356.507812 L 95.382812 352.71875 L 112.875 301.996094 L 121.328125 313.949219 Z M 170.300781 245.445312 L 194.203125 252.734375 L 192.164062 258.273438 L 167.96875 250.691406 L 157.183594 240.78125 L 157.183594 233.496094 L 167.96875 244.28125 C 168.84375 244.570312 169.425781 245.15625 170.300781 245.445312 Z M 112.292969 221.25 C 112.875 220.667969 113.457031 219.792969 113.75 219.210938 C 114.625 218.917969 115.5 218.628906 116.371094 218.628906 L 139.984375 218.628906 C 143.191406 218.628906 145.816406 221.25 145.816406 224.457031 L 145.816406 279.84375 C 145.816406 280.425781 145.816406 280.71875 146.105469 281.300781 L 154.851562 316.863281 L 154.851562 361.464844 L 143.191406 361.464844 L 143.191406 325.609375 C 143.191406 324.445312 142.898438 323.277344 142.023438 322.113281 L 111.417969 279.550781 C 110.835938 278.675781 110.25 277.511719 110.25 276.34375 L 110.25 248.070312 L 124.535156 233.785156 C 126.867188 231.453125 126.867188 227.957031 124.535156 225.625 C 122.203125 223.292969 118.703125 223.292969 116.371094 225.625 L 84.015625 257.6875 C 83.140625 257.105469 82.265625 256.816406 81.101562 256.816406 L 78.769531 254.484375 Z M 41.457031 297.625 L 61.277344 310.160156 L 33.292969 355.632812 L 13.472656 343.101562 Z M 41.457031 297.625 " fill-opacity="1" fill-rule="nonzero"/></g><path fill="#e7ff00" d="M 128.03125 145.75 C 112 145.75 98.589844 158.871094 98.589844 174.902344 C 98.589844 190.933594 111.707031 204.050781 128.03125 204.050781 C 144.066406 204.050781 157.476562 190.933594 157.476562 174.902344 C 157.476562 158.871094 144.066406 145.75 128.03125 145.75 Z M 128.03125 192.390625 C 118.414062 192.390625 110.25 184.523438 110.25 174.902344 C 110.25 165.28125 118.121094 157.410156 128.03125 157.410156 C 137.945312 157.410156 145.816406 165.28125 145.816406 174.902344 C 145.816406 184.523438 137.652344 192.390625 128.03125 192.390625 Z M 128.03125 192.390625 " fill-opacity="1" fill-rule="nonzero"/><path fill="#e7ff00" d="M 35.625 340.769531 L 50.785156 315.699219 C 52.535156 313.074219 51.660156 309.285156 48.742188 307.828125 C 45.828125 306.078125 42.332031 306.953125 40.875 309.867188 L 25.714844 334.9375 C 23.964844 337.5625 24.839844 341.351562 27.753906 342.808594 C 28.628906 343.390625 29.796875 343.683594 30.671875 343.683594 C 32.710938 343.683594 34.75 342.515625 35.625 340.769531 Z M 35.625 340.769531 " fill-opacity="1" fill-rule="nonzero"/><path fill="#e7ff00" d="M 296.230469 34.398438 C 296.230469 51.597656 323.339844 91.824219 326.253906 96.488281 C 327.421875 97.945312 329.171875 99.109375 331.210938 99.109375 C 333.25 99.109375 335 98.238281 336.167969 96.488281 C 339.375 91.824219 366.191406 51.597656 366.191406 34.398438 C 366.191406 15.449219 350.449219 0 331.210938 0 C 311.972656 0 296.230469 15.449219 296.230469 34.398438 Z M 354.53125 34.398438 C 354.53125 43.140625 341.707031 66.171875 331.210938 82.496094 C 320.71875 66.171875 307.890625 43.140625 307.890625 34.398438 C 307.890625 21.863281 318.386719 11.660156 331.210938 11.660156 C 344.039062 11.660156 354.53125 21.863281 354.53125 34.398438 Z M 354.53125 34.398438 " fill-opacity="1" fill-rule="nonzero"/><path fill="#e7ff00" d="M 313.136719 34.980469 C 313.136719 44.890625 321.300781 53.054688 331.210938 53.054688 C 341.121094 53.054688 349.285156 44.890625 349.285156 34.980469 C 349.285156 25.070312 341.121094 16.90625 331.210938 16.90625 C 321.300781 16.90625 313.136719 25.070312 313.136719 34.980469 Z M 337.625 34.980469 C 337.625 38.476562 334.710938 41.394531 331.210938 41.394531 C 327.714844 41.394531 324.796875 38.476562 324.796875 34.980469 C 324.796875 31.480469 327.714844 28.566406 331.210938 28.566406 C 334.710938 28.566406 337.625 31.480469 337.625 34.980469 Z M 337.625 34.980469 " fill-opacity="1" fill-rule="nonzero"/></svg>