<?xml version="1.0" encoding="utf-8"?>
<!-- Generator: Adobe Illustrator 25.1.0, SVG Export Plug-In . SVG Version: 6.00 Build 0)  -->
<svg version="1.1" id="Layer_1" xmlns="http://www.w3.org/2000/svg" xmlns:xlink="http://www.w3.org/1999/xlink" x="0px" y="0px"
	 viewBox="0 0 1629.52 1613.12" style="enable-background:new 0 0 1629.52 1613.12;" xml:space="preserve">
<style type="text/css">
	.st0{display:none;fill:url(#SVGID_1_);}
	.st1{fill:url(#SVGID_2_);}
	.st2{fill:url(#SVGID_3_);}
	.st3{fill:url(#SVGID_4_);}
	.st4{fill:url(#SVGID_5_);}
	.st5{fill:url(#SVGID_6_);}
</style>
<radialGradient id="SVGID_1_" cx="814.76" cy="806.5594" r="1000" gradientUnits="userSpaceOnUse">
	<stop  offset="0" style="stop-color:#003831"/>
	<stop  offset="0.7598" style="stop-color:#002622"/>
</radialGradient>
<rect x="-185.24" y="-193.44" class="st0" width="2000" height="2000"/>
<g>
	<linearGradient id="SVGID_2_" gradientUnits="userSpaceOnUse" x1="584.9097" y1="1000.092" x2="1606.5292" y2="1000.092">
		<stop  offset="0" style="stop-color:#8366FF"/>
		<stop  offset="1" style="stop-color:#A58FFF"/>
	</linearGradient>
	<path class="st1" d="M1581.77,1550.96c-13.51-0.11-27.03-0.02-41.79-0.02c0-7.27,0-12.56,0-17.86
		c-0.01-157.16-0.11-314.32,0.16-471.47c0.02-12.86-4.25-21.55-14.74-29.14c-62.01-44.8-123.48-90.35-185.57-135.03
		c-9.56-6.88-12.93-13.99-12.71-25.54c0.73-37.21,0.12-74.44,0.34-111.66c0.07-12.59-5.34-20.03-17.55-23.42
		c-23.09-6.42-45.94-13.75-69.1-19.9c-8.69-2.31-11.94-6.13-11.68-15.33c0.65-23.56,0.22-47.14,0.22-70.72c0-7.66,0-15.32,0-23.96
		c7.44,0,12.75,0,18.07,0c86.44,0.01,172.88,0.05,259.31,0c19.49-0.01,26.02-6.62,26.04-26.12c0.05-47.56,0.03-95.12,0.01-142.69
		c-0.01-22.57-5.8-28.26-28.87-28.27c-95.12-0.02-190.24-0.02-285.37-0.01c-23.64,0-28.91,5.33-28.91,29.39
		c-0.02,81.89-0.01,163.78-0.01,245.67c0,4.82,0,9.63,0,16.68c-29.83-8.67-56.68-16.84-83.79-24.08c-6.4-1.71-14.1-1.84-20.44-0.03
		c-67.55,19.33-134.95,39.15-202.36,58.94c-15.9,4.67-19.49,9.76-19.51,26.93c-0.05,37.64-0.3,75.28,0.19,112.9
		c0.11,8.9-2.92,14.23-10.01,19.36c-61.62,44.63-122.74,89.96-184.61,134.25c-12.86,9.21-17.96,19.24-17.9,35.01
		c0.5,147.64,0.31,295.29,0.31,442.93c0,10.75-0.35,21.52,0.11,32.25c0.33,7.87-2.2,11.26-10.54,10.88
		c-11.97-0.54-23.99-0.39-35.97,0c-12.34,0.41-19.93,7.85-20.21,18.96c-0.29,11.57,7.61,19.56,20.31,20.34
		c4.12,0.25,8.26,0.08,12.4,0.08c170.8,0.01,341.61,0.01,512.41,0.01c150.54,0,301.08,0,451.62-0.04c15.6,0,24.83-7.5,24.86-19.76
		C1606.57,1558.1,1597.79,1551.09,1581.77,1550.96z M1230.1,449.87c4.69-0.21,8.7-0.53,12.71-0.54
		c78.99-0.03,157.97,0.21,236.96-0.27c11.1-0.07,14.04,3.15,13.79,13.98c-0.71,30.17-0.22,60.37-0.27,90.56
		c-0.01,4.03-0.34,8.07-0.56,13c-87.9,0-174.92,0-262.63,0C1230.1,527.54,1230.1,489.29,1230.1,449.87z M863.09,1550.07
		c-4.43,0.26-8.41,0.69-12.38,0.69c-48.79,0.08-97.59-0.16-146.38,0.35c-10.16,0.11-13.45-2.61-13.43-13.1
		c0.3-154.65,0.13-309.31,0.49-463.96c0.01-5.25,2.83-12.47,6.82-15.44c52.41-39,105.25-77.4,158.02-115.92
		c1.56-1.14,3.39-1.91,6.87-3.83C863.09,1143.65,863.09,1346.18,863.09,1550.07z M1064.31,1550.99c-25.18-0.58-50.37-0.2-75.56-0.2
		c-24.78,0.01-49.56-0.26-74.32,0.17c-8.38,0.14-11.67-2.14-11.57-11.09c0.42-37.16,0.36-74.33,0.04-111.49
		c-0.07-8,2.45-10.86,10.59-10.82c50.79,0.27,101.58,0.29,152.37,0c8.52-0.05,10.36,3.49,10.3,11.12
		c-0.27,36.75-0.36,73.5,0.06,110.25C1076.33,1548.03,1073.7,1551.2,1064.31,1550.99z M903.04,1356c0-33.08-0.04-66.15,0.05-99.23
		c0.01-5.11-1.53-11.3,7.21-11.28c54.53,0.09,109.06,0.04,164.68,0.04c0,44.06,0,87.21,0,131.85c-57.26,0-113.72,0-171.93,0
		C903.04,1369.79,903.04,1362.9,903.04,1356z M1076.2,1187.12c0.01,5.69,0,11.37,0,18.89c-34.07,0-65.82,0-97.57,0
		c-21.89,0-43.78,0.25-65.66-0.29c-3.32-0.08-9.38-3.78-9.41-5.87c-0.56-41.62-0.42-83.24-0.42-125.91
		c5.11-0.34,9.12-0.84,13.12-0.84c49.15-0.05,98.3,0.21,147.44-0.24c9.86-0.09,12.68,2.98,12.55,12.67
		C1075.78,1119.38,1076.16,1153.25,1076.2,1187.12z M1277.86,1550.96c-50.84-0.29-101.68,0.06-152.52-0.36
		c-3.28-0.03-9.34-4.65-9.37-7.21c-0.59-41.27-0.42-82.54-0.42-124.75c57.49,0,113.89,0,171.12,0c0.43,2.95,1.17,5.66,1.18,8.37
		c0.08,37.62-0.1,75.23,0.18,112.84C1288.08,1547.43,1286.51,1551,1277.86,1550.96z M1116.13,1205.02c0-44.05,0-87.24,0-131.28
		c57.24,0,113.67,0,170.94,0c0,43.95,0,87.12,0,131.28C1230.43,1205.02,1174.06,1205.02,1116.13,1205.02z M1287,1246.25
		c0,43.67,0,86.78,0,130.87c-56.63,0-112.98,0-170.75,0c0-43.88,0-86.99,0-130.87C1173.4,1246.25,1229.75,1246.25,1287,1246.25z
		 M1287.78,1027.4c0,1.2-0.39,2.4-0.88,5.28c-127.81,0-254.97,0-383.86,0c0-5.2,0-9.62,0-14.03c0-77.76,0.23-155.51-0.27-233.27
		c-0.07-10.78,3.55-14.89,13.53-17.72c56.86-16.12,113.49-33.04,170.31-49.33c5.26-1.51,11.64-1.96,16.8-0.48
		c58,16.65,115.84,33.84,173.78,50.69c6.41,1.86,10.93,3.48,10.89,11.95C1287.75,862.78,1287.84,945.09,1287.78,1027.4z
		 M1485.32,1551.07c-47.94-0.64-95.9-0.53-143.85-0.06c-10.29,0.1-14.35-1.86-14.33-13.43c0.37-195.53,0.26-391.06,0.3-586.59
		c0-3.52,0.49-7.04,0.9-12.53c4.81,3.22,8.17,5.3,11.35,7.62c50.4,36.81,100.67,73.81,151.27,110.34c7.25,5.23,9.63,10.9,9.62,19.59
		c-0.23,153.36-0.31,306.73,0.11,460.09C1500.73,1548.33,1497.04,1551.22,1485.32,1551.07z"/>
	<linearGradient id="SVGID_3_" gradientUnits="userSpaceOnUse" x1="22.9908" y1="548.241" x2="1076.0913" y2="548.241">
		<stop  offset="0" style="stop-color:#8366FF"/>
		<stop  offset="1" style="stop-color:#A58FFF"/>
	</linearGradient>
	<path class="st2" d="M623.06,1029.53c-147.38,18.59-279.92-17.47-392.19-116.33C118.71,814.45,62.85,688.43,65.14,538.89
		C69.2,272.53,290.97,55.4,563.45,62.69c133.59,3.57,248.24,54.34,339.5,151.98c118.14,126.39,155.21,276.62,121.49,447.03
		c11.36-3.26,21.38-6.76,31.69-8.92c8.29-1.74,11.25-6.27,12.54-14.2c8.57-52.6,9.82-105.22,3.14-158.16
		C1035.05,188.68,759.48-19.15,468.82,29.96C269.08,63.7,128.44,178.02,58.58,367.64c-70.12,190.32-35.74,368.39,95.17,523.6
		c98.03,116.23,226.81,175.31,378.79,182.15c28.62,1.29,57.42-1.49,85.44-2.37C619.91,1055.31,621.44,1042.8,623.06,1029.53z"/>
	<linearGradient id="SVGID_4_" gradientUnits="userSpaceOnUse" x1="336.5637" y1="548.5378" x2="764.8219" y2="548.5378">
		<stop  offset="0" style="stop-color:#8366FF"/>
		<stop  offset="1" style="stop-color:#A58FFF"/>
	</linearGradient>
	<path class="st3" d="M541.39,228.9c-112.21,4.13-203.75,98.24-204.82,210.5c-0.38,31.58,8.64,61.29,19.04,90.5
		c38.83,109.03,92.77,210.94,149,311.64c20.38,36.5,72.34,35.31,92.91-1.21c19.25-34.19,37.79-68.8,55.74-103.69
		c37.43-72.78,73.48-146.23,98.36-224.52c9.18-28.87,15.24-58.04,12.55-88.92C754.4,310.75,656.14,224.67,541.39,228.9z
		 M712.61,503.86c-26.87,82.87-66.29,160.23-106.26,237.29c-13.32,25.67-27.19,51.06-41.09,76.43c-7.77,14.18-20.79,14.7-28.46,0.69
		c-55-100.43-108.53-201.52-147.01-309.86c-19.24-54.17-18.71-106.05,11.69-156.03c40.35-66.32,119.71-98.18,194.14-78.1
		c75.56,20.38,127.88,87.07,130.07,175.9C722.97,461.56,719.31,483.21,712.61,503.86z"/>
	<linearGradient id="SVGID_5_" gradientUnits="userSpaceOnUse" x1="461.8997" y1="443.1207" x2="639.3681" y2="443.1207">
		<stop  offset="0" style="stop-color:#8366FF"/>
		<stop  offset="1" style="stop-color:#A58FFF"/>
	</linearGradient>
	<path class="st4" d="M550.55,354.62c-48.81,0.1-88.24,39.27-88.64,88.05c-0.41,48.82,39.77,88.98,88.98,88.95
		c48.92-0.04,88.35-39.26,88.48-88.03C639.5,394.12,599.97,354.52,550.55,354.62z M550.38,492.03c-27.12-0.16-48.88-22-48.74-48.94
		c0.14-27.52,22.5-49.35,50.1-48.92c26.85,0.42,48.59,22.8,48.17,49.6C599.49,470.66,577.4,492.19,550.38,492.03z"/>
	<linearGradient id="SVGID_6_" gradientUnits="userSpaceOnUse" x1="989.6939" y1="885.7932" x2="1216.9164" y2="885.7932">
		<stop  offset="0" style="stop-color:#8366FF"/>
		<stop  offset="1" style="stop-color:#A58FFF"/>
	</linearGradient>
	<path class="st5" d="M1181.27,935.97c-0.35-0.32-0.65-0.62-0.94-0.94c-0.05-0.07-0.1-0.12-0.15-0.2
		c-3.23-4.54-2.41-8.86,0.82-15.16c6.78-13.3,10.85-26.55,12.11-39.63c0.17-1.99,0.32-4,0.37-5.98c0.67-20.95-5.93-41.4-20.1-60.8
		c-24.3-33.26-58.2-46.81-98.95-40.08c-17.89,2.95-33.85,10.5-46.91,21.29c-18.32,14.54-31.49,35.44-35.89,60.16
		c-7.25,40.68,5.83,74.75,38.79,99.47c19.28,14.44,39.68,21.32,60.7,20.87c2.51-0.05,5.01-0.2,7.54-0.47
		c12.53-1.27,25.24-5.11,38.05-11.42c6.33-3.1,10.65-3.87,15.11-0.65c0,0,0,0,0.02,0c0.47,0.4,0.94,0.87,1.44,1.41
		c8.93,9.75,18.27,19.13,27.65,28.44c9.58,9.48,21.49,10.35,29.68,2.48c1.79-1.71,3.18-3.57,4.17-5.56c0.2-0.4,0.4-0.77,0.55-1.17
		c0.22-0.45,0.4-0.92,0.55-1.39c2.56-7.15,0.35-15.51-6.55-22.66C1200.15,954.49,1190.9,945.03,1181.27,935.97z M1129.92,920.71
		c-0.05,0.05-0.1,0.1-0.15,0.12c-10.65,8.31-24.1,13.2-38.67,13c-33.98-0.45-61.05-28.17-60.63-62.07
		c0.25-19.51,9.8-36.93,24.32-48.02c10.15-7.42,22.61-11.79,35.99-11.79c33.9,0.02,61.27,27.45,61.27,61.45
		C1152.06,892.39,1143.44,909.42,1129.92,920.71z"/>
</g>
<g>
</g>
<g>
</g>
<g>
</g>
<g>
</g>
<g>
</g>
<g>
</g>
</svg>
