<svg xmlns="http://www.w3.org/2000/svg" xmlns:xlink="http://www.w3.org/1999/xlink" width="500" zoomAndPan="magnify" viewBox="0 0 375 374.999991" height="500" preserveAspectRatio="xMidYMid meet" version="1.0"><path fill="#9e0105" d="M 316.40625 375 L 58.59375 375 C 26.367188 375 0 348.632812 0 316.40625 L 0 58.59375 C 0 26.367188 26.367188 0 58.59375 0 L 316.40625 0 C 348.632812 0 375 26.367188 375 58.59375 L 375 316.40625 C 375 348.632812 348.632812 375 316.40625 375 Z M 316.40625 375 " fill-opacity="1" fill-rule="nonzero"/><path fill="#fffffe" d="M 109.128906 190.210938 C 108.105469 190.210938 107.078125 189.769531 106.421875 188.890625 C 105.25 187.425781 105.46875 185.230469 107.007812 184.058594 C 115.210938 177.613281 124.292969 172.632812 134.105469 169.410156 C 140.332031 167.285156 146.851562 165.96875 153.371094 165.308594 C 155.273438 165.085938 156.957031 166.480469 157.179688 168.382812 C 157.398438 170.289062 156.003906 171.972656 154.101562 172.191406 C 148.097656 172.777344 142.089844 174.097656 136.304688 176 C 127.222656 179.003906 118.800781 183.542969 111.253906 189.550781 C 110.667969 189.988281 109.9375 190.210938 109.128906 190.210938 Z M 109.128906 190.210938 " fill-opacity="1" fill-rule="nonzero"/><path fill="#fffffe" d="M 162.378906 101.878906 C 144.285156 101.878906 126.78125 95.363281 113.011719 83.570312 C 111.546875 82.324219 111.402344 80.128906 112.644531 78.664062 C 113.890625 77.199219 116.089844 77.050781 117.554688 78.296875 C 130.003906 88.988281 145.972656 94.921875 162.378906 94.921875 C 178.785156 94.921875 194.75 88.988281 207.203125 78.296875 C 208.667969 77.050781 210.863281 77.199219 212.109375 78.664062 C 213.355469 80.128906 213.207031 82.324219 211.742188 83.570312 C 197.972656 95.359375 180.46875 101.878906 162.378906 101.878906 Z M 162.378906 101.878906 " fill-opacity="1" fill-rule="nonzero"/><path fill="#fffffe" d="M 153.734375 213.132812 C 153.589844 213.132812 153.441406 213.132812 153.296875 213.132812 C 135.425781 211.011719 118.871094 202.441406 106.566406 189.109375 C 93.457031 174.828125 86.207031 156.296875 86.207031 136.816406 C 86.207031 114.257812 95.945312 92.945312 113.011719 78.296875 C 126.78125 66.503906 144.285156 59.984375 162.378906 59.984375 C 180.46875 59.984375 197.972656 66.503906 211.742188 78.296875 C 228.808594 92.945312 238.550781 114.257812 238.550781 136.816406 C 238.550781 138.722656 237.011719 140.257812 235.105469 140.257812 L 157.179688 140.257812 L 157.179688 209.691406 C 157.179688 210.71875 156.738281 211.597656 156.003906 212.253906 C 155.417969 212.839844 154.613281 213.132812 153.734375 213.132812 Z M 162.378906 66.941406 C 145.972656 66.941406 130.003906 72.875 117.554688 83.570312 C 102.027344 96.898438 93.164062 116.308594 93.164062 136.816406 C 93.164062 154.539062 99.753906 171.460938 111.695312 184.421875 C 121.949219 195.554688 135.570312 203.027344 150.292969 205.664062 L 150.292969 136.816406 C 150.292969 134.910156 151.832031 133.375 153.734375 133.375 L 231.519531 133.375 C 230.566406 114.109375 221.851562 96.09375 207.203125 83.570312 C 194.75 72.800781 178.855469 66.941406 162.378906 66.941406 Z M 162.378906 66.941406 " fill-opacity="1" fill-rule="nonzero"/><path fill="#fffffe" d="M 153.734375 140.332031 L 89.722656 140.332031 C 87.816406 140.332031 86.277344 138.792969 86.277344 136.890625 C 86.277344 134.984375 87.816406 133.445312 89.722656 133.445312 L 153.734375 133.445312 C 155.640625 133.445312 157.175781 134.984375 157.175781 136.890625 C 157.179688 138.71875 155.640625 140.332031 153.734375 140.332031 Z M 153.734375 140.332031 " fill-opacity="1" fill-rule="nonzero"/><path fill="#fffffe" d="M 153.734375 210.789062 C 153.074219 210.789062 152.34375 210.570312 151.757812 210.203125 C 143.113281 204.34375 136.011719 191.308594 131.835938 173.511719 C 129.199219 162.378906 127.808594 149.707031 127.808594 136.890625 C 127.808594 120.996094 129.929688 105.761719 133.886719 92.871094 C 140.332031 71.996094 150.730469 60.058594 162.449219 60.058594 C 174.167969 60.058594 184.570312 71.996094 191.015625 92.871094 C 194.96875 105.761719 197.09375 120.996094 197.09375 136.890625 C 197.09375 138.792969 195.554688 140.332031 193.652344 140.332031 L 157.324219 140.332031 L 157.324219 207.347656 C 157.324219 208.667969 156.589844 209.839844 155.492188 210.425781 C 154.832031 210.644531 154.320312 210.789062 153.734375 210.789062 Z M 162.378906 66.941406 C 154.175781 66.941406 145.75 77.636719 140.40625 94.921875 C 136.667969 107.152344 134.691406 121.65625 134.691406 136.890625 C 134.691406 149.195312 136.011719 161.351562 138.574219 171.898438 C 141.355469 183.617188 145.457031 193.140625 150.292969 199.292969 L 150.292969 136.890625 C 150.292969 134.984375 151.832031 133.445312 153.734375 133.445312 L 190.0625 133.445312 C 189.769531 119.457031 187.792969 106.273438 184.351562 94.921875 C 179.078125 77.636719 170.652344 66.941406 162.378906 66.941406 Z M 162.378906 66.941406 " fill-opacity="1" fill-rule="nonzero"/><path fill="#fffffe" d="M 162.378906 140.332031 C 160.472656 140.332031 158.933594 138.792969 158.933594 136.890625 L 158.933594 63.425781 C 158.933594 61.523438 160.472656 59.984375 162.378906 59.984375 C 164.28125 59.984375 165.820312 61.523438 165.820312 63.425781 L 165.820312 136.816406 C 165.894531 138.71875 164.28125 140.332031 162.378906 140.332031 Z M 162.378906 140.332031 " fill-opacity="1" fill-rule="nonzero"/><path fill="#fffffe" d="M 285.277344 315.015625 L 153.734375 315.015625 C 151.832031 315.015625 150.292969 313.476562 150.292969 311.570312 L 150.292969 136.816406 C 150.292969 134.910156 151.832031 133.375 153.734375 133.375 L 285.277344 133.375 C 287.183594 133.375 288.71875 134.910156 288.71875 136.816406 L 288.71875 311.5 C 288.71875 313.476562 287.183594 315.015625 285.277344 315.015625 Z M 157.179688 308.054688 L 281.761719 308.054688 L 281.761719 140.332031 L 157.179688 140.332031 Z M 157.179688 308.054688 " fill-opacity="1" fill-rule="nonzero"/><path fill="#fffffe" d="M 181.421875 185.742188 C 179.957031 185.742188 178.710938 184.863281 178.199219 183.472656 L 167.796875 155.492188 C 167.140625 153.734375 168.019531 151.683594 169.847656 151.023438 C 171.605469 150.367188 173.65625 151.246094 174.316406 153.074219 L 181.421875 172.265625 L 188.527344 153.074219 C 189.183594 151.316406 191.164062 150.367188 192.992188 151.023438 C 194.75 151.683594 195.703125 153.660156 195.042969 155.492188 L 184.644531 183.472656 C 184.203125 184.789062 182.886719 185.742188 181.421875 185.742188 Z M 181.421875 185.742188 " fill-opacity="1" fill-rule="nonzero"/><path fill="#fffffe" d="M 205.664062 185.742188 C 203.757812 185.742188 202.222656 184.203125 202.222656 182.300781 L 202.222656 154.320312 C 202.222656 152.417969 203.757812 150.878906 205.664062 150.878906 C 207.566406 150.878906 209.105469 152.417969 209.105469 154.320312 L 209.105469 182.300781 C 209.105469 184.203125 207.566406 185.742188 205.664062 185.742188 Z M 205.664062 185.742188 " fill-opacity="1" fill-rule="nonzero"/><path fill="#fffffe" d="M 226.464844 185.742188 L 219.507812 185.742188 C 217.601562 185.742188 216.0625 184.203125 216.0625 182.300781 C 216.0625 180.394531 217.601562 178.855469 219.507812 178.855469 L 226.464844 178.855469 C 228.371094 178.855469 229.90625 177.246094 229.90625 175.339844 C 229.90625 173.363281 228.371094 171.824219 226.464844 171.824219 C 220.753906 171.824219 216.0625 167.136719 216.0625 161.351562 C 216.0625 155.566406 220.75 150.878906 226.464844 150.878906 L 233.421875 150.878906 C 235.328125 150.878906 236.867188 152.417969 236.867188 154.320312 C 236.867188 156.226562 235.328125 157.761719 233.421875 157.761719 L 226.464844 157.761719 C 224.558594 157.761719 223.023438 159.375 223.023438 161.277344 C 223.023438 163.257812 224.558594 164.792969 226.464844 164.792969 C 232.175781 164.792969 236.867188 169.480469 236.867188 175.269531 C 236.792969 181.054688 232.175781 185.742188 226.464844 185.742188 Z M 226.464844 185.742188 " fill-opacity="1" fill-rule="nonzero"/><path fill="#fffffe" d="M 264.550781 185.742188 C 262.644531 185.742188 261.109375 184.203125 261.109375 182.300781 L 261.109375 163.109375 C 261.109375 160.179688 258.765625 157.835938 255.90625 157.835938 C 253.050781 157.835938 250.707031 160.179688 250.707031 163.109375 L 250.707031 182.300781 C 250.707031 184.203125 249.167969 185.742188 247.265625 185.742188 C 245.359375 185.742188 243.824219 184.203125 243.824219 182.300781 L 243.824219 163.109375 C 243.824219 156.371094 249.242188 150.878906 255.90625 150.878906 C 262.574219 150.878906 267.992188 156.371094 267.992188 163.109375 L 267.992188 182.300781 C 267.992188 184.203125 266.453125 185.742188 264.550781 185.742188 Z M 264.550781 185.742188 " fill-opacity="1" fill-rule="nonzero"/><path fill="#fffffe" d="M 264.550781 175.269531 L 247.265625 175.269531 C 245.359375 175.269531 243.824219 173.730469 243.824219 171.824219 C 243.824219 169.921875 245.359375 168.382812 247.265625 168.382812 L 264.550781 168.382812 C 266.457031 168.382812 267.992188 169.921875 267.992188 171.824219 C 267.992188 173.65625 266.453125 175.269531 264.550781 175.269531 Z M 264.550781 175.269531 " fill-opacity="1" fill-rule="nonzero"/><path fill="#fffffe" d="M 209.105469 255.613281 L 174.460938 255.613281 C 172.558594 255.613281 171.019531 254.078125 171.019531 252.171875 L 171.019531 241.550781 C 171.019531 230.125 180.320312 220.75 191.820312 220.75 C 203.246094 220.75 212.621094 230.054688 212.621094 241.550781 L 212.621094 252.171875 C 212.621094 254.078125 211.011719 255.613281 209.105469 255.613281 Z M 177.976562 248.65625 L 205.664062 248.65625 L 205.664062 241.480469 C 205.664062 233.863281 199.4375 227.636719 191.820312 227.636719 C 184.203125 227.636719 177.976562 233.863281 177.976562 241.480469 Z M 177.976562 248.65625 " fill-opacity="1" fill-rule="nonzero"/><path fill="#fffffe" d="M 191.820312 227.636719 C 184.203125 227.636719 177.976562 221.410156 177.976562 213.71875 C 177.976562 206.03125 184.203125 199.804688 191.820312 199.804688 C 199.4375 199.804688 205.664062 206.03125 205.664062 213.71875 C 205.664062 221.410156 199.4375 227.636719 191.820312 227.636719 Z M 191.820312 206.6875 C 188.011719 206.6875 184.863281 209.839844 184.863281 213.71875 C 184.863281 217.601562 187.9375 220.75 191.820312 220.75 C 195.703125 220.75 198.777344 217.601562 198.777344 213.71875 C 198.777344 209.839844 195.628906 206.6875 191.820312 206.6875 Z M 191.820312 206.6875 " fill-opacity="1" fill-rule="nonzero"/><path fill="#fffffe" d="M 271.433594 220.679688 L 226.464844 220.679688 C 224.558594 220.679688 223.023438 219.140625 223.023438 217.234375 C 223.023438 215.332031 224.558594 213.792969 226.464844 213.792969 L 271.433594 213.792969 C 273.339844 213.792969 274.878906 215.332031 274.878906 217.234375 C 274.878906 219.140625 273.339844 220.679688 271.433594 220.679688 Z M 271.433594 220.679688 " fill-opacity="1" fill-rule="nonzero"/><path fill="#fffffe" d="M 271.433594 238.109375 L 226.464844 238.109375 C 224.558594 238.109375 223.023438 236.570312 223.023438 234.667969 C 223.023438 232.761719 224.558594 231.226562 226.464844 231.226562 L 271.433594 231.226562 C 273.339844 231.226562 274.878906 232.761719 274.878906 234.667969 C 274.878906 236.570312 273.339844 238.109375 271.433594 238.109375 Z M 271.433594 238.109375 " fill-opacity="1" fill-rule="nonzero"/><path fill="#fffffe" d="M 271.433594 252.097656 L 226.464844 252.097656 C 224.558594 252.097656 223.023438 250.5625 223.023438 248.65625 C 223.023438 246.753906 224.558594 245.214844 226.464844 245.214844 L 271.433594 245.214844 C 273.339844 245.214844 274.878906 246.753906 274.878906 248.65625 C 274.878906 250.5625 273.339844 252.097656 271.433594 252.097656 Z M 271.433594 252.097656 " fill-opacity="1" fill-rule="nonzero"/><path fill="#fffffe" d="M 267.992188 297.507812 L 171.09375 297.507812 C 169.1875 297.507812 167.652344 295.972656 167.652344 294.066406 L 167.652344 273.121094 C 167.652344 271.214844 169.191406 269.675781 171.09375 269.675781 L 267.992188 269.675781 C 269.898438 269.675781 271.4375 271.214844 271.4375 273.121094 L 271.4375 294.066406 C 271.433594 295.972656 269.898438 297.507812 267.992188 297.507812 Z M 174.535156 290.625 L 264.550781 290.625 L 264.550781 276.5625 L 174.535156 276.5625 Z M 174.535156 290.625 " fill-opacity="1" fill-rule="nonzero"/></svg>