<?xml version="1.0" standalone="no"?>
<!DOCTYPE svg PUBLIC "-//W3C//DTD SVG 20010904//EN"
 "http://www.w3.org/TR/2001/REC-SVG-20010904/DTD/svg10.dtd">
<svg version="1.0" xmlns="http://www.w3.org/2000/svg"
 width="624.000000pt" height="421.000000pt" viewBox="0 0 624.000000 421.000000"
 preserveAspectRatio="xMidYMid meet">

<g transform="translate(0.000000,421.000000) scale(0.100000,-0.100000)"
fill="#000000" stroke="none">
<path d="M466 4056 c-88 -51 -162 -98 -163 -103 -2 -6 10 -16 27 -21 33 -12
32 -9 36 -142 3 -122 3 -120 18 -120 7 0 21 -19 30 -43 34 -91 124 -159 227
-173 113 -15 237 62 280 175 28 74 22 160 -15 227 -37 66 -34 93 14 127 33 23
51 47 37 47 -2 0 -77 27 -167 60 -90 33 -164 60 -164 59 -1 0 -73 -42 -160
-93z m-65 -156 c21 -12 26 -54 9 -80 -8 -12 -10 -9 -10 13 0 15 -4 27 -9 27
-5 0 -11 11 -13 25 -6 28 -4 29 23 15z"/>
<path d="M1428 3772 c76 -55 82 -63 93 -147 14 -100 5 -335 -19 -503 -16 -109
-16 -122 -3 -117 349 105 716 134 829 65 85 -52 78 -114 -21 -206 -35 -33 -94
-77 -132 -99 l-68 -39 39 -9 c58 -13 307 0 407 21 l87 18 0 -20 c-1 -12 -13
-158 -29 -324 -21 -227 -31 -306 -42 -313 -8 -5 -36 -9 -64 -9 -145 -1 -369
-51 -685 -155 -270 -89 -342 -105 -460 -105 -112 0 -197 25 -286 85 -37 25
-69 44 -71 42 -8 -8 79 -77 127 -102 110 -56 296 -76 476 -51 61 8 185 33 275
55 245 61 327 73 521 78 196 6 289 -3 512 -47 78 -15 144 -25 147 -21 3 3 18
305 33 671 15 366 30 715 33 777 l6 112 -217 -72 -217 -72 -9 -35 c-5 -19 -14
-91 -20 -159 -6 -69 -12 -126 -13 -128 -7 -6 -267 54 -267 62 0 2 27 79 60
170 33 91 60 178 60 192 0 106 -386 258 -935 367 -71 15 -139 28 -150 31 -18
3 -17 2 3 -13z m512 -228 c0 -26 -26 -39 -44 -22 -17 16 -1 44 25 44 13 0 19
-7 19 -22z m-196 -46 c3 -10 20 -20 42 -24 l37 -7 -37 -19 c-35 -18 -36 -21
-30 -56 l7 -37 -27 25 c-24 22 -30 23 -58 12 -18 -6 -33 -10 -35 -9 -1 2 3 17
9 35 11 28 10 34 -12 58 l-25 26 41 -6 c39 -7 42 -6 54 25 14 34 16 32 34 -23z
m266 -50 c0 -20 -30 -24 -47 -7 -9 9 -9 16 -1 29 9 14 15 16 30 7 10 -7 18
-20 18 -29z m-28 -120 c-5 -22 -16 -23 -36 -2 -21 20 -20 32 2 36 23 5 40 -12
34 -34z m-90 -64 c-23 -16 -51 -6 -45 16 6 24 35 30 49 11 9 -12 8 -18 -4 -27z"/>
<path d="M1315 3748 c-109 -66 -186 -128 -317 -255 -144 -141 -188 -169 -277
-180 -101 -12 -268 45 -364 123 -47 38 -137 149 -137 169 0 6 29 28 64 50 40
25 60 43 53 47 -7 4 -9 8 -4 8 12 0 -23 48 -40 55 -11 4 -31 -8 -60 -37 -38
-37 -83 -62 -67 -37 3 5 -6 13 -19 18 -14 6 -28 15 -32 20 -3 6 -14 11 -23 10
-13 0 -11 -3 5 -9 25 -10 42 -37 38 -62 -2 -10 1 -18 6 -18 6 0 7 -4 4 -10 -3
-5 0 -7 8 -4 8 3 17 -2 21 -11 4 -11 -8 -35 -36 -69 -23 -28 -44 -53 -46 -56
-2 -3 -15 8 -29 24 l-25 29 29 24 28 25 -33 -22 c-17 -12 -32 -26 -32 -31 0
-13 46 -59 60 -59 6 0 30 21 55 47 50 51 47 54 64 -56 25 -159 107 -352 229
-536 46 -70 107 -141 201 -236 146 -146 274 -243 431 -329 94 -50 263 -130
267 -126 2 2 -9 31 -22 67 -82 206 -134 456 -142 679 -11 299 38 505 163 696
21 32 43 65 47 72 13 20 -15 13 -68 -20z m-1002 -15 c20 -23 8 -39 -54 -76
-41 -23 -48 -25 -60 -11 -10 12 -6 21 26 54 l39 40 22 -21 c16 -15 24 -17 29
-8 5 7 4 10 -3 5 -6 -3 -16 3 -22 14 -13 25 1 26 23 3z"/>
<path d="M87 3693 c-13 -12 -7 -41 9 -47 25 -10 29 -7 9 7 -21 16 -12 39 13
31 14 -5 15 -4 2 5 -18 13 -24 13 -33 4z"/>
<path d="M3170 3590 l0 -110 585 0 585 0 0 105 0 106 -72 -3 -73 -3 -3 -77 -3
-78 -79 0 -80 0 0 80 0 80 -100 0 -100 0 0 -75 0 -75 -75 0 -75 0 0 80 0 81
-97 -3 -98 -3 -3 -67 -3 -68 -74 0 -75 0 0 70 0 70 -80 0 -80 0 0 -110z"/>
<path d="M3406 3641 c-52 -53 -53 -71 -3 -71 50 0 59 11 55 69 l-3 52 -49 -50z"/>
<path d="M3094 3665 c-4 -8 -9 -38 -13 -66 -4 -38 -12 -56 -28 -67 l-23 -14 0
61 c0 66 -4 70 -49 46 -31 -15 -44 -46 -35 -82 8 -29 -20 -73 -46 -73 -16 0
-19 8 -22 53 -3 46 -5 52 -23 49 -34 -6 -47 -28 -54 -89 -6 -54 -8 -58 -33
-61 -27 -3 -28 -2 -28 47 0 53 -14 67 -29 29 -5 -13 -12 -61 -16 -107 -6 -69
-5 -83 6 -79 8 3 106 38 219 78 113 40 208 78 212 84 4 6 8 55 8 109 0 91 -1
97 -20 97 -11 0 -23 -7 -26 -15z"/>
<path d="M3751 3622 c-22 -28 -41 -53 -41 -56 0 -4 21 -6 48 -4 l47 3 3 44 c5
66 -10 69 -57 13z"/>
<path d="M4110 3618 c-57 -71 -57 -68 0 -68 l51 0 -3 47 c-2 25 -7 48 -13 49
-5 2 -21 -11 -35 -28z"/>
<path d="M109 3613 c-13 -16 -12 -17 4 -4 9 7 17 15 17 17 0 8 -8 3 -21 -13z"/>
<path d="M3166 3398 c-3 -18 -17 -341 -31 -718 -13 -377 -27 -717 -31 -756 -7
-91 0 -99 141 -155 61 -24 175 -76 255 -115 286 -142 490 -304 665 -529 33
-42 -22 81 -62 141 -111 163 -305 339 -590 537 -78 54 -114 86 -123 108 -19
44 -8 608 12 620 21 14 106 10 146 -6 20 -9 53 -31 72 -48 65 -61 138 -117
165 -127 29 -11 98 -13 133 -4 21 6 22 11 22 99 l0 93 29 7 c34 7 95 -2 131
-20 14 -7 72 -45 129 -84 58 -39 109 -71 113 -71 4 0 8 239 8 530 l0 530 -590
0 -589 0 -5 -32z m424 -47 c0 -23 -28 -35 -46 -20 -11 9 -11 15 -3 25 17 21
49 17 49 -5z m-180 -54 c0 -10 8 -20 18 -23 58 -19 59 -20 23 -38 -31 -16 -32
-20 -26 -54 l7 -37 -24 23 c-27 24 -49 28 -80 11 -19 -10 -20 -9 -13 7 18 44
17 56 -6 81 l-24 26 37 -6 c34 -5 39 -3 55 23 18 30 33 24 33 -13z m204 -33
c22 -8 20 -42 -1 -46 -25 -5 -44 21 -29 38 13 16 11 15 30 8z m-31 -135 c-3
-10 -11 -15 -23 -12 -22 6 -34 43 -14 43 8 0 14 5 14 12 0 6 6 3 14 -7 7 -10
11 -26 9 -36z m-60 -59 c6 0 2 -6 -8 -14 -25 -18 -54 -10 -48 14 6 22 37 31
41 13 2 -7 8 -13 15 -13z m-105 -81 c53 -18 62 -44 62 -184 l0 -125 -95 0
c-115 0 -115 0 -115 139 0 114 11 148 55 167 37 16 54 17 93 3z m381 0 c50
-18 61 -51 61 -189 l0 -120 -87 0 c-120 0 -123 4 -123 136 0 117 11 151 55
170 37 16 54 17 94 3z m395 -3 c48 -20 57 -53 54 -186 l-3 -115 -103 -3 -104
-3 4 135 c2 113 6 137 22 154 28 32 80 39 130 18z"/>
<path d="M3374 2962 c43 -30 55 -59 57 -132 1 -36 5 -78 8 -95 7 -27 8 -24 16
29 10 79 1 165 -22 187 -10 10 -34 21 -53 25 l-35 6 29 -20z"/>
<path d="M3768 2943 c41 -39 42 -41 43 -109 2 -124 17 -138 18 -18 1 127 -8
149 -69 161 l-34 6 42 -40z"/>
<path d="M4143 2962 c50 -34 59 -58 67 -166 l7 -101 2 116 c1 133 -8 154 -69
165 l-35 6 28 -20z"/>
<path d="M2147 2923 c-20 -75 -34 -139 -32 -141 7 -7 108 57 158 99 24 21 52
55 61 74 16 33 16 38 2 60 -17 25 -70 45 -122 45 l-31 0 -36 -137z"/>
<path d="M2558 2583 c-91 -24 -380 -126 -683 -243 -299 -115 -373 -140 -387
-131 -10 6 -54 11 -97 11 -147 0 -234 30 -401 139 -52 34 -129 74 -170 90 -88
34 -217 54 -275 42 l-40 -9 50 -1 c138 -4 254 -49 431 -169 143 -97 216 -125
329 -126 44 -1 100 2 125 6 l45 8 -35 -19 c-56 -31 -156 -44 -230 -31 -86 16
-157 54 -265 141 -163 131 -288 175 -480 166 -163 -6 -190 -19 -178 -80 l5
-27 147 0 c168 0 229 -12 331 -66 85 -44 163 -114 233 -207 95 -126 157 -170
286 -203 47 -12 93 -15 170 -12 102 4 116 8 361 91 265 90 434 135 605 162 55
9 106 22 112 28 8 7 18 78 27 177 25 284 26 274 -16 263z"/>
<path d="M3990 2510 c0 -5 57 -48 128 -96 354 -243 455 -319 724 -551 181
-156 208 -192 208 -275 0 -49 -27 -139 -56 -185 -31 -49 -150 -185 -238 -273
-47 -46 -86 -88 -86 -92 0 -15 80 -8 130 11 72 27 113 62 175 146 133 179 183
293 171 389 -18 140 -117 246 -451 487 -574 413 -628 448 -682 449 -13 0 -23
-4 -23 -10z"/>
<path d="M3481 2501 c-8 -5 -11 -16 -8 -24 3 -8 86 -82 184 -165 366 -307 465
-407 557 -563 126 -212 146 -372 67 -534 -17 -34 -49 -82 -71 -107 -63 -72
-58 -78 61 -78 l100 0 23 53 c80 182 73 395 -19 581 -69 139 -179 270 -372
443 -460 413 -421 381 -483 396 -14 3 -31 2 -39 -2z"/>
<path d="M3968 2433 c-2 -59 1 -75 20 -96 9 -11 114 -90 232 -176 380 -275
594 -462 725 -630 l50 -63 12 28 c18 43 15 133 -6 179 -33 74 -176 193 -593
495 -224 162 -414 296 -422 298 -12 3 -16 -6 -18 -35z"/>
<path d="M3427 2433 c-4 -3 -7 -114 -7 -246 0 -196 3 -245 16 -270 9 -20 84
-87 202 -179 374 -294 476 -395 543 -535 l32 -67 23 45 c62 117 79 244 48 350
-67 225 -324 515 -745 842 -86 66 -99 73 -112 60z"/>
<path d="M4475 2292 c44 -42 166 -137 270 -211 300 -213 399 -324 426 -480
l11 -61 127 -39 c415 -130 675 -191 816 -191 83 0 92 8 72 67 -16 50 -61 78
-155 98 -279 58 -317 77 -466 234 -180 188 -253 256 -350 325 -105 75 -260
158 -396 211 -99 39 -389 125 -418 125 -11 0 13 -29 63 -78z"/>
<path d="M2400 1724 c-14 -2 -56 -9 -95 -15 -102 -17 -217 -60 -420 -159 -371
-181 -501 -217 -732 -207 -132 5 -200 21 -310 72 -42 19 -78 33 -80 31 -12
-12 172 -151 252 -191 129 -65 195 -80 350 -80 188 0 272 25 660 193 235 102
414 142 640 142 221 0 384 -34 726 -154 118 -41 215 -73 217 -71 6 6 -183 133
-288 193 -191 110 -389 185 -585 223 -96 19 -284 32 -335 23z"/>
<path d="M370 958 c-6 -23 -13 -51 -16 -60 -5 -17 8 -18 166 -18 196 0 232 -9
256 -65 25 -60 -8 -119 -88 -159 -45 -23 -65 -26 -150 -26 -54 0 -98 2 -98 5
0 3 9 38 20 77 11 40 20 78 20 85 0 9 -21 13 -74 13 -62 0 -76 -3 -80 -17 -3
-10 -19 -70 -36 -133 -17 -63 -33 -123 -36 -132 -5 -17 7 -18 164 -18 187 0
250 8 328 44 67 31 151 108 175 161 46 101 10 203 -88 252 -57 27 -62 28 -255
31 l-197 4 -11 -44z"/>
<path d="M1100 958 c-6 -24 -13 -51 -16 -60 -5 -16 12 -18 223 -20 201 -3 228
-5 231 -19 2 -9 -4 -24 -13 -33 -14 -14 -47 -16 -239 -16 l-223 0 -37 -132
c-20 -73 -39 -141 -42 -150 -5 -16 3 -18 74 -18 l79 0 24 90 23 91 91 -91 90
-90 116 0 116 0 -89 88 -90 87 72 7 c123 11 191 70 206 181 5 35 2 53 -10 73
-33 49 -64 54 -330 54 l-245 0 -11 -42z"/>
<path d="M1820 958 c-6 -24 -13 -51 -16 -60 -5 -17 14 -18 305 -18 l310 0 16
52 c8 28 15 55 15 60 0 4 -139 8 -310 8 l-309 0 -11 -42z"/>
<path d="M2759 953 c-20 -27 -102 -137 -182 -245 l-147 -198 78 0 77 0 115
149 c63 83 117 150 120 150 3 1 21 -67 40 -149 l34 -150 79 0 c77 0 79 1 74
23 -3 12 -24 111 -46 220 -23 109 -44 209 -47 222 -6 24 -10 25 -83 25 l-77 0
-35 -47z"/>
<path d="M3280 996 c0 -4 -116 -434 -126 -468 -5 -16 3 -18 73 -18 l79 0 39
150 c22 83 42 150 45 150 3 -1 27 -32 54 -70 27 -39 53 -70 59 -70 5 0 49 32
98 70 48 39 90 70 92 70 2 0 -14 -64 -35 -142 -21 -78 -38 -146 -38 -150 0 -4
33 -8 74 -8 l74 0 11 33 c13 42 121 444 121 451 0 3 -34 6 -76 6 l-76 0 -86
-66 c-48 -37 -92 -71 -99 -76 -8 -6 -29 13 -68 66 l-57 76 -79 0 c-44 0 -79
-2 -79 -4z"/>
<path d="M4170 958 c-6 -24 -13 -51 -16 -60 -5 -17 25 -18 526 -18 592 0 588
0 616 -65 25 -60 -8 -119 -88 -159 -45 -23 -65 -26 -150 -26 -54 0 -98 3 -98
8 0 4 11 44 24 90 l24 82 -78 0 -77 0 -38 -137 c-21 -76 -40 -144 -43 -150 -5
-16 308 -18 388 -3 117 22 242 109 281 195 46 101 10 203 -88 252 l-58 28
-557 3 -557 3 -11 -43z"/>
<path d="M5609 958 c-6 -24 -24 -92 -41 -153 -38 -137 -40 -184 -12 -222 43
-57 77 -68 209 -68 136 0 181 14 253 79 48 44 52 52 106 249 l43 157 -78 0
c-65 0 -78 -3 -83 -17 -2 -10 -21 -79 -41 -153 -21 -74 -41 -143 -46 -152 -26
-49 -165 -67 -207 -28 -17 16 -21 27 -15 48 3 15 23 89 43 165 l37 137 -78 0
-78 0 -12 -42z"/>
<path d="M1770 768 c-14 -52 -59 -216 -66 -240 -5 -17 14 -18 305 -18 l310 0
16 52 c8 28 15 55 15 60 0 4 -104 8 -231 8 l-231 0 6 23 c3 12 6 25 6 30 0 4
106 7 235 7 l234 0 16 52 c8 28 15 55 15 60 0 4 -139 8 -310 8 l-309 0 -11
-42z"/>
<path d="M4120 768 c-14 -52 -59 -216 -66 -240 -5 -17 14 -18 305 -18 l310 0
16 52 c8 28 15 55 15 60 0 4 -104 8 -231 8 l-231 0 6 23 c3 12 6 25 6 30 0 4
106 7 235 7 l234 0 16 52 c8 28 15 55 15 60 0 4 -139 8 -310 8 l-309 0 -11
-42z"/>
<path d="M1990 240 l0 -140 35 0 35 0 0 70 0 71 58 -3 57 -3 3 -67 3 -68 34 0
35 0 0 71 c0 39 -4 79 -10 89 -13 24 -62 40 -126 40 l-54 0 0 40 c0 39 -1 40
-35 40 l-35 0 0 -140z"/>
<path d="M2590 240 l0 -140 35 0 35 0 0 140 0 140 -35 0 -35 0 0 -140z"/>
<path d="M3460 240 l0 -140 35 0 35 0 0 70 0 71 58 -3 57 -3 3 -67 3 -68 34 0
35 0 0 71 c0 39 -4 79 -10 89 -13 24 -62 40 -126 40 l-54 0 0 40 c0 39 -1 40
-35 40 l-35 0 0 -140z"/>
<path d="M3782 368 c-19 -19 -14 -37 14 -44 35 -9 63 18 44 40 -15 19 -41 21
-58 4z"/>
<path d="M315 278 c59 -75 65 -87 65 -130 l0 -48 40 0 40 0 0 46 c0 41 7 54
66 130 l66 84 -44 0 c-41 0 -46 -3 -83 -51 l-39 -51 -46 51 c-41 47 -49 51
-88 51 l-42 0 65 -82z"/>
<path d="M5090 255 c0 -99 2 -107 25 -130 20 -21 34 -25 80 -25 52 0 55 1 55
25 0 22 -4 25 -34 25 -42 0 -58 19 -54 62 3 31 5 33 46 36 37 3 42 6 42 28 0
22 -4 24 -45 24 -43 0 -45 1 -45 30 0 28 -3 30 -35 30 l-35 0 0 -105z"/>
<path d="M614 286 c-85 -37 -84 -136 2 -172 67 -28 170 -9 193 34 14 26 14 78
0 104 -23 43 -130 62 -195 34z m130 -68 c18 -29 -4 -53 -51 -56 -39 -3 -73 15
-73 38 0 5 7 16 16 25 22 21 93 17 108 -7z"/>
<path d="M850 231 c0 -92 22 -121 98 -129 66 -6 118 4 143 29 15 15 19 33 19
94 l0 75 -35 0 -34 0 -3 -67 -3 -68 -45 -3 c-56 -4 -70 13 -70 85 l0 53 -35 0
-35 0 0 -69z"/>
<path d="M1214 290 c-39 -16 -54 -49 -54 -122 l0 -68 35 0 35 0 0 51 c0 71 12
89 60 89 38 0 40 2 40 30 0 29 -1 30 -47 29 -27 0 -58 -4 -69 -9z"/>
<path d="M1490 280 c-24 -24 -25 -49 -6 -76 11 -15 30 -20 85 -24 39 -3 71 -9
71 -15 0 -6 -37 -11 -85 -13 -83 -3 -85 -3 -85 -27 0 -25 0 -25 105 -25 92 0
108 3 125 20 11 11 20 29 20 40 0 41 -34 60 -111 60 -52 0 -70 3 -67 13 3 8
32 13 86 15 80 3 82 4 82 27 0 25 0 25 -100 25 -87 0 -103 -3 -120 -20z"/>
<path d="M1779 277 c-41 -27 -57 -66 -43 -104 16 -48 67 -73 145 -73 l69 0 0
30 c0 30 0 30 -59 30 -41 0 -65 5 -75 16 -36 36 -4 64 75 64 59 0 59 0 59 30
l0 30 -69 0 c-54 0 -75 -5 -102 -23z"/>
<path d="M2354 286 c-85 -37 -84 -136 2 -172 67 -28 170 -9 193 34 6 12 11 35
11 52 0 17 -5 40 -11 52 -23 43 -130 62 -195 34z m130 -68 c18 -29 -4 -53 -51
-56 -39 -3 -73 15 -73 38 0 5 7 16 16 25 22 21 93 17 108 -7z"/>
<path d="M2720 271 l0 -30 78 -3 77 -3 3 -42 3 -43 -50 0 c-39 0 -51 4 -51 15
0 11 11 15 40 15 33 0 40 3 40 20 0 18 -7 20 -55 20 -60 0 -95 -22 -95 -60 0
-11 9 -29 20 -40 17 -17 33 -20 120 -20 l100 0 0 73 c0 66 -3 76 -26 98 -22
21 -37 24 -115 27 l-89 4 0 -31z"/>
<path d="M3054 290 c-39 -16 -54 -49 -54 -122 l0 -68 35 0 35 0 0 51 c0 71 12
89 60 89 38 0 40 2 40 30 0 29 -1 30 -47 29 -27 0 -58 -4 -69 -9z"/>
<path d="M3210 280 c-24 -24 -25 -49 -6 -76 11 -15 30 -20 85 -24 39 -3 71 -9
71 -15 0 -6 -37 -11 -85 -13 -83 -3 -85 -3 -85 -27 0 -25 0 -25 105 -25 92 0
108 3 125 20 11 11 20 29 20 40 0 41 -34 60 -111 60 -52 0 -70 3 -67 13 3 8
32 13 86 15 80 3 82 4 82 27 0 25 0 25 -100 25 -87 0 -103 -3 -120 -20z"/>
<path d="M3770 200 l0 -100 35 0 35 0 0 100 0 100 -35 0 -35 0 0 -100z"/>
<path d="M3944 291 c-44 -19 -54 -49 -54 -158 l0 -103 35 0 35 0 0 86 c0 47 5
94 10 105 19 35 120 18 120 -21 0 -20 -34 -40 -66 -40 -31 0 -34 -2 -34 -30 0
-28 2 -30 40 -30 114 0 168 87 101 162 -26 30 -34 32 -97 35 -38 2 -79 -1 -90
-6z"/>
<path d="M4364 291 c-44 -19 -54 -49 -54 -158 l0 -103 35 0 35 0 0 86 c0 47 5
94 10 105 19 35 120 18 120 -21 0 -20 -34 -40 -66 -40 -31 0 -34 -2 -34 -30 0
-28 2 -30 40 -30 114 0 168 87 101 162 -26 30 -34 32 -97 35 -38 2 -79 -1 -90
-6z"/>
<path d="M4620 271 l0 -30 78 -3 77 -3 3 -42 3 -43 -50 0 c-39 0 -51 4 -51 15
0 11 11 15 40 15 33 0 40 3 40 20 0 18 -7 20 -55 20 -60 0 -95 -22 -95 -60 0
-11 9 -29 20 -40 17 -17 33 -20 120 -20 l100 0 0 73 c0 66 -3 76 -26 98 -22
21 -37 24 -115 27 l-89 4 0 -31z"/>
<path d="M4944 290 c-39 -16 -54 -49 -54 -122 l0 -68 35 0 35 0 0 51 c0 71 12
89 60 89 38 0 40 2 40 30 0 29 -1 30 -47 29 -27 0 -58 -4 -69 -9z"/>
<path d="M5290 200 l0 -100 35 0 35 0 0 70 0 71 58 -3 57 -3 3 -67 3 -68 34 0
35 0 0 71 c0 39 -4 79 -10 89 -15 28 -64 40 -161 40 l-89 0 0 -100z"/>
<path d="M5654 290 c-31 -12 -64 -59 -64 -89 0 -66 58 -101 165 -101 73 0 75
1 75 25 0 24 -2 25 -65 25 -52 0 -69 4 -85 20 -24 24 -24 29 -4 58 12 18 24
22 52 20 52 -4 54 -28 3 -28 -34 0 -41 -3 -41 -20 0 -17 7 -20 48 -20 62 0 96
18 100 52 5 46 -28 68 -100 67 -35 0 -73 -4 -84 -9z"/>
<path d="M5924 290 c-39 -16 -54 -49 -54 -122 l0 -68 35 0 35 0 0 51 c0 71 12
89 60 89 38 0 40 2 40 30 0 29 -1 30 -47 29 -27 0 -58 -4 -69 -9z"/>
</g>
</svg>
